<?xml version="1.0" encoding="utf-8"?>
<svg xmlns="http://www.w3.org/2000/svg" viewBox="10.8457 -132.3367 1195.6057 979.6807" width="1195.61pt" height="979.681pt">
  <path d="M 1184.94 846.744 C 1184.55 846.344 1139.14 845.944 1084.05 845.844 C 985.445 845.644 956.545 844.844 920.245 841.844 C 892.045 839.444 888.345 838.744 885.745 835.044 C 883.745 832.144 883.845 826.344 886.045 823.644 C 890.145 818.444 920.945 800.144 950.745 785.044 C 964.545 778.044 1003.85 759.344 1004.75 759.344 C 1005.04 759.344 1009.45 757.244 1014.75 754.744 C 1020.75 751.844 1023.95 749.744 1023.54 748.944 C 1023.14 748.344 1019.14 742.644 1014.64 736.344 C 998.245 713.344 991.345 701.844 945.245 622.344 C 929.445 595.044 917.945 576.544 905.445 558.444 C 897.245 546.544 896.345 542.944 900.845 539.444 C 906.845 534.744 904.945 533.444 959.145 575.744 C 992.845 601.944 1026.55 627.444 1046.24 641.544 C 1066.35 655.844 1101.05 678.344 1103.05 678.344 C 1103.64 678.344 1108.24 670.344 1113.14 660.644 C 1133.85 619.844 1155.74 583.844 1179.14 552.544 C 1188.94 539.344 1191.55 537.444 1196.44 539.444 C 1197.94 540.044 1199.64 541.144 1200.14 541.744 C 1200.74 542.544 1201.35 564.444 1201.64 599.944 C 1201.85 631.244 1202.85 671.244 1203.74 688.844 C 1205.85 731.644 1206.94 788.344 1206.24 818.144 L 1205.74 842.544 L 1202.94 844.944 C 1200.55 847.044 1199.14 847.344 1192.85 847.344 C 1188.85 847.344 1185.24 847.044 1184.94 846.744 Z M 979.845 828.344 C 985.545 826.144 987.045 820.044 982.745 815.844 C 980.445 813.444 979.945 813.344 965.745 813.344 C 951.545 813.344 951.045 813.444 948.745 815.844 C 944.845 819.644 945.845 826.444 950.545 828.344 C 953.645 829.544 976.545 829.544 979.845 828.344 Z M 1044.64 826.244 C 1047.85 823.744 1048.14 818.744 1045.35 815.244 C 1043.55 813.044 1042.55 812.844 1032.64 812.544 C 1017.35 812.044 1007.54 813.044 1005.14 815.444 C 1002.54 818.044 1002.75 823.144 1005.45 826.044 C 1007.54 828.244 1008.14 828.344 1024.74 828.344 C 1040.64 828.344 1042.14 828.144 1044.64 826.244 Z M 1105.64 825.444 C 1109.05 822.244 1109.05 818.044 1105.74 814.844 C 1103.35 812.344 1103.05 812.344 1086.94 812.344 C 1071.85 812.344 1070.35 812.544 1067.85 814.444 C 1063.64 817.744 1064.64 825.344 1069.55 827.344 C 1070.74 827.844 1078.85 828.144 1087.44 828.044 C 1102.44 827.844 1103.14 827.744 1105.64 825.444 Z M 1164.64 825.244 C 1168.85 821.944 1168.14 815.344 1163.14 812.844 C 1159.74 811.044 1136.24 810.744 1131.35 812.444 C 1125.64 814.444 1124.24 821.644 1128.85 825.244 C 1131.24 827.144 1132.85 827.344 1146.74 827.344 C 1160.64 827.344 1162.24 827.144 1164.64 825.244 Z M 1186.94 813.144 C 1189.14 811.044 1189.24 810.444 1189.24 795.344 C 1189.24 780.944 1189.05 779.344 1187.14 776.944 C 1184.24 773.244 1178.24 773.244 1175.24 777.044 C 1173.24 779.644 1173.14 780.744 1173.44 795.644 C 1173.74 810.944 1173.85 811.644 1176.14 813.444 C 1179.24 815.944 1184.05 815.844 1186.94 813.144 Z M 1185.64 754.244 C 1188.24 752.244 1188.24 752.144 1188.24 738.044 C 1188.24 724.944 1188.05 723.844 1186.05 721.644 C 1183.14 718.544 1177.35 718.444 1174.64 721.444 C 1172.94 723.344 1172.74 725.044 1172.94 737.744 C 1173.14 751.644 1173.14 751.844 1175.74 754.144 C 1179.05 756.944 1182.24 756.944 1185.64 754.244 Z M 1184.94 698.944 L 1187.74 696.544 L 1187.74 682.344 L 1187.74 668.144 L 1184.94 665.744 C 1180.35 661.844 1175.14 662.844 1172.35 668.144 C 1170.85 670.944 1171.64 694.344 1173.24 697.344 C 1175.64 701.844 1180.74 702.544 1184.94 698.944 Z M 1185.24 642.544 C 1187.05 640.344 1187.24 638.544 1187.14 626.944 C 1187.05 605.944 1185.94 602.044 1179.64 600.744 C 1177.24 600.344 1175.94 600.744 1173.85 602.544 L 1171.05 604.844 L 1171.24 622.844 C 1171.24 639.644 1171.44 640.944 1173.44 643.044 C 1177.05 646.844 1182.05 646.644 1185.24 642.544 Z" fill="#000000" stroke="none" style="stroke-width: 0.1;" transform="matrix(1, 0, 0, 1, 0, -2.842170943040401e-14)"/>
  <g transform="matrix(1, 0, 0, 1, -24.620689392089844, -221.5862274169922)">
    <path d="M 617.5 90.4 C 615.9 91.1 613.4 93 612 94.5 C 609.8 96.9 609.5 98 609.5 105.3 C 609.5 109.8 610.1 116.2 610.8 119.5 C 611.5 122.8 615.2 143.5 619.1 165.5 C 641.8 294.7 654.5 362.3 657.3 368 C 660.5 374.6 665.1 377.3 672.3 376.8 C 678.7 376.3 682.4 374.2 685.4 369.1 C 688 364.7 687.7 359.2 684 340.1 C 682.3 331.2 681 323.2 681.2 322.4 C 681.4 321.2 681.9 321.2 684 322.3 C 694.2 327.6 760 350 765.4 350 C 770.6 350 775.8 347.2 778.8 342.9 C 780.8 340 781.1 338.5 780.8 333.3 C 780.5 328 779.9 326.5 777.5 323.9 C 773.6 319.8 770.6 318.5 736.5 307 C 700.7 294.9 699 294.2 699 292 C 699 290.3 704.4 281.5 724 251.6 C 742.4 223.6 741.5 225.2 741.5 219 C 741.5 212.4 738.9 208.1 733.4 205.5 C 728.1 203 720.8 203.9 717 207.5 C 715.4 209 704.8 224.1 693.5 241.1 C 682.1 258.1 672.4 272 672 272 C 671.1 272 669 262.5 662.9 230 C 660.2 215.4 657.7 202.8 657.5 202 C 656.7 199.3 642.8 123.1 639.9 105.5 C 638.1 95 633.6 90 625.3 89.3 C 622.5 89.1 619.2 89.5 617.5 90.4 Z" fill="#000000" stroke="none" style="stroke-width: 0.1;"/>
    <path d="M 278.9 191 C 269.4 196 269.3 200.6 277.5 240.5 C 280.1 253.2 284.8 279.8 292.9 328 C 305.2 400.9 312.5 437.6 315.8 443.5 C 316.8 445.1 319.6 447.5 322 448.8 C 330.9 453.4 341.1 449.6 344.6 440.5 C 346.5 435.4 347.1 439.8 339.1 401 C 335.8 385.1 330.1 354.4 323 314.5 C 320.6 301.3 311.4 252.5 306.4 226.7 C 301.5 201.8 300.4 197.4 298.2 194.8 C 293.3 189 285.5 187.5 278.9 191 Z" fill="#000000" stroke="none" style="stroke-width: 0.1;"/>
    <path d="M 191.5 195.7 C 179.4 198.6 151.7 209.1 137.5 216.3 C 120.8 224.6 103.3 236.6 89.1 249.4 C 51.6 283.1 31.9 330.1 36 376.1 C 41 433.6 78.4 475.5 132.2 484 C 142.1 485.6 167.7 484.7 178 482.5 C 199.6 477.8 225.7 466.3 246.7 452.3 C 259.8 443.5 263 440 263.8 433.5 C 264.7 425.2 259.9 418.5 251.7 416.2 C 246.3 414.7 242 416.3 230.5 423.8 C 211.2 436.5 192.5 445.2 174.6 449.8 C 160.5 453.4 139.4 453.5 127.6 450.2 C 102 442.9 82.4 424.3 73.1 398.3 C 57.4 355.1 73.3 304.4 113.5 269.4 C 133.7 251.7 158.6 238.5 191.6 227.9 C 206.5 223.1 209.1 220.9 209.8 212.4 C 210.4 205.6 208.4 201 203.6 198.1 C 200.2 196 194.7 194.9 191.5 195.7 Z" fill="#000000" stroke="none" style="stroke-width: 0.1;"/>
    <path d="M 371.4 196.9 C 367.2 199.5 364.2 203.5 363.4 207.7 C 362.6 212.1 365.5 222.3 368.8 226.2 C 375.9 234.6 388.3 233.7 393.8 224.4 C 395.8 221.1 396 219.4 395.7 213.4 C 395.3 205.1 393.1 200.7 388 197.3 C 383.8 194.4 375.8 194.2 371.4 196.9 Z" fill="#000000" stroke="none" style="stroke-width: 0.1;"/>
    <path d="M 559.8 218 C 521.7 230.9 491.8 259.4 481.2 293 C 474.1 315.5 475.2 339.4 484.4 358.5 C 503.5 398.7 548.8 409.2 597.4 384.8 C 616.1 375.4 620 371.6 620 362.4 C 620 353.4 613.2 346.6 604.1 346.6 C 600.4 346.6 597.5 347.7 589.8 351.8 C 564.4 365.6 548 368.7 532 362.7 C 524.5 360 515.4 350.6 512.2 342.5 C 508.3 332.7 507.3 322.7 509.2 312.3 C 512.1 295.7 518.4 283.7 530.5 271.5 C 540.2 261.7 551.6 254.4 566 249 C 571.8 246.8 578.1 244.2 580 243.2 C 590.7 237.9 590.7 222.7 580 217.2 C 574.2 214.3 570.3 214.4 559.8 218 Z" fill="#000000" stroke="none" style="stroke-width: 0.1;"/>
    <path d="M 389.3 262.9 C 387 264 384.4 266 383.5 267.4 C 379.3 273.7 379.3 273.5 393.6 345 C 401 382.1 407.7 414.8 408.5 417.7 C 412.5 431.5 430.5 434 438 421.8 C 440.6 417.6 440.6 411.9 438 399.9 C 436.9 394.7 435.3 387.1 434.4 383 C 433.6 378.9 430 362.4 426.5 346.5 C 423 330.5 418.3 308.5 416 297.5 C 409.6 266.8 409.4 266.5 401.6 262.9 C 396.5 260.6 394.5 260.6 389.3 262.9 Z" fill="#000000" stroke="none" style="stroke-width: 0.1;"/>
    <path d="M 927.2 422 C 920.2 426.3 918.8 432.1 921.5 445.3 C 925.5 465.4 933.6 511.2 945.5 582 C 947.5 593.9 950 605.3 951.1 607.5 C 956.3 618.5 972.5 619.2 979.1 608.8 C 981.6 604.7 981.3 596.1 978.1 579 C 976.9 572.7 974.8 561 973.4 553 C 972 545 968.4 525.4 965.4 509.5 C 948.9 422.3 949.9 426.4 944.2 422.5 C 939.5 419.3 932 419.1 927.2 422 Z" fill="#000000" stroke="none" style="stroke-width: 0.1;"/>
    <path d="M 811.8 538 C 794.4 541.1 776.8 551.7 765.9 565.6 C 739.7 599 732.4 634.2 744.9 666.6 C 761.4 709.3 810.1 728 855 708.9 C 868.4 703.3 887.5 689.8 890.5 684 C 892.7 679.8 892.4 671.2 890 667.6 C 887.3 663.5 881.3 660 876.7 660 C 872.1 660 868.6 661.7 860 668.3 C 837.3 685.7 811.8 688.7 792.4 676.2 C 786.1 672.1 779.7 665.5 780.3 663.7 C 780.5 663.1 784.2 661.2 788.6 659.5 C 818.4 647.8 846.8 628.9 858.4 613.2 C 867.3 601 870.6 590.7 869.7 577.4 C 868.7 560.2 857.5 546.7 839 540.4 C 831.4 537.9 818.8 536.7 811.8 538 Z M 830.5 570.4 C 853.5 580 826.5 611 778.7 630 C 771.3 632.9 770.4 632.2 772 624.4 C 776.2 603.9 791.2 580.5 804.2 573.9 C 814.1 568.8 823.7 567.6 830.5 570.4 Z" fill="#000000" stroke="none" style="stroke-width: 0.1;"/>
    <path d="M 218.1 578.2 C 214.1 580.9 211 586.3 211 590.5 C 211 592.2 212.4 600.5 214 609 C 215.7 617.5 217.9 629.4 219 635.5 C 220 641.5 221.4 649 222 652 C 223.6 660.4 228 685.5 229.5 695 C 230.9 703.9 236.2 734.4 240.5 759 C 242.5 770.3 250.5 810.6 253.7 825.7 C 254.6 829.9 260.6 835.6 265.5 837 C 269.4 838.1 270.6 838 274.5 836.6 C 279.8 834.5 284.7 829.3 285.5 824.6 C 285.9 822.7 285.5 817.9 284.6 813.8 C 283.8 809.8 281.9 801.1 280.5 794.5 C 277.6 780.9 273.7 761.1 268.9 734.2 L 265.5 715.9 L 268 713.9 C 274 709.2 287.9 700.1 293 697.8 C 317.3 686.4 331.3 691.8 343.4 717.4 C 351.1 733.5 356 751.3 360.9 780.9 C 362.6 791 364.7 800.8 365.6 802.6 C 368.9 809.6 378.5 812.9 386.1 809.7 C 390.7 807.8 395 802.2 395.7 797.3 C 396.2 793 393.3 773.7 389 754.2 C 378.3 705.4 362.8 678.4 338.5 666.4 C 329.6 662 321.8 660.6 310.5 661.3 C 296.8 662.2 285.1 666.3 266.8 676.7 C 263.1 678.8 259.9 680.2 259.6 679.9 C 259.2 679.6 255.2 659.1 250.5 634.4 C 245.8 609.7 241.3 587.6 240.4 585.3 C 238.3 579.6 234.1 576.7 227.1 576.2 C 222.5 575.9 220.9 576.2 218.1 578.2 Z" fill="#000000" stroke="none" style="stroke-width: 0.1;"/>
    <path d="M 645 581.8 C 634.7 585.2 627.5 589.8 619.3 598.3 C 615 602.8 610.7 607.6 609.8 609 C 608.9 610.4 608 611.3 607.7 611 C 607.3 610.7 606.4 607.8 605.6 604.6 C 602.8 594.1 598.3 590 589.5 590 C 580.9 590 575 595.7 575 604 C 575 607.9 589.5 683.6 599.5 731.8 C 603.2 749.7 605 753.3 611.3 756.4 C 616 758.6 620.5 758.4 625.6 756 C 630.3 753.7 632.9 750.4 634.1 745.1 C 634.9 741.6 634.1 737.6 620.9 675.4 L 617.7 660.3 L 623.3 648.9 C 636.6 621.6 647.4 610.8 660.2 612.3 C 666.7 613.1 676.8 618.3 687.2 626.2 C 697.9 634.4 702.5 635.6 709.7 631.9 C 719.6 626.7 721.8 615.2 714.3 606.9 C 706.6 598.4 690.1 588 676.9 583.4 C 666.9 579.9 652.9 579.2 645 581.8 Z" fill="#000000" stroke="none" style="stroke-width: 0.1;"/>
    <path d="M 477.5 611 C 473.7 612 468.7 613.6 466.6 614.5 C 441.2 625.3 416.6 660.6 411.9 692.9 C 410.4 703.3 411.3 721.4 413.5 729 C 421.2 754.4 437.8 773.2 460.6 782.4 C 475.6 788.5 496.4 789.5 513.5 785.1 C 528.5 781.2 552.4 767.4 560.2 758.1 C 569.6 747 562.5 732 547.9 732 C 543.2 732 541.7 732.5 538.4 735 C 519.7 749.3 504.5 756 490.5 756 C 484.3 756 474.3 753.3 467.9 749.8 C 462.4 747 452 737.3 452 735.2 C 452 734.6 456.8 732.3 462.8 729.9 C 512.1 710.1 542 681.1 542 653.1 C 542 640.4 537.9 631 528.7 622.3 C 516.2 610.5 496 606.1 477.5 611 Z M 499.2 641.1 C 506.1 642.6 511 647.2 511 652.3 C 511 664.3 491.4 682.4 465 694.8 C 446.4 703.5 444.8 704.2 443.8 703.2 C 441.5 700.9 447.1 681.9 453.2 671.1 C 462.5 654.6 473.2 644.8 485.1 641.6 C 491.9 639.8 492.7 639.7 499.2 641.1 Z" fill="#000000" stroke="none" style="stroke-width: 0.1;"/>
    <path d="M 968.2 642 C 961.4 646.1 959.8 652.2 962 665.5 C 963.6 675.4 969.5 681 978.2 681 C 983.9 681 987.8 679.3 991.3 675 C 995 670.7 995.6 666.1 993.5 658.7 C 989.7 644.8 985.3 640 976.4 640 C 973.3 640 970.3 640.7 968.2 642 Z" fill="#000000" stroke="none" style="stroke-width: 0.1;"/>
  </g>
</svg>