<?xml version="1.0" encoding="utf-8"?>
<svg xmlns="http://www.w3.org/2000/svg" viewBox="233.118 76.9421 237.5428 145.4009" width="237.543px" height="145.401px">
  <defs>
    <linearGradient id="linearGradient1538" y2="94.261" spreadMethod="reflect" gradientUnits="userSpaceOnUse" y1="311.08" gradientTransform="matrix(1.2782, 0, 0, 0.78237, -15.931551, 46.67314)" x2="241.73" x1="337.72">
      <stop id="stop1536" style="stop-color:#8a8a8a" offset="0"/>
      <stop id="stop1537" style="stop-color:#cecece" offset="1"/>
    </linearGradient>
  </defs>
  <path id="path1534" style="fill: url(&quot;#linearGradient1538&quot;); stroke-width: 1;" d="M 233.118 222.343 L 470.638 220.903 C 471.798 191.983 428.358 199.903 418.818 183.473 C 411.078 170.153 420.358 146.024 418.818 131.646 C 417.358 118.104 412.088 104.46 400.818 94.185 C 395.188 89.048 388.048 84.753 379.148 81.735 C 370.238 78.716 359.558 76.974 346.838 76.943 C 334.118 76.911 323.298 77.71 315.068 81.556 C 259.878 107.379 308.398 140.686 332.748 118.046 C 354.188 98.109 380.678 136.941 358.908 154.723 C 336.928 172.673 312.058 135.616 332.088 119.182 C 353.068 101.959 342.768 57.022 294.518 93.778 C 282.948 102.595 279.478 117.207 277.738 130.207 C 275.778 144.897 285.248 172.283 277.738 187.793 C 270.378 202.993 234.458 193.663 233.118 222.343 Z" transform="matrix(0.9999999999999999, 0, 0, 0.9999999999999999, -1.4210854715202004e-14, 0)"/>
</svg>