<?xml version="1.0" encoding="utf-8"?>
<svg version="1.1" id="Layer_1" xmlns="http://www.w3.org/2000/svg" x="0px" y="0px" viewBox="0 0 214.267 195.957" style="enable-background:new 0 0 214.267 195.957;">
  <path style="paint-order: fill; stroke-width: 0px; fill: rgb(255, 255, 255);" d="M 10.858 50.949 C 13.485 46.585 18.51 43.765 23.759 42.776 C 23.687 41.254 23.832 39.738 24.232 38.272 C 24.246 36.474 25.296 34.792 26.684 33.477 C 28.921 30.679 32.169 28.673 35.599 28.172 C 35.477 27.431 35.385 26.686 35.327 25.941 C 34.729 24.34 34.546 22.584 34.885 20.904 C 35.408 18.314 37.052 16.599 39.207 15.506 C 39.955 15.056 40.786 14.72 41.625 14.563 C 44.416 13.67 47.311 13.071 50.213 12.698 C 51.632 12.515 53.781 12.265 55.985 12.285 C 57.755 11.628 59.76 11.681 61.183 12.983 C 62.616 10.549 64.937 8.102 67.79 7.474 C 70.616 6.853 73.705 7.847 75.954 9.569 C 76.262 9.805 76.559 10.054 76.845 10.316 C 77.293 8.971 78.018 7.722 79.036 6.656 C 82.277 3.263 87.826 2.052 92.232 3.615 C 94.218 4.32 95.982 5.628 96.83 7.602 C 97.194 8.45 97.346 9.336 97.344 10.228 C 97.562 10.431 97.763 10.644 97.945 10.865 C 102.426 7.305 107.669 4.621 113.416 4.121 C 116.565 3.847 120.519 4.051 122.997 6.283 C 124.569 7.699 124.956 9.522 124.543 11.308 C 127.777 9.878 131.485 9.302 134.318 11.501 C 136.015 10.483 137.915 9.791 139.808 9.243 C 142.22 8.545 144.832 8.02 147.355 8.093 C 150.171 8.174 153.599 9.402 155.272 11.772 C 156.308 13.238 156.563 15.17 156.037 16.874 C 155.733 17.859 155.192 18.716 154.63 19.562 C 155 19.891 155.319 20.32 155.571 20.863 C 155.707 21.156 155.824 21.455 155.926 21.758 C 157.712 21.679 159.585 21.084 161.162 20.749 C 163.731 20.203 166.543 19.794 169.026 20.898 C 170.839 21.704 172.877 23.44 172.648 25.633 C 172.604 26.058 172.489 26.46 172.322 26.841 C 173.261 27.259 174.164 27.748 175.014 28.317 C 176.62 29.391 178.391 31.15 178.802 33.14 C 178.81 33.144 178.818 33.147 178.826 33.151 C 180.646 33.978 182.3 35.418 183.294 37.151 C 183.76 36.178 184.276 35.235 184.829 34.343 C 186.313 31.951 188.71 29.015 191.847 29.193 C 195.052 29.375 197.04 32.883 196.858 35.808 C 196.632 39.449 194.245 42.767 192.031 45.5 C 191.043 46.72 189.997 47.924 188.88 49.054 C 193.25 48.754 198.613 49.983 201.077 53.919 C 202.873 56.788 202.736 60.166 200.167 62.489 C 197.585 64.823 193.999 65.795 190.726 66.712 C 189.14 67.156 187.535 67.553 185.969 68.067 C 185.752 68.138 185.537 68.219 185.322 68.297 C 187.291 68.604 189.339 68.458 191.327 68.367 C 193.529 68.265 195.7 68.363 197.896 68.515 C 201.403 68.757 205.441 69.056 208.462 71.044 C 210.921 72.662 212.032 75.906 209.983 78.299 C 208.126 80.468 204.93 81.239 202.256 81.791 C 201.565 81.934 200.863 82.046 200.158 82.149 C 201.62 82.69 203.552 83.378 204.431 84.769 C 206.252 87.65 201.58 89.916 199.398 90.389 C 196.306 91.061 192.99 91.033 189.848 90.866 C 187.753 90.755 185.599 90.564 183.503 90.158 C 184.19 90.598 184.888 91.016 185.561 91.427 C 188.008 92.919 190.425 94.399 192.279 96.625 C 194.017 98.711 195.612 100.981 196.848 103.403 C 197.847 105.36 199.049 107.997 198.047 110.184 C 197.705 110.931 196.551 111.889 195.698 111.237 C 191.08 107.705 185.776 105.47 180.792 102.554 C 178.755 101.362 176.731 100.133 174.599 99.112 C 174.286 98.962 173.957 98.805 173.615 98.651 C 173.492 99.165 173.345 99.724 173.168 100.315 C 175.439 104.602 176.62 109.76 174.067 113.797 C 173.647 114.461 172.729 114.895 171.995 114.491 C 170.141 113.469 168.442 112.248 166.827 110.918 C 166.531 111.181 166.224 111.437 165.905 111.683 L 148.368 180.881 C 148.368 180.881 146.274 190.299 135.111 192.183 C 135.045 192.194 134.978 192.205 134.91 192.215 C 127.159 193.475 113.457 192.982 105.684 192.555 C 97.844 192.986 83.971 193.484 76.258 192.182 C 65.094 190.298 63.001 180.88 63.001 180.88 L 49.233 126.555 L 45.833 113.138 C 44.557 112.854 43.625 112.559 43.088 112.256 C 41.188 111.182 39.87 109.582 38.962 107.788 C 36.481 108.943 33.916 109.798 31.343 110.717 C 29.243 111.467 26.936 112.414 24.662 112.29 C 21.457 112.115 20.469 109.447 21.387 106.704 C 22.454 103.516 24.755 100.709 26.865 98.154 C 27.424 97.477 28.003 96.819 28.587 96.164 C 26.4 97.106 24.118 97.843 21.863 98.319 C 19.126 98.897 14.221 99.304 13.515 95.583 C 12.944 92.573 15.675 89.514 17.576 87.548 C 18.819 86.263 20.171 85.075 21.577 83.951 C 19.974 83.824 18.372 83.599 16.821 83.238 C 12.223 82.169 7.448 79.649 4.946 75.496 C 2.962 72.203 2.438 67.645 4.672 64.341 C 5.898 62.529 7.75 61.281 9.805 60.643 C 8.799 57.427 9.075 53.915 10.858 50.951 Z"/>
</svg>