<?xml version="1.0" encoding="utf-8"?>
<svg version="1.1" id="Layer_1" xmlns="http://www.w3.org/2000/svg" x="0px" y="0px" viewBox="0 0 214.267 195.957" style="enable-background:new 0 0 214.267 195.957;">
  <path style="fill: rgb(172, 74, 38); stroke-width: 0px;" d="M 44.86 109.302 L 44.86 109.301 L 44.861 109.301 L 44.861 109.301 L 52.502 109.56 C 52.502 109.56 52.502 109.56 52.502 109.56 L 105.683 111.364 L 147.282 109.953 L 147.839 109.934 L 166.506 109.301 L 166.506 109.302 L 166.507 109.302 L 148.367 180.88 C 148.367 180.88 146.273 190.298 135.11 192.182 C 135.044 192.193 134.977 192.204 134.909 192.214 C 127.158 193.474 113.456 192.981 105.683 192.554 C 97.843 192.985 83.97 193.483 76.257 192.181 C 65.093 190.297 63 180.879 63 180.879 L 49.232 126.554 Z"/>
  <path style="fill: rgb(243, 105, 59); stroke-width: 0px;" d="M69.351,95.402H37.177c0,0-1.641,12.585,5.91,16.853c7.551,4.268,93.177,6.791,115.562,2.626 c14.117-2.626,15.54-19.479,15.54-19.479H69.351z"/>
  <ellipse style="fill: rgb(172, 74, 38); stroke-width: 0px;" cx="105.683" cy="95.402" rx="68.506" ry="8.098"/>
  <ellipse style="fill: rgb(108, 42, 9); stroke-width: 0px;" cx="105.683" cy="95.479" rx="55.193" ry="4.874"/>
  <path style="fill:#2E4A17;" d="M209.984,78.298c2.049-2.393,0.938-5.637-1.521-7.255c-3.021-1.988-7.059-2.287-10.566-2.529 c-2.196-0.152-4.367-0.25-6.569-0.148c-1.988,0.091-4.036,0.237-6.005-0.07c0.215-0.078,0.43-0.159,0.647-0.23 c1.566-0.514,3.171-0.911,4.757-1.355c3.273-0.917,6.859-1.889,9.441-4.223c2.569-2.323,2.706-5.701,0.91-8.57 c-2.464-3.936-7.827-5.165-12.197-4.865c1.117-1.13,2.163-2.334,3.151-3.554c2.214-2.733,4.601-6.051,4.827-9.692 c0.182-2.925-1.806-6.433-5.011-6.615c-3.137-0.178-5.534,2.758-7.018,5.15c-0.553,0.892-1.069,1.835-1.535,2.808 c-0.994-1.733-2.648-3.173-4.468-4c-4.22-1.919-8.529-0.092-12.867-0.172c0.913-1.032,2.358-1.877,3.28-2.646 c1.437-1.2,3.2-2.702,3.409-4.7c0.229-2.193-1.809-3.929-3.622-4.735c-2.483-1.104-5.295-0.695-7.864-0.149 c-2.334,0.496-5.32,1.561-7.706,0.68c0.825-1.535,2.057-2.855,2.581-4.555c0.526-1.704,0.271-3.636-0.765-5.102 c-1.673-2.37-5.101-3.598-7.917-3.679c-2.523-0.073-5.135,0.452-7.547,1.15c-1.893,0.548-3.793,1.24-5.49,2.258 c-2.833-2.199-6.541-1.623-9.775-0.193c0.413-1.786,0.026-3.609-1.546-5.025c-2.478-2.232-6.432-2.436-9.581-2.162 c-6.045,0.526-11.532,3.468-16.162,7.305c0.185-1.288,0.103-2.596-0.424-3.824c-0.848-1.974-2.612-3.282-4.598-3.987 c-4.406-1.563-9.955-0.352-13.196,3.041c-1.539,1.612-2.408,3.64-2.664,5.789c-1.985-0.771-4.393-0.527-6.411,0.02 c-1.992,0.54-4.268,1.481-5.928,2.95c-2.069-4.064-10.251-3.177-13.82-2.717c-3.18,0.409-6.352,1.089-9.388,2.13 c-2.927,1.004-5.293,2.869-5.94,6.076c-0.499,2.473,0.132,5.109,1.554,7.176c-3.837,0.28-7.532,2.487-9.95,5.646 c-3.077,4.02-3.347,8.961-1.911,13.559c-0.741-0.209-1.525-0.36-2.39-0.397c-2.639-0.114-4.955,1.363-5.591,3.987 c-0.634,2.617,0.047,5.498,0.795,8.018c0.252,0.847,0.54,1.683,0.844,2.514c-1.483-0.754-3.122-1.207-4.85-1.256 c-3.359-0.095-6.801,1.359-8.715,4.189c-2.234,3.304-1.71,7.862,0.274,11.155c2.502,4.153,7.277,6.673,11.875,7.742 c1.551,0.361,3.153,0.586,4.756,0.713c-1.406,1.124-2.758,2.312-4.001,3.597c-1.901,1.966-4.632,5.025-4.061,8.035 c0.706,3.721,5.611,3.314,8.348,2.736c2.255-0.476,4.537-1.213,6.724-2.155c-0.584,0.655-1.163,1.313-1.722,1.99 c-2.11,2.555-4.411,5.362-5.478,8.55c-0.918,2.743,0.07,5.411,3.275,5.586c2.274,0.124,4.581-0.823,6.681-1.573 c2.63-0.939,5.252-1.811,7.784-3.006c5.492-2.592,10.173-6.285,15.074-9.745c-0.838,2.196-0.997,4.559,1.7,4.503 c1.615-0.033,3.15-1.186,4.347-2.157c0.247-0.201,0.474-0.422,0.713-0.632c-0.274,1.54-0.208,3.115,0.718,4.352 c1.34,1.789,3.893,2.02,5.95,1.921c6.306-0.304,12.562-2.916,18.343-5.254c1.585-0.641,3.146-1.365,4.724-2.039 c-1.716,3.431-3.068,8.766,1.909,7.983c4.121-0.648,7.599-3.683,11.052-5.822c0.052,4.281,5.763,6.205,9.459,7.07 c2.618,0.612,5.304,0.965,7.98,1.202c2.854,0.253,5.85,0.692,8.693,0.239c2.146-0.342,4.209-1.459,5.278-3.413 c0.443-0.81,0.641-1.661,0.734-2.531c1.538,1.972,3.501,3.646,5.93,3.711c1.676,0.045,3.466-0.713,4.268-2.235 c1.231,3.828,1.927,7.893,6.284,9.501c0.659,0.243,1.407-0.294,1.761-0.792c1.505-2.113,1.599-4.744,1.503-7.245 c-0.067-1.736-0.377-3.818,0.032-5.621c5.572,4.48,10.086,10.296,16.416,13.784c0.734,0.404,1.652-0.03,2.072-0.694 c3.052-4.825,0.768-11.253-2.334-15.879c1.018,0.316,2.007,0.783,2.867,1.195c2.132,1.021,4.156,2.25,6.193,3.442 c4.984,2.916,10.288,5.151,14.906,8.683c0.853,0.652,2.007-0.306,2.349-1.053c1.002-2.187-0.2-4.824-1.199-6.781 c-1.236-2.422-2.831-4.692-4.569-6.778c-1.854-2.226-4.271-3.706-6.718-5.198c-0.673-0.411-1.371-0.829-2.058-1.269 c2.096,0.406,4.25,0.597,6.345,0.708c3.142,0.167,6.458,0.195,9.55-0.477c2.182-0.473,6.854-2.739,5.033-5.62 c-0.879-1.391-2.811-2.079-4.273-2.62c0.705-0.103,1.407-0.215,2.098-0.358C204.931,81.238,208.127,80.467,209.984,78.298z"/>
  <path style="fill: rgb(100, 136, 51); stroke-width: 0px;" d="M118.077,34.503c1.25-0.657,2.587-1.167,3.727-2.022c1.598-1.199,2.823-2.995,3.321-4.934 c0.918-3.576-0.425-7.681-3.097-10.197c-4.769-4.488-12.609-2.326-17.818,0.101c-1.863,0.868-3.67,1.905-5.37,3.089 c1.132-3.663,1.278-7.88-1.639-10.442c-2.19-1.923-5.589-1.951-8.277-1.318c-3.432,0.807-6.318,3.051-8.373,5.863 c-0.116,0.159-0.217,0.329-0.328,0.492c-0.909-2.165-2.379-4.121-4.268-5.566c-2.249-1.722-5.338-2.716-8.164-2.095 c-2.853,0.628-5.174,3.075-6.607,5.509c-1.607-1.47-3.955-1.348-5.869-0.41c-2.305,1.129-4.298,2.964-5.789,5.036 c-0.681,0.947-1.31,2.075-1.642,3.254c-0.328-1.76-0.866-3.517-1.96-4.867c-1.752-2.162-4.634-1.774-6.793-0.443 c-2.885,1.779-3.856,5.196-3.876,8.409c-0.014,2.268,0.317,4.567,0.894,6.793c-2.111-0.637-4.575-0.272-6.648,0.753 c-3.08,1.524-6.529,5.131-4.811,8.823c0.391,0.841,0.986,1.523,1.681,2.105c-6.133,0.439-12.452,3.428-15.513,8.513 c-2.208,3.67-2.105,8.182-0.117,11.931c1.906,3.595,5.565,5.305,9.453,5.837c3.377,0.462,6.796,0.175,10.178-0.264 c-1.24,1.097-2.396,2.293-3.424,3.549c-1.773,2.167-3.718,4.934-3.648,7.868c0.056,2.368,1.628,4.421,4.069,4.553 c2.493,0.135,4.958-1.254,7.017-2.496c0.844-0.509,1.649-1.078,2.45-1.655c-0.652,1.478-1.007,3.062-0.816,4.699 c0.327,2.809,2.453,4.757,5.066,5.561c7.587,2.335,15.286-2.107,20.575-7.19c2.335-2.244,4.42-4.713,6.461-7.219 c0.062,1.506,0.429,2.984,1.577,3.943c2.202,1.839,5.934,0.63,8.132-0.603c4.713-2.645,5.374-7.815,6.478-12.603 c1.742,1.062,3.636,1.883,5.691,2.047c2.722,0.217,5.546-1.053,7.271-3.159c0.199-0.242,0.379-0.493,0.541-0.751 c0.829,3.23,2.299,6.017,5.636,7.312c3.407,1.322,7.372,0.411,9.654-2.465c2.28-2.872,2.877-6.863,2.978-10.425 c0.092-3.251-0.191-6.568-0.816-9.783c1.917,0.485,3.786,1.227,5.809,1.15c3.075-0.118,5.327-2.295,5.904-5.29 C128.029,40.063,122.271,36.896,118.077,34.503z"/>
  <path style="fill: rgb(100, 136, 51); stroke-width: 0px;" d="M179.381,46.448c-2.368-2.728-5.353-4.794-8.68-6.005c0.651-0.176,1.299-0.367,1.941-0.585 c2.326-0.79,5.241-2.105,6.059-4.653c0.898-2.798-1.541-5.454-3.686-6.889c-2.923-1.956-6.482-2.971-9.942-3.402 c-2.718-0.338-5.778-0.263-8.412,0.758c-0.179-1.649-0.39-3.298-1.089-4.81c-1.208-2.61-3.991-2.574-6.338-1.578 c-5.375,2.281-8.389,8.856-8.015,14.482c0.083,1.245,0.355,2.449,0.818,3.554c-3.094,0.408-6.48,2.321-8.167,3.991 c-2.247,2.225-4.99,5.454-4.38,8.879c0.564,3.164,3.854,4.297,6.391,5.699c-1.302,1.339-3.383,2.056-4.969,2.854 c-2.257,1.136-4.119,2.438-5.705,4.427c-1.637,2.054-3.202,4.601-3.226,7.317c-0.021,2.371,1.311,4.421,3.181,5.798 c6.584,4.846,15.247-2.615,19.71-7.082c1.749-1.751,3.417-3.629,4.956-5.598c0.37,4.762,4.103,9.01,9.448,8.383 c2.836-0.332,5.562-2.226,7.515-4.218c0.107-0.109,0.213-0.222,0.318-0.336c0.533,1.931,1.448,3.732,2.791,5.054 c3.281,3.231,7.951,1.91,10.705-1.267C186.812,64.062,185.305,53.274,179.381,46.448z"/>
  <path style="fill: rgb(197, 201, 46); stroke-width: 0px;" d="M71.851,37.481c-0.966-2.555-3.268-4.097-5.725-5.049c-2.147-0.832-4.448-1.251-6.751-1.492 c3.087-2.748,7.201-6.795,3.023-9.774c-5.089-3.627-11.117,1.006-14.616,4.713c-0.045,0.048-0.089,0.098-0.135,0.147 c-0.265-2.072-1.358-3.646-3.733-3.695c-3.412-0.07-5.703,2.96-6.984,5.755c-1.411,3.078-2.094,6.553-2.39,9.912 c-0.167,1.903-0.173,3.934,0.164,5.872c-2.23-0.74-4.757-0.789-7.041-0.212c-2.371,0.6-4.858,1.901-6.185,4.037 c-1.35,2.174-0.76,4.64,1.02,6.355c0.311,0.299,0.655,0.562,1.013,0.807c-0.949,1.447-1.029,3.312-0.153,4.872 c1.542,2.745,5.349,3.853,8.271,4.072c3.57,0.267,7.134-0.857,10.258-2.513c1.768-0.937,3.434-2.04,5.019-3.25 c-0.402,1.097-0.708,2.221-0.926,3.298c-0.457,2.261-0.945,6.142,1.393,7.618c2.705,1.707,6.647-1.282,8.314-3.259 c2.577-3.057,4.23-7.018,4.95-10.928c0.344-1.869,0.401-3.923-0.093-5.726c3.597,0.217,7.484-1.236,9.701-3.734 C72.102,43.215,72.86,40.151,71.851,37.481z"/>
  <path style="fill: rgb(197, 201, 46); stroke-width: 0px;" d="M100.351,47.748c-1.326-0.943-2.786-1.7-4.284-2.36c3.932-2.063,8.49-5.896,4.149-9.092 c-2.409-1.773-5.711-0.514-7.939,0.918c-1.151,0.739-2.352,1.702-3.321,2.832c-0.094-0.401-0.182-0.802-0.294-1.199 c-0.637-2.257-1.661-5.13-4.005-6.127c-2.758-1.173-5.755,1.143-7.443,3.124c-2.027,2.379-3.244,5.686-2.501,8.808 c0.644,2.705,2.686,4.289,5.134,4.816c-1.514,1.151-2.968,2.386-4.301,3.729c-1.914,1.928-4.396,4.733-4.022,7.682 c0.331,2.611,2.924,3.997,5.35,3.549c2.804-0.518,5.237-2.616,7.274-4.479c1.631-1.491,3.073-3.17,4.61-4.751 c2.308,3.495,7.565,5.341,11.356,3.523c2.111-1.012,3.946-3.305,3.838-5.737C103.853,50.722,102.087,48.983,100.351,47.748z"/>
  <path style="fill: rgb(197, 201, 46); paint-order: fill; stroke-width: 0px;" d="M97.297,82.184c-0.054-0.92-0.128-1.838-0.288-2.751c-0.298-1.704-0.977-3.939-2.911-4.345 c-2.362-0.496-4.886,1.581-5.782,3.615c-0.927,2.103-0.711,4.675,0.191,6.747c0.144,0.33,0.309,0.642,0.49,0.94 c-0.238,0.076-0.47,0.153-0.686,0.229c-2.689,0.943-5.75,2.597-7.307,5.085c-1.375,2.198-0.415,4.966,2.185,5.603 c2.769,0.679,5.919-0.696,8.343-1.908c2.043-1.021,4.143-2.211,5.993-3.645c0.601,1.855,1.723,3.847,3.504,4.382 c3.111,0.935,4.84-3.161,5.197-5.52C107.045,85.188,101.571,83.173,97.297,82.184z"/>
  <g>
    <path style="fill: rgb(197, 201, 46); stroke-width: 0px;" d="M139.925,85.96c-1.679-0.891-3.657-0.124-5.177,0.739c-0.369,0.209-0.726,0.436-1.075,0.673 c0.057-0.241,0.115-0.483,0.166-0.723c0.308-1.481,0.6-3.254,0.034-4.711c-0.674-1.734-2.411-1.972-4.025-1.418 c-2.003,0.688-3.006,2.674-3.011,4.701c-0.003,0.95,0.189,2.033,0.613,2.987c-0.151,0.05-0.305,0.09-0.455,0.144 c-1.217,0.433-2.547,1.07-3.228,2.227c-0.815,1.384-0.085,2.805,1.009,3.775c1.204,1.067,2.952,1.221,4.485,1.078 c1.79-0.167,3.51-0.697,5.195-1.304c1.211-0.436,2.443-0.87,3.605-1.427c1.355-0.65,2.853-1.541,3.458-2.993 C142.121,88.265,141.246,86.662,139.925,85.96z"/>
    <path style="fill: rgb(197, 201, 46); stroke-width: 0px;" d="M130.03,82.543C130.007,82.55,130.144,82.513,130.03,82.543L130.03,82.543z"/>
  </g>
  <path style="fill: rgb(197, 201, 46); stroke-width: 0px;" d="M136.393,12.875c-0.557-0.776-1.376-1.379-2.356-1.419c-1.027-0.042-2,0.531-2.684,1.258 c-1.389,1.474-1.992,3.69-2.077,5.668c-0.043,1.005,0.068,2.029,0.379,2.952c-0.023,0.288-0.043,0.576-0.029,0.875 c0.073,1.464,0.466,2.784,1.089,4.104c0.32,0.68,1.412,0.29,1.834,0.033c0.975-0.593,1.711-1.603,2.279-2.571 c0.688-1.173,1.225-2.451,1.62-3.751c0.388-1.277,0.68-2.626,0.706-3.965C137.174,14.972,137.045,13.784,136.393,12.875z"/>
  <path style="fill: rgb(197, 201, 46); stroke-width: 0px;" d="M161.502,46.807c-1.61-0.16-3.263-0.306-4.896-0.26c0.867-1.377,1.635-2.79,0.939-4.476 c-0.276-0.67-0.929-0.699-1.548-0.474c-1.556,0.566-2.66,1.735-3.314,3.147c-0.817-0.546-1.736-0.959-2.668-1.217 c-2.607-0.719-5.818,0.134-5.999,3.312c-0.142,2.49,2.224,3.977,4.227,4.831c1.438,0.613,3.054,1.072,4.664,1.285 c-2.449,3.126-5.45,8.738-1.055,9.781c2.519,0.598,4.703-1.945,6.02-3.711c1.031-1.381,1.897-2.876,2.693-4.405 c1.811,0.892,3.823,1.53,5.788,1.679c2.543,0.192,5.458-1.19,5.583-4.059C172.13,47.774,164.543,47.11,161.502,46.807z"/>
  <path style="fill: rgb(197, 201, 46); stroke-width: 0px;" d="M163.803,89.595c-0.343-0.432-0.75-0.833-1.186-1.17c-0.208-0.161-0.428-0.308-0.658-0.436 c-0.175-0.096-0.354-0.184-0.537-0.263c-0.012-0.007-0.017-0.009-0.028-0.015c0.207-0.58,0.397-1.161,0.566-1.734 c0.564-1.914,1.358-4.742,0.211-6.602c-1.182-1.918-3.652-1.193-4.735,0.4c-1.066,1.567-1.314,3.714-1.306,5.598 c-1.274-0.923-2.795-1.266-4.522-0.396c-1.514,0.764-3.441,2.581-2.604,4.454c0.617,1.38,2.316,2.06,3.644,2.531 c1.011,0.358,2.087,0.641,3.17,0.826c-0.914,1.671-1.3,3.532-0.944,5.526c0.084,0.474,0.592,0.702,1.02,0.715 c2.952,0.092,4.448-2.647,5.366-5.244c0.357,0.187,0.707,0.387,1.067,0.568c0.961,0.484,2.687-0.276,2.644-1.501 C164.93,91.656,164.554,90.537,163.803,89.595z"/>
  <path style="fill: rgb(140, 159, 33); stroke-width: 0px;" d="M84.36,21.272c-0.222-0.584-0.536-1.225-1.096-1.559c-0.247-0.147-0.549-0.192-0.847-0.161 c-0.049-0.032-0.089-0.079-0.141-0.106c-0.699-0.363-1.492,0.025-1.905,0.638c-0.492,0.729-0.731,1.705-0.914,2.552 c-0.229,1.067-0.464,2.346-0.057,3.401c0.229,0.594,0.614,1.032,1.226,1.245c0.659,0.23,1.491,0.119,2.099-0.201 c1.394-0.733,2.046-2.23,1.996-3.762C84.699,22.629,84.607,21.922,84.36,21.272z"/>
  <path style="fill: rgb(140, 159, 33); stroke-width: 0px;" d="M90.254,25.749c-0.041-0.126-0.12-0.226-0.238-0.299c-0.118-0.076-0.248-0.114-0.384-0.133 c-0.002-0.008,0.003-0.017,0.001-0.025c-0.024-0.053-0.049-0.107-0.073-0.16c-0.052-0.079-0.121-0.132-0.207-0.161 c-0.054-0.035-0.113-0.052-0.176-0.052c-0.1-0.022-0.201-0.02-0.301,0.007c-0.232,0.056-0.43,0.174-0.601,0.341 c-0.117,0.115-0.229,0.233-0.343,0.351c0.064-0.055,0.127-0.109,0.191-0.164c-0.161,0.124-0.322,0.255-0.459,0.405 c-0.097,0.107-0.185,0.224-0.27,0.341c-0.005,0.007-0.009,0.015-0.015,0.022c-0.122,0.139-0.222,0.296-0.266,0.462 c-0.052,0.126-0.067,0.255-0.043,0.386c-0.003,0.127,0.034,0.242,0.113,0.347c0.058,0.057,0.116,0.115,0.174,0.172 c0.15,0.095,0.314,0.143,0.491,0.144c0.142,0.02,0.273,0.007,0.416-0.007c0.088-0.009,0.175-0.014,0.261-0.033 c0.141-0.03,0.288-0.086,0.418-0.129c0.078-0.026,0.155-0.056,0.229-0.092c0.143-0.069,0.281-0.153,0.414-0.24 c0.019-0.013,0.038-0.025,0.057-0.037c0.058-0.038,0.089-0.073,0.156-0.129c0.095-0.066,0.173-0.148,0.235-0.245 c0.043-0.043,0.079-0.09,0.108-0.142c0.108-0.168,0.17-0.352,0.189-0.551C90.348,25.991,90.323,25.864,90.254,25.749z"/>
  <g>
    <path style="fill: rgb(140, 159, 33); stroke-width: 0px;" d="M110.611,24.372c-0.058,0.005-0.115,0.012-0.172,0.018 C110.501,24.384,110.711,24.363,110.611,24.372z"/>
    <path style="fill: rgb(140, 159, 33); stroke-width: 0px;" d="M114.043,26.217c-0.007-0.037-0.016-0.071-0.029-0.106c-0.047-0.133-0.107-0.277-0.188-0.397 c-0.02-0.031-0.045-0.057-0.07-0.083c-0.099-0.106-0.204-0.221-0.325-0.306c-0.16-0.113-0.352-0.19-0.534-0.258 c-0.09-0.034-0.183-0.057-0.278-0.075c-0.234-0.043-0.466-0.064-0.698-0.076c-0.077-0.087-0.16-0.17-0.249-0.245 c0.045,0.044,0.091,0.089,0.136,0.134c-0.25-0.313-0.753-0.42-1.133-0.435c0.076,0.011,0.152,0.022,0.229,0.033 c-0.17-0.034-0.316-0.029-0.486-0.011c-0.043,0.004-0.087,0.007-0.131,0.013c-0.056,0.008-0.112,0.019-0.167,0.033 c-0.201,0.051-0.403,0.117-0.592,0.202c-0.326,0.147-0.642,0.338-0.92,0.562c-0.423,0.339-0.785,0.731-1.123,1.146 c-0.073,0.065-0.154,0.115-0.223,0.189c-0.296,0.317-0.549,0.7-0.674,1.121c-0.069,0.129-0.132,0.26-0.191,0.392 c-0.301,0.622-0.574,1.278-0.604,1.978c-0.017,0.41,0.045,0.775,0.257,1.128c0.092,0.154,0.237,0.288,0.378,0.395 c0.148,0.112,0.332,0.192,0.511,0.241c0.442,0.118,0.93,0.095,1.369-0.02c0.488-0.128,0.947-0.313,1.387-0.558 c1.152-0.641,2.261-1.418,3.19-2.36C113.557,28.17,114.23,27.23,114.043,26.217z"/>
    <path style="fill: rgb(140, 159, 33); stroke-width: 0px;" d="M106.337,28.174c0.017-0.042,0.042-0.082,0.06-0.124c0.026-0.054,0.051-0.109,0.077-0.162 C106.428,27.983,106.382,28.079,106.337,28.174z"/>
    <path style="fill: rgb(140, 159, 33); stroke-width: 0px;" d="M110.414,24.392c0.002,0,0.002,0,0.004,0c0.007-0.001,0.014-0.001,0.021-0.002 C110.426,24.391,110.41,24.393,110.414,24.392z"/>
  </g>
  <g>
    <path style="fill: rgb(140, 159, 33); stroke-width: 0px;" d="M123.328,59.061c0.07-0.119,0.108-0.248,0.115-0.387c-0.007-0.082-0.014-0.164-0.021-0.246 c-0.026-0.127-0.088-0.228-0.187-0.305c-0.05-0.068-0.117-0.114-0.198-0.137c-0.114-0.066-0.239-0.096-0.373-0.09 c-0.313,0.004-0.602,0.11-0.862,0.284c-0.132,0.088-0.252,0.201-0.369,0.307c-0.041,0.037-0.079,0.078-0.114,0.121 c-0.105,0.126-0.21,0.256-0.3,0.393c-0.017,0.026-0.033,0.052-0.049,0.079c-0.009,0.015-0.017,0.03-0.025,0.045 c-0.051,0.095-0.113,0.21-0.146,0.313c-0.067,0.208-0.11,0.427-0.139,0.643c-0.018,0.135-0.023,0.271-0.015,0.407 c-0.018,0.142,0.008,0.272,0.078,0.39c0.042,0.13,0.123,0.232,0.244,0.306c0.118,0.083,0.247,0.128,0.388,0.135 c0.15,0.034,0.301,0.03,0.454-0.01c0.337-0.082,0.673-0.251,0.906-0.514c0.069-0.088,0.137-0.177,0.206-0.265 c0.111-0.173,0.175-0.361,0.193-0.565c-0.003-0.143,0.015-0.285,0.038-0.426c0.027-0.086,0.042-0.174,0.06-0.262 c0.002-0.004,0.004-0.007,0.007-0.011c-0.008,0.036-0.015,0.073-0.023,0.109c0.012-0.055,0.035-0.106,0.053-0.158 c0.003-0.005,0.006-0.011,0.01-0.016l-0.008,0.01c0.007-0.022,0.013-0.045,0.022-0.066 C123.287,59.116,123.315,59.093,123.328,59.061z"/>
    <path style="fill: rgb(140, 159, 33); stroke-width: 0px;" d="M123.225,59.214c-0.001,0.007-0.003,0.013-0.005,0.02c0.002-0.004,0.004-0.008,0.006-0.012 c0.001-0.005,0.002-0.009,0.003-0.014C123.228,59.21,123.226,59.212,123.225,59.214z"/>
  </g>
  <g>
    <path style="fill: rgb(140, 159, 33); stroke-width: 0px;" d="M119.416,88.815c-0.149-0.712-0.611-1.315-1.187-1.741c-0.207-0.153-0.481-0.209-0.756-0.201 c-0.083-0.044-0.164-0.09-0.257-0.124c-0.042-0.016-0.081-0.027-0.133-0.036c0.017,0.003,0.034,0.005,0.052,0.008 c-0.017-0.003-0.035-0.005-0.053-0.008c-0.022-0.004-0.055-0.008-0.084-0.013c-0.037-0.005-0.073-0.011-0.11-0.016 c-0.035-0.004-0.07-0.009-0.104-0.012c-0.07-0.005-0.14-0.004-0.211,0c-0.335,0.021-0.607,0.081-0.923,0.202 c-0.579,0.222-1.085,0.672-1.423,1.186c-0.347,0.529-0.521,1.162-0.592,1.785c-0.037,0.321-0.038,0.646-0.018,0.968 c0.026,0.406,0.059,0.819,0.163,1.214c0.142,0.54,0.423,1.121,0.915,1.428c0.632,0.395,1.36,0.331,2.034,0.088 c0.378-0.136,0.739-0.369,1.058-0.638c0.218-0.118,0.42-0.267,0.568-0.434c0.2-0.225,0.394-0.502,0.473-0.804 c0.16-0.266,0.301-0.545,0.412-0.836C119.479,90.196,119.556,89.484,119.416,88.815z"/>
    <path style="fill: rgb(140, 159, 33); stroke-width: 0px;" d="M117.183,86.733c0.012,0.004,0.021,0.012,0.033,0.016c0.002,0.001,0.004,0.002,0.006,0.002 C117.209,86.745,117.196,86.739,117.183,86.733z"/>
    <path style="fill: rgb(140, 159, 33); stroke-width: 0px;" d="M117.222,86.751c0.052,0.024,0.104,0.048,0.157,0.073 C117.306,86.788,117.261,86.767,117.222,86.751z"/>
  </g>
  <path style="fill: rgb(140, 159, 33); stroke-width: 0px;" d="M186.393,78.81c-0.031-0.069-0.063-0.138-0.095-0.207c-0.095-0.129-0.219-0.215-0.374-0.258 c-0.215-0.077-0.43-0.117-0.66-0.139c0.086,0.012,0.171,0.025,0.257,0.037c-0.131-0.045-0.271-0.073-0.409-0.068 c-0.246,0.007-0.429,0.042-0.658,0.141c-0.251,0.108-0.432,0.248-0.627,0.437c-0.099,0.095-0.188,0.206-0.254,0.327 c-0.062,0.112-0.133,0.241-0.171,0.37c-0.002,0.009-0.005,0.018-0.007,0.027c-0.061,0.237-0.087,0.354-0.034,0.595 c0.005,0.02,0.01,0.04,0.016,0.06c0.042,0.131,0.111,0.261,0.166,0.381c0.081,0.124,0.189,0.208,0.325,0.253 c0.13,0.075,0.272,0.109,0.427,0.103c0.108-0.011,0.216-0.021,0.324-0.032c0.18-0.034,0.345-0.1,0.497-0.2 c0.116-0.051,0.217-0.123,0.305-0.214c0.145-0.108,0.265-0.241,0.357-0.399c0.012-0.024,0.024-0.049,0.035-0.073 c0.044-0.032,0.098-0.051,0.138-0.09c0.12-0.089,0.218-0.199,0.295-0.329c0.039-0.081,0.078-0.162,0.116-0.243 C186.419,79.13,186.429,78.971,186.393,78.81z"/>
  <path style="fill: rgb(140, 159, 33); stroke-width: 0px;" d="M184.004,92.159c-0.219-0.149-0.451-0.278-0.678-0.415c-0.265-0.16-0.544-0.285-0.849-0.329 c-0.145-0.021-0.291-0.021-0.436-0.007c-0.437-0.239-0.949-0.349-1.439-0.374c-0.389-0.019-0.877,0.16-1.182,0.39 c-0.349,0.262-0.6,0.573-0.77,0.979c-0.272,0.649-0.276,1.389,0.091,2.001c0.275,0.459,0.813,0.753,1.314,0.892 c0.442,0.123,0.9,0.154,1.351,0.118c0.057,0.177,0.106,0.357,0.153,0.539c0.087,0.338,0.185,0.667,0.233,1.015 c0.054,0.384,0.567,0.498,0.876,0.423c0.173-0.042,0.336-0.117,0.485-0.215c0.178-0.117,0.423-0.38,0.471-0.599 c0.122-0.55,0.224-1.105,0.182-1.669c-0.012-0.163-0.037-0.324-0.057-0.486c0.048-0.042,0.1-0.08,0.145-0.125 C184.44,93.76,184.76,92.672,184.004,92.159z"/>
  <g>
    <path style="fill: rgb(250, 174, 105); stroke-width: 0px;" d="M76.55,18.622c-0.321-0.924-0.987-1.544-1.87-1.928c-0.867-0.377-1.893-0.244-2.74,0.121 c-0.406,0.175-0.794,0.414-1.155,0.697c-0.194,0.103-0.381,0.219-0.555,0.346c-1.456,1.057-2.511,2.828-2.715,4.62 c-0.088,0.782,0.073,1.608,0.59,2.219c0.61,0.721,1.422,1.113,2.366,1.156c1.78,0.081,3.547-1.092,4.633-2.42 c0.587-0.716,1.104-1.509,1.372-2.404C76.704,20.27,76.816,19.387,76.55,18.622z"/>
    <path style="fill: rgb(250, 174, 105); stroke-width: 0px;" d="M72.326,21.177c-0.012,0.003-0.025,0.006-0.035,0.009c0.016-0.003,0.03-0.004,0.046-0.007 C72.34,21.176,72.336,21.176,72.326,21.177z"/>
  </g>
  <path style="fill: rgb(250, 174, 105); stroke-width: 0px;" d="M73.709,28.972c-0.017-0.025-0.035-0.049-0.054-0.072c-0.041-0.049-0.085-0.087-0.132-0.134 c-0.064-0.087-0.149-0.146-0.254-0.175c-0.052-0.032-0.107-0.056-0.166-0.073c-0.112-0.016-0.223-0.033-0.335-0.049 c-0.008-0.001-0.016-0.002-0.025-0.003c-0.02-0.002-0.041-0.004-0.062-0.005c-0.042-0.003-0.083-0.005-0.124-0.006 c-0.079-0.002-0.158-0.003-0.236-0.003c-0.17,0-0.34,0.025-0.509,0.044c0,0,0,0,0,0c-0.001,0-0.002,0-0.002-0.001 c0.094-0.009,0.187-0.019,0.281-0.028c-0.128,0.012-0.257,0.011-0.386,0.008c-0.19-0.039-0.382-0.045-0.573-0.001 c-0.004,0.001-0.009,0.003-0.013,0.004c-0.131,0.024-0.262,0.068-0.383,0.121c-0.345,0.151-0.63,0.402-0.837,0.714 c-0.06,0.094-0.107,0.193-0.142,0.297c-0.02,0.099-0.041,0.198-0.061,0.297c-0.022,0.218,0.01,0.252,0.083,0.411 c0.007,0.016,0.013,0.024,0.019,0.038c0.02,0.044,0.041,0.088,0.06,0.133c0.069,0.067,0.137,0.134,0.205,0.202 c0.005,0.004,0.011,0.007,0.015,0.011c0.026,0.021,0.05,0.042,0.076,0.063c0.054,0.043,0.255,0.123,0.364,0.166 c0.038,0.015,0.076,0.029,0.115,0.04c0.02,0.006,0.042,0.008,0.062,0.012c0.01,0.006,0.022,0.01,0.031,0.017l0,0 c0.002,0.001,0.219,0.102,0.22,0.102c0.086,0.013,0.171,0.025,0.257,0.037c0.093-0.009,0.186-0.018,0.279-0.028 c0.039-0.013,0.077-0.025,0.116-0.038c0.012,0,0.024-0.001,0.035-0.001c0.08-0.001,0.159,0.005,0.239,0.007 c0.277,0.006,0.554-0.071,0.807-0.179c0.036-0.015,0.072-0.029,0.11-0.042c0.239-0.106,0.45-0.254,0.631-0.442 c0.131-0.126,0.229-0.272,0.295-0.438c0.082-0.14,0.128-0.292,0.136-0.457C73.868,29.322,73.821,29.138,73.709,28.972z"/>
  <path style="fill: rgb(250, 174, 105); stroke-width: 0px;" d="M38.515,72.341c-0.97-1.37-3.006-1.355-4.395-0.699c-0.405,0.191-0.798,0.448-1.139,0.757 c-0.77,0.348-1.415,0.912-1.891,1.626c-0.808,1.213-1.239,3.11-0.16,4.309c0.978,1.087,2.543,1.364,3.928,1.022 c1.748-0.431,3.184-1.628,3.862-3.299C39.183,74.914,39.257,73.389,38.515,72.341z"/>
  <path style="fill: rgb(250, 174, 105); stroke-width: 0px;" d="M38.903,88.47c-0.006-0.068-0.012-0.136-0.018-0.205c-0.022-0.105-0.073-0.19-0.155-0.253 c-0.042-0.057-0.097-0.095-0.165-0.114c-0.071-0.041-0.151-0.048-0.231-0.056c0.03,0.004,0.06,0.009,0.09,0.013 c-0.009-0.001-0.017-0.003-0.026-0.006c-0.005-0.001-0.01-0.003-0.015-0.005c-0.031-0.005-0.063-0.009-0.094-0.014 c-0.012,0-0.022-0.009-0.034-0.008c-0.01,0.001-0.02-0.001-0.03-0.001c-0.032-0.005-0.065-0.009-0.098-0.014 c-0.06,0.002-0.118,0.011-0.177,0.018c-0.014-0.001-0.03,0-0.045-0.002c-0.146-0.021-0.294-0.024-0.442,0.01 c-0.226,0.05-0.433,0.142-0.622,0.275c-0.089,0.077-0.179,0.153-0.268,0.23c-0.15,0.155-0.262,0.334-0.335,0.537 c-0.056,0.134-0.071,0.271-0.046,0.41c-0.003,0.134,0.037,0.257,0.12,0.369c0.223,0.319,0.658,0.385,1.013,0.305 c0.16-0.036,0.319-0.087,0.471-0.15c0.026-0.011,0.052-0.024,0.077-0.037c0.108-0.058,0.217-0.118,0.322-0.182 c0.011-0.007,0.022-0.014,0.033-0.022c0.103-0.071,0.242-0.187,0.302-0.254c0.036-0.037,0.068-0.077,0.095-0.122 c0.069-0.071,0.119-0.152,0.153-0.245c0.017-0.037,0.049-0.088,0.063-0.135c0.002-0.007,0.004-0.015,0.006-0.022 c0.019-0.079,0.042-0.176,0.053-0.257c0.001-0.006,0.002-0.013,0.002-0.019C38.904,88.501,38.904,88.485,38.903,88.47z"/>
  <path style="fill: rgb(250, 174, 105); stroke-width: 0px;" d="M48.752,77.842c-0.002-0.046-0.006-0.091-0.012-0.136c-0.006-0.049-0.013-0.097-0.019-0.146 c-0.028-0.132-0.092-0.237-0.194-0.316c-0.083-0.101-0.19-0.167-0.322-0.196l-0.271-0.04c-0.156-0.006-0.304,0.021-0.446,0.078 c-0.109,0.024-0.209,0.068-0.3,0.133c-0.155,0.075-0.29,0.177-0.407,0.306c-0.065,0.084-0.131,0.168-0.196,0.251 c-0.105,0.164-0.166,0.342-0.184,0.536c-0.007,0.052-0.013,0.104-0.02,0.155c-0.017,0.138,0.018,0.264,0.052,0.392 c0.034,0.076,0.069,0.151,0.103,0.227c0.073,0.111,0.171,0.187,0.293,0.228c0.076,0.049,0.159,0.073,0.25,0.073 c0.142,0.032,0.284,0.029,0.427-0.009c0.1-0.032,0.201-0.065,0.3-0.097c0.098-0.055,0.196-0.111,0.295-0.166 c0.141-0.092,0.259-0.207,0.353-0.344c0.102-0.113,0.177-0.243,0.224-0.389c0.006-0.026,0.012-0.051,0.017-0.077 c0.003-0.013,0.006-0.026,0.009-0.038c0.021-0.094,0.058-0.223,0.059-0.286C48.765,77.933,48.762,77.888,48.752,77.842z"/>
  <g>
    <path style="fill: rgb(250, 174, 105); stroke-width: 0px;" d="M37.297,98.866c-0.069,0.039-0.136,0.07-0.204,0.107c-0.069,0.04-0.132,0.084-0.204,0.123 C37.025,99.019,37.161,98.943,37.297,98.866z"/>
    <path style="fill: rgb(250, 174, 105); stroke-width: 0px;" d="M38.873,96.663c0.04-0.496-0.15-1-0.576-1.283c-0.517-0.344-1.164-0.373-1.753-0.222 c-0.025,0.006-0.05,0.017-0.075,0.024c-0.098-0.06-0.185-0.132-0.295-0.179c-1.166-0.498-2.485,0.264-3.251,1.123 c-0.176,0.181-0.306,0.391-0.392,0.628c-0.075,0.208-0.089,0.419-0.041,0.634c0.117,0.28,0.236,0.567,0.407,0.819 c0.157,0.231,0.348,0.422,0.549,0.615c0.284,0.273,0.646,0.473,1.024,0.583c0.464,0.135,0.946,0.13,1.418,0.048 c0.448-0.078,0.822-0.268,1.204-0.48c0.375-0.214,0.723-0.44,1.024-0.774C38.5,97.775,38.827,97.247,38.873,96.663z"/>
  </g>
  <path style="fill: rgb(250, 174, 105); stroke-width: 0px;" d="M132.736,32.625c-0.131-0.266-0.309-0.5-0.512-0.714c-0.09-0.089-0.18-0.177-0.27-0.266 c-0.169-0.119-0.354-0.183-0.556-0.192c-0.324-0.047-0.631,0.01-0.937,0.113c-0.125-0.053-0.251-0.103-0.388-0.132 c-1.012-0.215-2.054,0.167-2.729,0.952c-0.356,0.415-0.629,0.893-0.785,1.42c-0.107,0.36-0.2,0.749-0.196,1.129 c0.006,0.559,0.131,1.151,0.531,1.567c0.296,0.309,0.522,0.459,0.92,0.626c0.268,0.112,0.556,0.149,0.844,0.182 c0.479,0.055,0.989-0.007,1.449-0.147c0.778-0.238,1.476-0.602,2.053-1.188c0.517-0.524,0.945-1.3,0.915-2.056 C133.054,33.408,132.961,33.082,132.736,32.625z"/>
  <path style="fill: rgb(250, 174, 105); stroke-width: 0px;" d="M115.768,42.211c0.003-0.137-0.037-0.262-0.122-0.376c-0.063-0.062-0.126-0.124-0.189-0.186 c-0.161-0.103-0.339-0.155-0.531-0.155c-0.104,0.01-0.207,0.021-0.311,0.031c-0.23,0.051-0.441,0.144-0.633,0.28 c-0.015,0.011-0.03,0.023-0.044,0.035c-0.102,0.085-0.205,0.17-0.303,0.26c-0.025,0.023-0.048,0.048-0.071,0.073 c-0.081,0.095-0.155,0.196-0.23,0.295c-0.011,0.014-0.021,0.027-0.03,0.042c-0.018,0.027-0.034,0.055-0.049,0.083 c-0.068,0.134-0.16,0.295-0.195,0.451c-0.024,0.107-0.048,0.216-0.067,0.325c-0.002,0.016-0.005,0.032-0.007,0.048 c-0.004,0.036-0.005,0.072-0.005,0.109c-0.018,0.142,0.008,0.271,0.078,0.39c0.042,0.13,0.123,0.232,0.244,0.306 c0.118,0.083,0.247,0.128,0.388,0.134c0.15,0.034,0.301,0.03,0.454-0.01c0.107-0.034,0.213-0.069,0.32-0.103 c0.222-0.099,0.417-0.235,0.586-0.41c0.069-0.089,0.138-0.177,0.206-0.265c0.094-0.146,0.147-0.306,0.174-0.475 c0.015-0.019,0.037-0.03,0.051-0.049c0.109-0.12,0.188-0.258,0.238-0.414C115.778,42.492,115.793,42.353,115.768,42.211z"/>
  <path style="fill: rgb(250, 174, 105); stroke-width: 0px;" d="M161.3,28.933c-0.991-0.624-2.27-0.868-3.42-0.615c-0.077,0.001-0.156-0.011-0.233-0.006 c-1.243,0.087-2.381,0.7-3.307,1.508c-1.571,1.372-2.843,3.822-2.064,5.926c0.818,2.209,3.367,3.315,5.595,2.705 c2.181-0.598,4.007-2.362,4.743-4.498C163.223,32.186,163.008,30.009,161.3,28.933z"/>
  <path style="fill: rgb(250, 174, 105); stroke-width: 0px;" d="M143.526,45.091c-0.026-0.123-0.086-0.222-0.181-0.296c-0.078-0.095-0.178-0.156-0.302-0.183 c-0.1-0.015-0.199-0.031-0.299-0.046c-0.184-0.049-0.37-0.052-0.556-0.01c-0.214,0.047-0.41,0.134-0.589,0.261 c-0.085,0.073-0.17,0.145-0.254,0.218c-0.143,0.147-0.248,0.317-0.318,0.509c-0.052,0.127-0.067,0.257-0.044,0.389 c-0.003,0.128,0.035,0.244,0.113,0.35c0.102,0.139,0.237,0.232,0.404,0.279c0.184,0.049,0.37,0.052,0.556,0.01 c0.111-0.016,0.221-0.031,0.331-0.047c0.095-0.031,0.189-0.061,0.284-0.092c0.151-0.061,0.284-0.148,0.399-0.261 c0.086-0.06,0.157-0.133,0.213-0.222c0.096-0.107,0.167-0.229,0.212-0.368c0.017-0.084,0.034-0.167,0.052-0.251 C143.54,45.25,143.533,45.17,143.526,45.091z"/>
  <path style="fill: rgb(250, 174, 105); stroke-width: 0px;" d="M177.372,85.179c-0.215-0.693-0.678-1.34-1.334-1.674c-0.472-0.24-0.848-0.346-1.372-0.409 c-0.367-0.045-0.753-0.009-1.113,0.064c-0.229,0.046-0.453,0.122-0.673,0.209c-0.337-0.198-0.826-0.146-1.157,0.013 c-0.625,0.301-1.175,0.874-1.532,1.467c-0.297,0.495-0.458,1-0.557,1.564c-0.077,0.436-0.029,0.907,0.048,1.339 c0.079,0.444,0.247,0.85,0.439,1.256c0.145,0.306,0.32,0.596,0.537,0.857c0.26,0.313,0.563,0.617,0.908,0.838 c0.915,0.585,2.002,0.633,2.997,0.218c1.261-0.525,2.088-1.697,2.566-2.93C177.464,87.13,177.653,86.084,177.372,85.179z"/>
  <path style="fill: rgb(250, 174, 105); stroke-width: 0px;" d="M187.748,79.79c-0.051-0.193-0.158-0.346-0.322-0.46c-0.174-0.111-0.365-0.167-0.572-0.167 c-0.177-0.007-0.346,0.023-0.507,0.089c-0.185,0.047-0.355,0.129-0.51,0.246c-0.208,0.145-0.38,0.324-0.516,0.538 c-0.119,0.186-0.189,0.389-0.209,0.608c-0.016,0.2,0.032,0.383,0.144,0.55c0.044,0.078,0.088,0.157,0.133,0.235 c0.06,0.059,0.12,0.118,0.18,0.177c0.078,0.036,0.156,0.073,0.235,0.109c0.091,0.013,0.183,0.027,0.274,0.04 c0.157,0.006,0.307-0.021,0.45-0.079c0.11-0.024,0.211-0.069,0.303-0.134c0.106-0.047,0.2-0.113,0.28-0.196 c0.092-0.064,0.169-0.144,0.229-0.239c0.104-0.115,0.18-0.247,0.228-0.396c0.047-0.109,0.095-0.217,0.142-0.326 C187.781,80.19,187.794,79.992,187.748,79.79z"/>
  <path style="fill: rgb(250, 174, 105); stroke-width: 0px;" d="M190.619,62.336c-0.051-0.05-0.102-0.1-0.153-0.15c-0.131-0.084-0.274-0.126-0.43-0.126 c-0.034-0.001-0.069,0-0.103,0.002c-0.114,0.009-0.23,0.015-0.342,0.037c-0.075,0.014-0.147,0.042-0.22,0.065 c-0.072,0.023-0.146,0.044-0.215,0.076c-0.014,0.007-0.027,0.014-0.041,0.021c-0.097,0.052-0.195,0.105-0.288,0.163 c-0.028,0.017-0.055,0.036-0.08,0.057c-0.126,0.102-0.264,0.209-0.367,0.338c-0.127,0.131-0.221,0.282-0.283,0.453l-0.048,0.234 c-0.012,0.153,0.025,0.294,0.111,0.422c0.064,0.098,0.15,0.165,0.257,0.201c0.103,0.06,0.216,0.087,0.338,0.082 c0.136,0.005,0.266-0.018,0.389-0.068c0.143-0.036,0.273-0.099,0.391-0.189c0.052-0.036,0.082-0.092,0.128-0.133 c0.045-0.011,0.093-0.006,0.136-0.024c0.139-0.036,0.267-0.097,0.383-0.185c0.122-0.079,0.224-0.178,0.305-0.297 c0.088-0.097,0.152-0.209,0.193-0.336c0.016-0.076,0.032-0.153,0.047-0.229C190.738,62.6,190.702,62.462,190.619,62.336z"/>
  <path style="fill: rgb(250, 174, 105); stroke-width: 0px;" d="M115.82,98.091c0.008-0.018,0.021-0.039,0.029-0.057c0.199-0.368,0.263-0.845,0.014-1.2 c-0.135-0.184-0.313-0.306-0.532-0.367c-0.243-0.064-0.487-0.069-0.731-0.013c-0.029,0.004-0.058,0.01-0.087,0.018 c-0.087,0.024-0.333,0.098-0.417,0.135c-0.095,0.041-0.323,0.177-0.408,0.233c-0.065,0.043-0.15,0.114-0.233,0.189 c-0.389,0.045-0.774,0.26-1.034,0.534c-0.155,0.16-0.27,0.344-0.345,0.553c-0.066,0.183-0.078,0.37-0.036,0.559 c0.026,0.166,0.053,0.339,0.116,0.496c0.051,0.125,0.102,0.275,0.187,0.389c0.034,0.045,0.105,0.106,0.127,0.127 c0.117,0.114,0.072,0.082,0.131,0.121c0.044,0.029,0.253,0.124,0.303,0.141c0.009,0.003,0.017,0.005,0.025,0.008 c0.047,0.014,0.303,0.05,0.352,0.051c0.007,0,0.015,0,0.022,0.001c0.071,0.002,0.315-0.024,0.385-0.038 c0.07-0.014,0.154-0.048,0.208-0.066c0.237-0.077,0.43-0.156,0.64-0.315c0.104-0.079,0.243-0.202,0.339-0.291 c0.007-0.007,0.015-0.013,0.021-0.02c0.015-0.015,0.029-0.03,0.042-0.046c0.117-0.137,0.227-0.281,0.331-0.427 c0.016-0.022,0.032-0.045,0.048-0.067c0.026-0.029,0.051-0.058,0.08-0.085c0.024-0.023,0.047-0.039,0.072-0.067 c0.074-0.082,0.211-0.253,0.272-0.346c0.012-0.018,0.016-0.033,0.026-0.049c0.007-0.013,0.014-0.026,0.022-0.039 C115.802,98.134,115.809,98.11,115.82,98.091z"/>
  <g>
    <path style="fill: rgb(250, 174, 105); stroke-width: 0px;" d="M97.259,84.752c-0.252-0.175-0.522-0.287-0.798-0.353c-0.255-0.205-0.547-0.333-0.895-0.343 c-0.175-0.005-0.352,0.016-0.522,0.06c-0.127,0.033-0.275,0.081-0.401,0.138c-0.021,0.009-0.041,0.021-0.061,0.031 c-0.018,0.011-0.037,0.021-0.056,0.031c-0.099,0.055-0.203,0.106-0.296,0.17c-0.7,0.478-1.141,1.214-1.472,1.974 c-0.291,0.669-0.468,1.406-0.545,2.13c-0.067,0.627-0.058,1.332,0.195,1.918c0.166,0.385,0.359,0.713,0.72,0.954 c0.358,0.24,0.813,0.352,1.241,0.337c0.561-0.019,1.108-0.168,1.615-0.408c0.595-0.282,1.159-0.646,1.613-1.12 c0.028-0.023,0.051-0.048,0.077-0.073c0.017-0.018,0.031-0.037,0.046-0.056c0.08-0.083,0.162-0.164,0.217-0.262 c0.015-0.026,0.022-0.056,0.035-0.083c0.043-0.064,0.097-0.118,0.136-0.185C99.023,88.057,98.818,85.832,97.259,84.752z"/>
    <path style="fill: rgb(250, 174, 105); stroke-width: 0px;" d="M94.409,84.383c-0.039,0.022-0.077,0.044-0.116,0.065C94.212,84.494,94.254,84.47,94.409,84.383z"/>
    <path style="fill: rgb(250, 174, 105); stroke-width: 0px;" d="M94.409,84.383c0.039-0.022,0.078-0.044,0.118-0.067c0.006-0.004,0.013-0.008,0.019-0.011 C94.491,84.337,94.449,84.36,94.409,84.383z"/>
  </g>
</svg>