<?xml version="1.0" encoding="utf-8"?>
<svg xmlns="http://www.w3.org/2000/svg" viewBox="79.4695 513.9331 176.4181 115.5225" width="176.418px" height="115.522px" xmlns:bx="https://boxy-svg.com">
  <defs>
    <linearGradient x1="0" y1="0" x2="1" y2="0" gradientUnits="userSpaceOnUse" gradientTransform="matrix(5454.77,-5501.73,-5501.73,-5454.77,-4.09365,5025.65)" spreadMethod="pad" id="linearGradient1230">
      <stop style="stop-opacity:1;stop-color:#2b7f9d" offset="0" id="stop1228"/>
      <stop style="stop-opacity:1;stop-color:#146d92" offset="0.9358" id="stop1229"/>
      <stop style="stop-opacity:1;stop-color:#146d92" offset="1" id="stop1230"/>
    </linearGradient>
    <clipPath clipPathUnits="userSpaceOnUse" id="clipPath1230">
      <path d="m 1306.73,285.09 c -67.95,0 -129.7,27.73 -175.54,72.949 -0.58,0.57 -1.15,1.141 -1.72,1.711 -0.22,0.219 -0.44,0.449 -0.65,0.672 45.82,-45.192 107.55,-72.891 175.48,-72.891 92.14,0 172.88,50.969 217.99,127.418 0.8,-0.828 1.61,-1.648 2.43,-2.461 C 1479.61,336.051 1398.87,285.09 1306.73,285.09 m -409.601,71.851 c -39.18,0 -76.172,14.161 -102.602,39.829 -0.882,0.859 -1.75,1.73 -2.609,2.609 26.441,-25.777 63.508,-40.008 102.77,-40.008 23.222,0 47.207,4.981 70.23,15.469 15.719,7.172 29.695,16.441 41.892,27.129 29.45,-15.989 63.84,-25.367 100.74,-25.367 2.01,0 3.95,0.218 5.94,0.269 0.7,-0.82 1.41,-1.641 2.12,-2.449 -1.88,-0.07 -3.72,-0.262 -5.61,-0.262 -36.91,0 -71.3,9.371 -100.76,25.371 C 997.051,388.84 983.07,379.57 967.352,372.398 944.336,361.91 920.348,356.941 897.129,356.941 m 731.161,10.899 c -38.86,0 -74.18,15.789 -100.48,41.558 -0.21,0.223 -0.44,0.434 -0.65,0.653 -0.55,0.539 -1.1,1.09 -1.64,1.648 26.28,-25.679 61.55,-41.418 100.33,-41.418 74.94,0 136.66,58.707 145.81,134.559 1.63,-0.051 3.23,-0.238 4.88,-0.238 81.24,0 147.1,65.859 147.1,147.097 0,39.981 -15.95,76.231 -41.83,102.742 0.77,-0.75 1.52,-1.5 2.28,-2.269 25.97,-26.531 41.99,-62.852 41.99,-102.91 0,-81.242 -65.86,-147.102 -147.11,-147.102 -1.64,0 -3.24,0.192 -4.88,0.238 -9.14,-75.847 -70.86,-134.558 -145.8,-134.558 M 753.887,504.551 c -37.547,1.551 -71.457,17.14 -96.61,41.668 -0.882,0.863 -1.761,1.742 -2.625,2.633 25.77,-25.223 60.786,-41.043 99.489,-41.954 -0.09,-0.777 -0.176,-1.558 -0.254,-2.347 m 958.693,279.461 c -4.96,6.66 -10.36,12.957 -16.15,18.867 0.82,-0.809 1.64,-1.629 2.44,-2.449 5.02,-5.121 9.74,-10.532 14.14,-16.211 -0.15,-0.071 -0.29,-0.137 -0.43,-0.207 m -113.61,70.679 c -0.58,0.11 -1.15,0.207 -1.73,0.309 -8.86,27.34 -23.97,51.859 -43.64,71.879 0.84,-0.82 1.67,-1.649 2.49,-2.481 19.13,-19.488 33.94,-43.238 42.88,-69.707 m -269.04,101.11 c -15.53,38.699 -38.42,73.369 -66.83,102.079 0.85,-0.84 1.7,-1.69 2.54,-2.54 27.6,-27.92 49.98,-61.461 65.45,-98.852 -0.39,-0.226 -0.77,-0.457 -1.16,-0.687" transform="translate(0,2.5e-5)" id="path1230"/>
    </clipPath>
    <linearGradient x1="0" y1="0" x2="1" y2="0" gradientUnits="userSpaceOnUse" gradientTransform="matrix(5454.77,-5501.73,-5501.73,-5454.77,-4.09365,5025.65)" spreadMethod="pad" id="linearGradient1233">
      <stop style="stop-opacity:1;stop-color:#287b99" offset="0" id="stop1231"/>
      <stop style="stop-opacity:1;stop-color:#15688e" offset="0.9358" id="stop1232"/>
      <stop style="stop-opacity:1;stop-color:#15688e" offset="1" id="stop1233"/>
    </linearGradient>
    <clipPath clipPathUnits="userSpaceOnUse" id="clipPath1233">
      <path d="m 1304.3,287.531 c -67.93,0 -129.66,27.699 -175.48,72.891 -0.6,0.578 -1.2,1.18 -1.79,1.769 -0.8,0.809 -1.6,1.629 -2.4,2.438 -0.78,0.812 -1.56,1.621 -2.33,2.441 -0.77,0.821 -1.53,1.629 -2.29,2.45 -0.75,0.812 -1.49,1.628 -2.23,2.449 -0.73,0.812 -1.45,1.633 -2.17,2.453 -0.71,0.808 -1.42,1.629 -2.12,2.449 -1.99,-0.051 -3.93,-0.269 -5.94,-0.269 -36.9,0 -71.29,9.378 -100.74,25.367 -12.197,-10.688 -26.173,-19.957 -41.892,-27.129 -23.023,-10.488 -47.008,-15.469 -70.23,-15.469 -39.262,0 -76.329,14.231 -102.77,40.008 -11.148,10.871 -20.414,23.801 -27.156,38.59 -0.442,0.972 -0.871,1.941 -1.285,2.91 -0.098,0.23 -0.192,0.453 -0.289,0.68 -0.11,0.261 -0.215,0.523 -0.321,0.781 -0.117,0.281 -0.234,0.57 -0.347,0.851 -0.125,0.309 -0.25,0.618 -0.372,0.93 -0.132,0.328 -0.261,0.66 -0.386,0.988 -0.137,0.36 -0.27,0.711 -0.403,1.063 -0.136,0.367 -0.273,0.738 -0.41,1.098 -0.14,0.39 -0.277,0.781 -0.418,1.171 -0.14,0.399 -0.281,0.801 -0.418,1.207 -0.144,0.411 -0.285,0.832 -0.422,1.25 -0.14,0.434 -0.281,0.864 -0.418,1.293 -0.144,0.438 -0.285,0.891 -0.418,1.34 -0.14,0.457 -0.281,0.91 -0.414,1.367 -0.14,0.473 -0.277,0.942 -0.406,1.411 -0.137,0.48 -0.269,0.961 -0.398,1.441 -0.133,0.492 -0.262,0.988 -0.391,1.48 -0.129,0.512 -0.254,1.008 -0.379,1.52 -0.125,0.512 -0.246,1.031 -0.363,1.551 -0.121,0.519 -0.238,1.039 -0.352,1.57 -0.117,0.527 -0.23,1.07 -0.339,1.609 -0.114,0.551 -0.219,1.09 -0.325,1.641 -0.105,0.559 -0.207,1.121 -0.304,1.68 -0.102,0.558 -0.196,1.129 -0.289,1.699 -0.094,0.57 -0.184,1.148 -0.266,1.73 -0.09,0.59 -0.172,1.18 -0.25,1.77 -0.082,0.602 -0.156,1.199 -0.231,1.801 -0.074,0.601 -0.14,1.211 -0.203,1.82 -0.066,0.621 -0.129,1.238 -0.183,1.859 -0.059,0.629 -0.11,1.262 -0.16,1.891 -0.047,0.649 -0.09,1.289 -0.129,1.93 -0.043,0.648 -0.078,1.308 -0.106,1.961 -0.031,0.66 -0.058,1.328 -0.078,1.988 -0.019,0.68 -0.035,1.359 -0.047,2.031 -0.012,0.688 -0.015,1.379 -0.015,2.071 0,0.699 0.007,1.398 0.019,2.089 0.012,0.719 0.027,1.43 0.051,2.141 0.023,0.727 0.051,1.457 0.086,2.188 0.039,0.742 0.082,1.48 0.129,2.218 0.047,0.754 0.101,1.5 0.164,2.254 0.062,0.77 0.133,1.539 0.211,2.309 0.078,0.789 0.164,1.57 0.254,2.347 -38.703,0.911 -73.719,16.731 -99.489,41.954 -27.242,26.66 -44.148,63.828 -44.148,104.98 0,81.238 65.859,147.098 147.098,147.098 3.675,0 7.281,-0.289 10.89,-0.551 -1.367,12.019 -2.152,24.23 -2.152,36.641 0,169.51 131.262,306.93 293.19,306.93 79.07,0 150.84,-32.79 203.57,-86.07 28.41,-28.71 51.3,-63.38 66.83,-102.079 0.39,0.23 0.77,0.461 1.16,0.687 0.38,0.223 0.76,0.442 1.14,0.66 0.37,0.211 0.74,0.422 1.11,0.633 0.36,0.199 0.72,0.41 1.08,0.61 0.35,0.191 0.7,0.39 1.05,0.578 0.35,0.191 0.69,0.371 1.03,0.562 0.33,0.18 0.66,0.36 1,0.539 0.32,0.168 0.64,0.34 0.97,0.512 0.31,0.156 0.62,0.328 0.94,0.488 0.3,0.16 0.61,0.321 0.91,0.469 0.3,0.152 0.59,0.301 0.89,0.449 0.28,0.153 0.57,0.293 0.85,0.434 0.28,0.137 0.56,0.277 0.83,0.406 0.27,0.133 0.54,0.262 0.8,0.391 0.26,0.133 0.52,0.25 0.77,0.371 0.25,0.121 0.5,0.242 0.74,0.359 0.24,0.11 0.48,0.223 0.72,0.34 0.22,0.102 0.45,0.211 0.68,0.32 0.22,0.102 0.43,0.2 0.65,0.301 0.2,0.09 0.41,0.192 0.62,0.281 0.2,0.09 0.39,0.18 0.59,0.27 0.19,0.078 0.37,0.168 0.56,0.25 0.18,0.078 0.35,0.16 0.53,0.23 0.16,0.079 0.33,0.149 0.49,0.219 0.16,0.07 0.31,0.141 0.47,0.211 0.14,0.059 0.29,0.117 0.43,0.188 0.13,0.05 0.27,0.113 0.4,0.171 0.12,0.051 0.24,0.102 0.36,0.149 0.11,0.051 0.22,0.101 0.33,0.141 0.1,0.05 0.2,0.089 0.3,0.128 0.09,0.043 0.17,0.071 0.26,0.114 0.07,0.027 0.15,0.058 0.22,0.09 0.07,0.027 0.13,0.058 0.19,0.078 0.05,0.031 0.1,0.05 0.16,0.07 0.03,0.012 0.07,0.031 0.11,0.051 0.02,0.008 0.05,0.019 0.07,0.031 0.02,0 0.03,0.008 0.04,0.008 v 0 c 21.51,8.969 45.07,13.969 69.84,13.969 51.06,0 97.21,-20.93 130.38,-54.68 19.67,-20.02 34.78,-44.539 43.64,-71.879 0.58,-0.102 1.15,-0.199 1.73,-0.309 0.57,-0.101 1.14,-0.211 1.71,-0.32 0.56,-0.109 1.12,-0.223 1.69,-0.332 0.55,-0.109 1.1,-0.23 1.66,-0.34 0.54,-0.117 1.08,-0.238 1.63,-0.359 0.53,-0.121 1.07,-0.238 1.61,-0.36 0.53,-0.121 1.05,-0.25 1.58,-0.371 0.52,-0.129 1.04,-0.257 1.55,-0.39 0.51,-0.117 1.02,-0.25 1.53,-0.379 0.5,-0.129 1,-0.27 1.51,-0.399 0.49,-0.132 0.98,-0.269 1.47,-0.402 0.48,-0.129 0.96,-0.269 1.44,-0.41 0.47,-0.129 0.95,-0.27 1.42,-0.41 0.46,-0.137 0.92,-0.27 1.39,-0.418 0.45,-0.129 0.9,-0.27 1.35,-0.41 0.44,-0.141 0.88,-0.282 1.32,-0.422 0.43,-0.137 0.86,-0.278 1.29,-0.418 0.42,-0.141 0.84,-0.281 1.26,-0.422 0.4,-0.129 0.81,-0.27 1.21,-0.41 0.39,-0.137 0.78,-0.27 1.18,-0.41 0.38,-0.129 0.76,-0.27 1.13,-0.411 0.37,-0.128 0.74,-0.257 1.1,-0.398 0.35,-0.121 0.7,-0.25 1.05,-0.379 0.33,-0.129 0.66,-0.25 1,-0.379 0.31,-0.121 0.63,-0.242 0.94,-0.363 0.3,-0.117 0.6,-0.238 0.9,-0.348 0.27,-0.109 0.55,-0.222 0.82,-0.332 0.26,-0.097 0.51,-0.199 0.76,-0.308 0.23,-0.09 0.46,-0.18 0.69,-0.282 0.21,-0.078 0.41,-0.16 0.61,-0.25 0.18,-0.07 0.35,-0.14 0.52,-0.211 0.14,-0.058 0.28,-0.117 0.42,-0.179 0.1,-0.039 0.2,-0.078 0.3,-0.129 0.07,-0.02 0.13,-0.051 0.2,-0.078 0.01,0 0.02,-0.012 0.03,-0.012 22.37,-9.48 42.43,-23.281 59.19,-40.371 5.79,-5.91 11.19,-12.207 16.15,-18.867 0.14,0.07 0.28,0.136 0.43,0.207 0.12,0.062 0.24,0.121 0.37,0.179 0.1,0.051 0.21,0.102 0.32,0.153 0.09,0.039 0.17,0.078 0.26,0.129 0.07,0.031 0.14,0.062 0.21,0.09 0.04,0.019 0.09,0.05 0.14,0.07 0.03,0.012 0.06,0.031 0.09,0.039 0.01,0.012 0.02,0.012 0.02,0.012 18.89,8.839 39.89,13.91 62.12,13.91 41.26,0 78.56,-16.992 105.27,-44.36 25.88,-26.511 41.83,-62.761 41.83,-102.742 0,-81.238 -65.86,-147.097 -147.1,-147.097 -1.65,0 -3.25,0.187 -4.88,0.238 -9.15,-75.852 -70.87,-134.559 -145.81,-134.559 -38.78,0 -74.05,15.739 -100.33,41.418 -0.27,0.262 -0.53,0.52 -0.8,0.789 -0.82,0.813 -1.63,1.633 -2.43,2.461 C 1477.18,338.5 1396.44,287.531 1304.3,287.531" transform="translate(0,2.5e-5)" id="path1233"/>
    </clipPath>
    <clipPath clipPathUnits="userSpaceOnUse" id="clipPath1236">
      <path d="m 1776.54,798.801 c -22.96,0 -44.6,-5.41 -63.96,-14.789 -27.42,36.789 -68.25,62.859 -115.34,70.988 -23.79,73.43 -92.66,126.559 -174.02,126.559 -34.12,0 -65.95,-9.5 -93.29,-25.758 -44.35,110.519 -148.71,188.149 -270.4,188.149 -161.928,0 -293.19,-137.42 -293.19,-306.93 0,-12.411 0.785,-24.622 2.152,-36.641 -3.609,0.262 -7.215,0.551 -10.89,0.551 -81.239,0 -147.098,-65.86 -147.098,-147.098 0,-80.07 64.012,-145.07 143.637,-146.934 -2.703,-23.148 0.531,-46.796 10.621,-68.929 32.187,-70.59 121.797,-98.86 200.156,-63.129 15.719,7.172 29.695,16.441 41.892,27.129 29.45,-15.989 63.84,-25.367 100.74,-25.367 2.01,0 3.95,0.218 5.94,0.269 46.89,-54.82 114.98,-89.34 190.81,-89.34 92.14,0 172.88,50.969 217.99,127.418 26.59,-27.597 63.16,-44.668 103.56,-44.668 74.94,0 136.66,58.707 145.81,134.559 1.63,-0.051 3.23,-0.238 4.88,-0.238 81.24,0 147.1,65.859 147.1,147.097 0,81.242 -65.86,147.102 -147.1,147.102 z" transform="translate(0,2.5e-5)" id="path1236"/>
    </clipPath>
    <linearGradient id="gradient-0" bx:pinned="true">
      <stop style="stop-color: rgb(255, 255, 255);" offset="0"/>
      <stop style="stop-color: rgb(206, 221, 239);" offset="0.9992"/>
      <stop style="stop-color: rgb(206, 221, 239);" offset="1"/>
    </linearGradient>
    <radialGradient id="gradient-0-0" href="#gradient-0" gradientUnits="userSpaceOnUse" cx="1267.072" cy="715.741" r="656.568"/>
  </defs>
  <path id="path1228" d="m 1306.73,285.09 c -67.95,0 -129.7,27.73 -175.54,72.949 -0.58,0.57 -1.15,1.141 -1.72,1.711 -0.22,0.219 -0.44,0.449 -0.65,0.672 45.82,-45.192 107.55,-72.891 175.48,-72.891 92.14,0 172.88,50.969 217.99,127.418 0.8,-0.828 1.61,-1.648 2.43,-2.461 C 1479.61,336.051 1398.87,285.09 1306.73,285.09 m -409.601,71.851 c -39.18,0 -76.172,14.161 -102.602,39.829 -0.882,0.859 -1.75,1.73 -2.609,2.609 26.441,-25.777 63.508,-40.008 102.77,-40.008 23.222,0 47.207,4.981 70.23,15.469 15.719,7.172 29.695,16.441 41.892,27.129 29.45,-15.989 63.84,-25.367 100.74,-25.367 2.01,0 3.95,0.218 5.94,0.269 0.7,-0.82 1.41,-1.641 2.12,-2.449 -1.88,-0.07 -3.72,-0.262 -5.61,-0.262 -36.91,0 -71.3,9.371 -100.76,25.371 C 997.051,388.84 983.07,379.57 967.352,372.398 944.336,361.91 920.348,356.941 897.129,356.941 m 731.161,10.899 c -38.86,0 -74.18,15.789 -100.48,41.558 -0.21,0.223 -0.44,0.434 -0.65,0.653 -0.55,0.539 -1.1,1.09 -1.64,1.648 26.28,-25.679 61.55,-41.418 100.33,-41.418 74.94,0 136.66,58.707 145.81,134.559 1.63,-0.051 3.23,-0.238 4.88,-0.238 81.24,0 147.1,65.859 147.1,147.097 0,39.981 -15.95,76.231 -41.83,102.742 0.77,-0.75 1.52,-1.5 2.28,-2.269 25.97,-26.531 41.99,-62.852 41.99,-102.91 0,-81.242 -65.86,-147.102 -147.11,-147.102 -1.64,0 -3.24,0.192 -4.88,0.238 -9.14,-75.847 -70.86,-134.558 -145.8,-134.558 M 753.887,504.551 c -37.547,1.551 -71.457,17.14 -96.61,41.668 -0.882,0.863 -1.761,1.742 -2.625,2.633 25.77,-25.223 60.786,-41.043 99.489,-41.954 -0.09,-0.777 -0.176,-1.558 -0.254,-2.347 m 958.693,279.461 c -4.96,6.66 -10.36,12.957 -16.15,18.867 0.82,-0.809 1.64,-1.629 2.44,-2.449 5.02,-5.121 9.74,-10.532 14.14,-16.211 -0.15,-0.071 -0.29,-0.137 -0.43,-0.207 m -113.61,70.679 c -0.58,0.11 -1.15,0.207 -1.73,0.309 -8.86,27.34 -23.97,51.859 -43.64,71.879 0.84,-0.82 1.67,-1.649 2.49,-2.481 19.13,-19.488 33.94,-43.238 42.88,-69.707 m -269.04,101.11 c -15.53,38.699 -38.42,73.369 -66.83,102.079 0.85,-0.84 1.7,-1.69 2.54,-2.54 27.6,-27.92 49.98,-61.461 65.45,-98.852 -0.39,-0.226 -0.77,-0.457 -1.16,-0.687" style="fill: url(&quot;#linearGradient1230&quot;); fill-opacity: 1; fill-rule: nonzero; stroke: none;" transform="matrix(0.13333331048488617, 0, 0, -0.13333331048488617, -1.2643439769744873, 667.1264038085938)" clip-path="url(#clipPath1230)"/>
  <path id="path1231" d="m 1304.3,287.531 c -67.93,0 -129.66,27.699 -175.48,72.891 -0.6,0.578 -1.2,1.18 -1.79,1.769 -0.8,0.809 -1.6,1.629 -2.4,2.438 -0.78,0.812 -1.56,1.621 -2.33,2.441 -0.77,0.821 -1.53,1.629 -2.29,2.45 -0.75,0.812 -1.49,1.628 -2.23,2.449 -0.73,0.812 -1.45,1.633 -2.17,2.453 -0.71,0.808 -1.42,1.629 -2.12,2.449 -1.99,-0.051 -3.93,-0.269 -5.94,-0.269 -36.9,0 -71.29,9.378 -100.74,25.367 -12.197,-10.688 -26.173,-19.957 -41.892,-27.129 -23.023,-10.488 -47.008,-15.469 -70.23,-15.469 -39.262,0 -76.329,14.231 -102.77,40.008 -11.148,10.871 -20.414,23.801 -27.156,38.59 -0.442,0.972 -0.871,1.941 -1.285,2.91 -0.098,0.23 -0.192,0.453 -0.289,0.68 -0.11,0.261 -0.215,0.523 -0.321,0.781 -0.117,0.281 -0.234,0.57 -0.347,0.851 -0.125,0.309 -0.25,0.618 -0.372,0.93 -0.132,0.328 -0.261,0.66 -0.386,0.988 -0.137,0.36 -0.27,0.711 -0.403,1.063 -0.136,0.367 -0.273,0.738 -0.41,1.098 -0.14,0.39 -0.277,0.781 -0.418,1.171 -0.14,0.399 -0.281,0.801 -0.418,1.207 -0.144,0.411 -0.285,0.832 -0.422,1.25 -0.14,0.434 -0.281,0.864 -0.418,1.293 -0.144,0.438 -0.285,0.891 -0.418,1.34 -0.14,0.457 -0.281,0.91 -0.414,1.367 -0.14,0.473 -0.277,0.942 -0.406,1.411 -0.137,0.48 -0.269,0.961 -0.398,1.441 -0.133,0.492 -0.262,0.988 -0.391,1.48 -0.129,0.512 -0.254,1.008 -0.379,1.52 -0.125,0.512 -0.246,1.031 -0.363,1.551 -0.121,0.519 -0.238,1.039 -0.352,1.57 -0.117,0.527 -0.23,1.07 -0.339,1.609 -0.114,0.551 -0.219,1.09 -0.325,1.641 -0.105,0.559 -0.207,1.121 -0.304,1.68 -0.102,0.558 -0.196,1.129 -0.289,1.699 -0.094,0.57 -0.184,1.148 -0.266,1.73 -0.09,0.59 -0.172,1.18 -0.25,1.77 -0.082,0.602 -0.156,1.199 -0.231,1.801 -0.074,0.601 -0.14,1.211 -0.203,1.82 -0.066,0.621 -0.129,1.238 -0.183,1.859 -0.059,0.629 -0.11,1.262 -0.16,1.891 -0.047,0.649 -0.09,1.289 -0.129,1.93 -0.043,0.648 -0.078,1.308 -0.106,1.961 -0.031,0.66 -0.058,1.328 -0.078,1.988 -0.019,0.68 -0.035,1.359 -0.047,2.031 -0.012,0.688 -0.015,1.379 -0.015,2.071 0,0.699 0.007,1.398 0.019,2.089 0.012,0.719 0.027,1.43 0.051,2.141 0.023,0.727 0.051,1.457 0.086,2.188 0.039,0.742 0.082,1.48 0.129,2.218 0.047,0.754 0.101,1.5 0.164,2.254 0.062,0.77 0.133,1.539 0.211,2.309 0.078,0.789 0.164,1.57 0.254,2.347 -38.703,0.911 -73.719,16.731 -99.489,41.954 -27.242,26.66 -44.148,63.828 -44.148,104.98 0,81.238 65.859,147.098 147.098,147.098 3.675,0 7.281,-0.289 10.89,-0.551 -1.367,12.019 -2.152,24.23 -2.152,36.641 0,169.51 131.262,306.93 293.19,306.93 79.07,0 150.84,-32.79 203.57,-86.07 28.41,-28.71 51.3,-63.38 66.83,-102.079 0.39,0.23 0.77,0.461 1.16,0.687 0.38,0.223 0.76,0.442 1.14,0.66 0.37,0.211 0.74,0.422 1.11,0.633 0.36,0.199 0.72,0.41 1.08,0.61 0.35,0.191 0.7,0.39 1.05,0.578 0.35,0.191 0.69,0.371 1.03,0.562 0.33,0.18 0.66,0.36 1,0.539 0.32,0.168 0.64,0.34 0.97,0.512 0.31,0.156 0.62,0.328 0.94,0.488 0.3,0.16 0.61,0.321 0.91,0.469 0.3,0.152 0.59,0.301 0.89,0.449 0.28,0.153 0.57,0.293 0.85,0.434 0.28,0.137 0.56,0.277 0.83,0.406 0.27,0.133 0.54,0.262 0.8,0.391 0.26,0.133 0.52,0.25 0.77,0.371 0.25,0.121 0.5,0.242 0.74,0.359 0.24,0.11 0.48,0.223 0.72,0.34 0.22,0.102 0.45,0.211 0.68,0.32 0.22,0.102 0.43,0.2 0.65,0.301 0.2,0.09 0.41,0.192 0.62,0.281 0.2,0.09 0.39,0.18 0.59,0.27 0.19,0.078 0.37,0.168 0.56,0.25 0.18,0.078 0.35,0.16 0.53,0.23 0.16,0.079 0.33,0.149 0.49,0.219 0.16,0.07 0.31,0.141 0.47,0.211 0.14,0.059 0.29,0.117 0.43,0.188 0.13,0.05 0.27,0.113 0.4,0.171 0.12,0.051 0.24,0.102 0.36,0.149 0.11,0.051 0.22,0.101 0.33,0.141 0.1,0.05 0.2,0.089 0.3,0.128 0.09,0.043 0.17,0.071 0.26,0.114 0.07,0.027 0.15,0.058 0.22,0.09 0.07,0.027 0.13,0.058 0.19,0.078 0.05,0.031 0.1,0.05 0.16,0.07 0.03,0.012 0.07,0.031 0.11,0.051 0.02,0.008 0.05,0.019 0.07,0.031 0.02,0 0.03,0.008 0.04,0.008 v 0 c 21.51,8.969 45.07,13.969 69.84,13.969 51.06,0 97.21,-20.93 130.38,-54.68 19.67,-20.02 34.78,-44.539 43.64,-71.879 0.58,-0.102 1.15,-0.199 1.73,-0.309 0.57,-0.101 1.14,-0.211 1.71,-0.32 0.56,-0.109 1.12,-0.223 1.69,-0.332 0.55,-0.109 1.1,-0.23 1.66,-0.34 0.54,-0.117 1.08,-0.238 1.63,-0.359 0.53,-0.121 1.07,-0.238 1.61,-0.36 0.53,-0.121 1.05,-0.25 1.58,-0.371 0.52,-0.129 1.04,-0.257 1.55,-0.39 0.51,-0.117 1.02,-0.25 1.53,-0.379 0.5,-0.129 1,-0.27 1.51,-0.399 0.49,-0.132 0.98,-0.269 1.47,-0.402 0.48,-0.129 0.96,-0.269 1.44,-0.41 0.47,-0.129 0.95,-0.27 1.42,-0.41 0.46,-0.137 0.92,-0.27 1.39,-0.418 0.45,-0.129 0.9,-0.27 1.35,-0.41 0.44,-0.141 0.88,-0.282 1.32,-0.422 0.43,-0.137 0.86,-0.278 1.29,-0.418 0.42,-0.141 0.84,-0.281 1.26,-0.422 0.4,-0.129 0.81,-0.27 1.21,-0.41 0.39,-0.137 0.78,-0.27 1.18,-0.41 0.38,-0.129 0.76,-0.27 1.13,-0.411 0.37,-0.128 0.74,-0.257 1.1,-0.398 0.35,-0.121 0.7,-0.25 1.05,-0.379 0.33,-0.129 0.66,-0.25 1,-0.379 0.31,-0.121 0.63,-0.242 0.94,-0.363 0.3,-0.117 0.6,-0.238 0.9,-0.348 0.27,-0.109 0.55,-0.222 0.82,-0.332 0.26,-0.097 0.51,-0.199 0.76,-0.308 0.23,-0.09 0.46,-0.18 0.69,-0.282 0.21,-0.078 0.41,-0.16 0.61,-0.25 0.18,-0.07 0.35,-0.14 0.52,-0.211 0.14,-0.058 0.28,-0.117 0.42,-0.179 0.1,-0.039 0.2,-0.078 0.3,-0.129 0.07,-0.02 0.13,-0.051 0.2,-0.078 0.01,0 0.02,-0.012 0.03,-0.012 22.37,-9.48 42.43,-23.281 59.19,-40.371 5.79,-5.91 11.19,-12.207 16.15,-18.867 0.14,0.07 0.28,0.136 0.43,0.207 0.12,0.062 0.24,0.121 0.37,0.179 0.1,0.051 0.21,0.102 0.32,0.153 0.09,0.039 0.17,0.078 0.26,0.129 0.07,0.031 0.14,0.062 0.21,0.09 0.04,0.019 0.09,0.05 0.14,0.07 0.03,0.012 0.06,0.031 0.09,0.039 0.01,0.012 0.02,0.012 0.02,0.012 18.89,8.839 39.89,13.91 62.12,13.91 41.26,0 78.56,-16.992 105.27,-44.36 25.88,-26.511 41.83,-62.761 41.83,-102.742 0,-81.238 -65.86,-147.097 -147.1,-147.097 -1.65,0 -3.25,0.187 -4.88,0.238 -9.15,-75.852 -70.87,-134.559 -145.81,-134.559 -38.78,0 -74.05,15.739 -100.33,41.418 -0.27,0.262 -0.53,0.52 -0.8,0.789 -0.82,0.813 -1.63,1.633 -2.43,2.461 C 1477.18,338.5 1396.44,287.531 1304.3,287.531" style="fill: url(&quot;#linearGradient1233&quot;); fill-opacity: 1; fill-rule: nonzero; stroke: none;" transform="matrix(0.13333331048488617, 0, 0, -0.13333331048488617, -1.2643439769744873, 667.1264038085938)" clip-path="url(#clipPath1233)"/>
  <path id="path1234" d="m 1776.54,798.801 c -22.96,0 -44.6,-5.41 -63.96,-14.789 -27.42,36.789 -68.25,62.859 -115.34,70.988 -23.79,73.43 -92.66,126.559 -174.02,126.559 -34.12,0 -65.95,-9.5 -93.29,-25.758 -44.35,110.519 -148.71,188.149 -270.4,188.149 -161.928,0 -293.19,-137.42 -293.19,-306.93 0,-12.411 0.785,-24.622 2.152,-36.641 -3.609,0.262 -7.215,0.551 -10.89,0.551 -81.239,0 -147.098,-65.86 -147.098,-147.098 0,-80.07 64.012,-145.07 143.637,-146.934 -2.703,-23.148 0.531,-46.796 10.621,-68.929 32.187,-70.59 121.797,-98.86 200.156,-63.129 15.719,7.172 29.695,16.441 41.892,27.129 29.45,-15.989 63.84,-25.367 100.74,-25.367 2.01,0 3.95,0.218 5.94,0.269 46.89,-54.82 114.98,-89.34 190.81,-89.34 92.14,0 172.88,50.969 217.99,127.418 26.59,-27.597 63.16,-44.668 103.56,-44.668 74.94,0 136.66,58.707 145.81,134.559 1.63,-0.051 3.23,-0.238 4.88,-0.238 81.24,0 147.1,65.859 147.1,147.097 0,81.242 -65.86,147.102 -147.1,147.102" style="fill-opacity: 1; fill-rule: nonzero; stroke: none; fill: url(&quot;#gradient-0-0&quot;);" transform="matrix(0.13333331048488617, 0, 0, -0.13333331048488617, -1.2643439769744873, 667.1264038085938)" clip-path="url(#clipPath1236)"/>
  <path id="path1237" d="m 1776.54,798.801 v 5 c -23.74,0 -46.15,-5.602 -66.14,-15.289 l 2.18,-4.5 4.01,2.988 c -28.17,37.781 -70.11,64.582 -118.5,72.93 l -0.85,-4.93 4.75,1.539 c -24.43,75.441 -95.19,130.012 -178.77,130.02 -35.06,0 -67.78,-9.77 -95.84,-26.457 l 2.55,-4.301 4.64,1.859 c -45.04,112.26 -151.16,191.28 -275.04,191.29 -82.397,0 -157.014,-34.99 -210.936,-91.45 -53.93,-56.45 -87.258,-134.418 -87.254,-220.48 0,-12.622 0.797,-25.02 2.183,-37.2 l 4.969,0.559 0.363,4.992 c -3.589,0.258 -7.32,0.559 -11.253,0.559 -84.004,-0.008 -152.094,-68.098 -152.098,-152.098 0.004,-82.801 66.187,-150 148.519,-151.922 l 0.118,4.988 -4.965,0.582 c -0.629,-5.371 -0.949,-10.769 -0.949,-16.171 0,-18.75 3.847,-37.571 11.984,-55.411 23.656,-51.859 76.984,-81.546 134.477,-81.527 23.933,0 48.632,5.129 72.304,15.918 16.18,7.383 30.571,16.93 43.108,27.922 l -3.29,3.758 -2.39,-4.387 c 30.17,-16.383 65.38,-25.98 103.13,-25.98 2.37,0.007 4.35,0.23 6.06,0.269 l -0.12,5 -3.8,-3.25 c 47.75,-55.84 117.24,-91.09 194.61,-91.09 94.02,0 176.38,52.028 222.3,129.879 l -4.31,2.539 -3.6,-3.469 c 27.45,-28.5 65.34,-46.199 107.16,-46.199 77.66,0.028 141.36,60.778 150.77,138.969 l -4.96,0.59 -0.15,-4.988 c 1.33,-0.043 2.98,-0.243 5.03,-0.25 84,0 152.09,68.097 152.1,152.097 -0.01,84 -68.1,152.102 -152.1,152.102 v -5 -5 c 39.25,0 74.75,-15.903 100.48,-41.621 25.72,-25.731 41.62,-61.231 41.62,-100.481 0,-39.258 -15.9,-74.75 -41.62,-100.48 -25.73,-25.719 -61.23,-41.617 -100.48,-41.617 -1.25,-0.012 -2.8,0.179 -4.74,0.238 l -4.56,0.14 -0.55,-4.539 c -8.88,-73.511 -68.61,-130.179 -140.84,-130.16 -38.97,0.008 -74.23,16.449 -99.96,43.141 l -4.56,4.738 -3.35,-5.672 c -44.3,-75.058 -123.43,-124.957 -213.68,-124.957 -74.29,0 -140.99,33.801 -187.01,87.59 l -1.54,1.801 -2.38,-0.063 c -2.28,-0.058 -4.18,-0.257 -5.82,-0.257 -36.05,0 -69.61,9.16 -98.36,24.769 l -3.06,1.66 -2.62,-2.301 c -11.846,-10.39 -25.412,-19.378 -40.666,-26.339 -22.367,-10.2 -45.649,-15.02 -68.156,-15.02 -54.157,0.027 -103.571,27.82 -125.379,75.668 -7.524,16.52 -11.079,33.883 -11.082,51.27 0,5.011 0.296,10.023 0.878,15.011 l 0.637,5.461 -5.484,0.117 c -76.918,1.793 -138.762,64.59 -138.754,141.934 0,39.25 15.894,74.75 41.621,100.477 25.73,25.722 61.223,41.621 100.477,41.621 3.421,0 6.898,-0.27 10.527,-0.539 l 6.012,-0.442 -0.68,6 c -1.352,11.852 -2.121,23.871 -2.121,36.071 0,83.46 32.305,158.949 84.484,213.58 52.196,54.62 124.176,88.34 203.706,88.35 119.49,0 222.09,-76.24 265.76,-185.009 l 2.18,-5.421 5.02,2.98 c 26.61,15.832 57.54,25.059 90.73,25.059 79.13,0.011 146.12,-51.688 169.26,-123.098 l 0.93,-2.871 2.98,-0.52 c 45.79,-7.898 85.5,-33.25 112.18,-69.039 l 2.47,-3.32 3.72,1.801 c 18.72,9.07 39.61,14.289 61.78,14.289 v 5" style="fill: rgb(255, 255, 255); fill-opacity: 1; fill-rule: nonzero; stroke: none;" transform="matrix(0.13333331048488617, 0, 0, -0.13333331048488617, -1.2643439769744873, 667.1264038085938)"/>
</svg>