<?xml version="1.0" encoding="utf-8"?>
<svg xmlns="http://www.w3.org/2000/svg" viewBox="385.6159 215.4387 188.0732 120.092" width="188.073px" height="120.092px" xmlns:bx="https://boxy-svg.com">
  <defs>
    <linearGradient x1="0" y1="0" x2="1" y2="0" gradientUnits="userSpaceOnUse" gradientTransform="matrix(5454.77,-5501.73,-5501.73,-5454.77,-4.09365,5025.65)" spreadMethod="pad" id="linearGradient1619">
      <stop style="stop-opacity:1;stop-color:#2b7f9d" offset="0" id="stop1617"/>
      <stop style="stop-opacity:1;stop-color:#146d92" offset="0.9358" id="stop1618"/>
      <stop style="stop-opacity:1;stop-color:#146d92" offset="1" id="stop1619"/>
    </linearGradient>
    <clipPath clipPathUnits="userSpaceOnUse" id="clipPath1619">
      <path d="m 3637.04,2486.08 c -54.07,0 -102.98,18.98 -135.34,50.53 -0.34,0.33 -0.68,0.67 -1.01,1 -0.56,0.55 -1.1,1.1 -1.65,1.66 32.36,-31.68 81.37,-50.75 135.56,-50.75 12.75,0 25.77,1.05 38.94,3.25 60.75,10.11 110.74,42.26 139.09,83.77 9.51,9.85 17.99,20.66 25.29,32.24 26.94,-23.52 62.05,-37.64 99.97,-37.64 4.06,0 8.16,0.16 12.28,0.49 51.43,4.12 94.75,33.4 119.07,74.74 16.24,-4.58 33.12,-6.82 50,-6.82 48.74,0 97.53,18.65 131.41,53.66 46.39,47.93 60.97,125 32.37,185.25 -6.96,14.65 -16.45,27.97 -27.76,39.54 0.78,-0.77 1.56,-1.55 2.33,-2.33 11.36,-11.6 20.89,-24.95 27.87,-39.65 28.6,-60.25 14.02,-137.32 -32.36,-185.24 -33.89,-35.02 -82.69,-53.67 -131.42,-53.67 -16.88,0.01 -33.76,2.24 -50,6.81 -24.32,-41.33 -67.64,-70.61 -119.07,-74.73 -4.13,-0.33 -8.21,-0.49 -12.28,-0.49 -37.92,0 -73.03,14.12 -99.97,37.64 -7.3,-11.58 -15.79,-22.39 -25.29,-32.23 -28.35,-41.52 -78.34,-73.67 -139.08,-83.78 -13.17,-2.2 -26.2,-3.25 -38.95,-3.25 m -286.2,56.69 c -22.47,0 -44.96,2.06 -67.03,6.13 -34.38,6.33 -67.91,22.96 -96.7,46.86 -26.8,-22 -60.28,-36.39 -97.46,-39.36 -4.78,-0.39 -9.53,-0.57 -14.24,-0.57 -47.4,0 -91.04,19.01 -122.99,50.28 -0.88,0.86 -1.76,1.74 -2.62,2.62 31.96,-31.38 75.69,-50.47 123.17,-50.47 4.72,0 9.46,0.19 14.24,0.57 37.18,2.98 70.66,17.37 97.46,39.37 28.79,-23.9 62.32,-40.52 96.71,-46.86 22.07,-4.07 44.56,-6.13 67.03,-6.13 43.58,0 87.14,7.73 127.65,23.43 0.54,-0.93 1.09,-1.84 1.64,-2.75 -40.29,-15.49 -83.55,-23.12 -126.86,-23.12 m 766.86,419.19 c -0.83,50.33 -22.59,99.61 -57.81,135.42 0.81,-0.8 1.62,-1.61 2.42,-2.42 34.55,-35.13 56.15,-83.21 57.77,-132.53 -0.8,-0.15 -1.59,-0.3 -2.38,-0.47 m -291.6,168.35 c 0.93,11.99 0.97,24.19 -0.03,36.55 -4.5,56.33 -28.88,106.3 -65.69,143.6 0.91,-0.89 1.8,-1.79 2.69,-2.69 36.68,-37.27 60.95,-87.15 65.45,-143.35 0.87,-11.01 0.95,-21.91 0.3,-32.64 -0.91,-0.48 -1.82,-0.97 -2.72,-1.47" id="path1619" transform="translate(0,2.5e-5)"/>
    </clipPath>
    <linearGradient x1="0" y1="0" x2="1" y2="0" gradientUnits="userSpaceOnUse" gradientTransform="matrix(5454.77,-5501.73,-5501.73,-5454.77,-4.09365,5025.65)" spreadMethod="pad" id="linearGradient1622">
      <stop style="stop-opacity:1;stop-color:#287b99" offset="0" id="stop1620"/>
      <stop style="stop-opacity:1;stop-color:#15688e" offset="0.9358" id="stop1621"/>
      <stop style="stop-opacity:1;stop-color:#15688e" offset="1" id="stop1622"/>
    </linearGradient>
    <clipPath clipPathUnits="userSpaceOnUse" id="clipPath1622">
      <path d="m 3634.6,2488.52 c -54.19,0 -103.2,19.07 -135.56,50.75 -0.26,0.26 -0.52,0.52 -0.79,0.78 -0.81,0.81 -1.61,1.62 -2.41,2.45 -0.78,0.82 -1.56,1.65 -2.32,2.48 -0.76,0.83 -1.51,1.67 -2.25,2.51 -0.73,0.84 -1.46,1.69 -2.17,2.54 -0.71,0.85 -1.4,1.7 -2.09,2.57 -0.68,0.86 -1.35,1.72 -2.01,2.6 -0.66,0.87 -1.3,1.74 -1.94,2.63 -0.63,0.87 -1.25,1.76 -1.86,2.65 -0.6,0.89 -1.2,1.79 -1.78,2.69 -0.59,0.9 -1.16,1.8 -1.72,2.72 -0.55,0.91 -1.1,1.82 -1.64,2.75 -40.51,-15.7 -84.07,-23.43 -127.65,-23.43 -22.47,0 -44.96,2.06 -67.03,6.13 -34.39,6.34 -67.92,22.96 -96.71,46.86 -26.8,-22 -60.28,-36.39 -97.46,-39.37 -4.78,-0.38 -9.52,-0.57 -14.24,-0.57 -47.48,0 -91.21,19.09 -123.17,50.47 -29.2,28.65 -48.6,67.56 -52.12,111.53 -5.58,69.85 30.51,133.27 87.33,166.23 -10.85,18.91 -17.94,40.34 -19.8,63.51 -6.7,83.81 55.81,157.2 139.61,163.91 4.13,0.33 8.23,0.49 12.3,0.49 16.65,0 32.78,-2.72 47.9,-7.75 5.12,37.91 22.82,71.42 52.89,93.28 22.49,16.35 49.04,24.11 76.75,24.11 25.65,0 52.3,-6.65 77.63,-19.3 23.46,93.32 104.13,165.63 205.37,173.73 6.27,0.5 12.48,0.75 18.67,0.75 63.54,0 121.94,-26.09 164.05,-68.76 36.81,-37.3 61.19,-87.27 65.69,-143.6 1,-12.36 0.96,-24.56 0.03,-36.55 0.9,0.5 1.81,0.99 2.72,1.47 0.87,0.46 1.75,0.92 2.63,1.37 0.86,0.44 1.72,0.87 2.58,1.29 0.84,0.41 1.67,0.81 2.52,1.21 0.81,0.38 1.63,0.76 2.45,1.14 0.8,0.36 1.6,0.72 2.41,1.07 0.78,0.34 1.57,0.68 2.35,1.01 0.77,0.33 1.54,0.64 2.31,0.96 0.75,0.3 1.5,0.6 2.26,0.9 0.73,0.29 1.47,0.57 2.21,0.85 0.72,0.27 1.44,0.54 2.17,0.81 0.7,0.25 1.41,0.51 2.12,0.76 0.7,0.24 1.39,0.48 2.09,0.72 0.68,0.23 1.37,0.46 2.06,0.68 0.67,0.22 1.34,0.43 2.01,0.64 0.65,0.21 1.31,0.41 1.97,0.61 0.65,0.2 1.3,0.39 1.94,0.58 0.64,0.18 1.27,0.37 1.91,0.55 0.62,0.17 1.25,0.34 1.87,0.51 0.61,0.17 1.22,0.33 1.83,0.49 0.61,0.15 1.21,0.31 1.81,0.46 0.59,0.14 1.18,0.29 1.77,0.43 0.58,0.14 1.16,0.28 1.74,0.41 0.57,0.13 1.13,0.26 1.7,0.39 0.56,0.12 1.12,0.24 1.68,0.36 0.54,0.12 1.09,0.23 1.64,0.34 0.54,0.11 1.07,0.22 1.61,0.32 0.52,0.11 1.05,0.21 1.57,0.31 0.52,0.09 1.03,0.19 1.55,0.28 0.5,0.09 1.01,0.18 1.52,0.27 0.49,0.08 0.98,0.16 1.48,0.24 0.48,0.08 0.96,0.16 1.44,0.24 0.48,0.07 0.95,0.14 1.42,0.21 0.47,0.07 0.93,0.14 1.39,0.21 0.45,0.06 0.91,0.12 1.36,0.18 0.44,0.06 0.87,0.12 1.32,0.18 0.42,0.05 0.85,0.11 1.28,0.16 0.42,0.05 0.84,0.1 1.26,0.15 0.41,0.05 0.81,0.09 1.22,0.14 0.39,0.04 0.79,0.08 1.19,0.12 0.38,0.04 0.76,0.08 1.15,0.12 6.67,0.66 13.37,0.99 20.08,0.99 33.01,0 66.02,-7.97 94.91,-24 15.96,-8.85 30.51,-20.07 43.29,-33.06 35.22,-35.81 56.98,-85.09 57.81,-135.42 0.79,0.17 1.58,0.32 2.38,0.47 0.77,0.14 1.54,0.28 2.31,0.41 0.76,0.12 1.53,0.25 2.29,0.36 0.75,0.11 1.49,0.22 2.24,0.32 0.74,0.09 1.47,0.18 2.21,0.27 0.72,0.08 1.45,0.16 2.17,0.23 0.71,0.07 1.42,0.14 2.13,0.19 0.7,0.06 1.41,0.11 2.11,0.16 0.69,0.05 1.38,0.09 2.07,0.12 0.68,0.04 1.36,0.07 2.05,0.09 0.66,0.03 1.33,0.05 2,0.06 0.66,0.02 1.32,0.03 1.99,0.03 0.34,0 0.68,0 1.03,0 0.31,0 0.61,0 0.92,0 0.65,0 1.3,-0.01 1.94,-0.02 0.63,-0.02 1.26,-0.03 1.9,-0.06 0.62,-0.02 1.25,-0.04 1.87,-0.07 0.62,-0.03 1.24,-0.07 1.86,-0.1 0.61,-0.04 1.21,-0.08 1.83,-0.13 0.59,-0.04 1.2,-0.09 1.8,-0.14 0.59,-0.05 1.18,-0.11 1.77,-0.16 0.59,-0.06 1.17,-0.12 1.76,-0.19 0.58,-0.06 1.16,-0.13 1.74,-0.2 0.57,-0.07 1.13,-0.14 1.7,-0.22 0.56,-0.08 1.13,-0.16 1.69,-0.24 0.55,-0.08 1.11,-0.17 1.66,-0.25 0.55,-0.09 1.1,-0.18 1.64,-0.27 0.54,-0.1 1.09,-0.19 1.62,-0.29 0.53,-0.1 1.06,-0.19 1.59,-0.3 0.53,-0.1 1.05,-0.2 1.58,-0.31 0.52,-0.11 1.03,-0.21 1.55,-0.33 0.51,-0.1 1.02,-0.22 1.53,-0.33 0.5,-0.11 0.99,-0.23 1.49,-0.35 0.5,-0.12 0.99,-0.23 1.49,-0.36 0.48,-0.12 0.97,-0.24 1.45,-0.36 0.48,-0.13 0.96,-0.25 1.44,-0.38 0.46,-0.13 0.93,-0.25 1.4,-0.38 0.46,-0.13 0.92,-0.26 1.38,-0.39 0.45,-0.13 0.91,-0.27 1.36,-0.4 0.44,-0.14 0.88,-0.27 1.33,-0.4 0.42,-0.14 0.86,-0.27 1.29,-0.41 0.42,-0.13 0.85,-0.27 1.27,-0.41 24.3,-7.94 46.81,-21.89 64.73,-40.22 11.31,-11.57 20.8,-24.89 27.76,-39.54 28.6,-60.25 14.02,-137.32 -32.37,-185.25 -33.88,-35.01 -82.67,-53.66 -131.41,-53.66 -16.88,0 -33.76,2.24 -50,6.82 -24.32,-41.34 -67.64,-70.62 -119.07,-74.74 -4.12,-0.33 -8.22,-0.49 -12.28,-0.49 -37.92,0 -73.03,14.12 -99.97,37.64 -7.3,-11.58 -15.78,-22.39 -25.29,-32.24 -28.35,-41.51 -78.34,-73.66 -139.09,-83.77 -13.17,-2.2 -26.19,-3.25 -38.94,-3.25" id="path1622" transform="translate(0,2.5e-5)"/>
    </clipPath>
    <clipPath clipPathUnits="userSpaceOnUse" id="clipPath1625">
      <path d="m 4283.02,2877.46 c -28.62,60.25 -99.98,97.92 -165.31,84.5 -1.15,68.58 -41.13,135.21 -101.11,168.48 -57.99,32.17 -132.49,31.86 -190.5,-0.13 0.93,11.98 0.97,24.19 -0.03,36.56 -10.16,127.03 -121.38,221.77 -248.41,211.6 -101.24,-8.1 -181.91,-80.41 -205.37,-173.73 -52.68,26.3 -111.07,26.68 -154.38,-4.81 -30.07,-21.86 -47.77,-55.37 -52.89,-93.28 -18.82,6.26 -39.18,8.94 -60.2,7.26 -83.8,-6.71 -146.31,-80.1 -139.61,-163.91 1.86,-23.17 8.95,-44.6 19.8,-63.51 -56.82,-32.96 -92.91,-96.38 -87.32,-166.23 7.75,-96.91 92.6,-169.18 189.52,-161.43 37.17,2.98 70.66,17.37 97.46,39.37 28.79,-23.9 62.32,-40.52 96.71,-46.86 64.9,-11.97 133.28,-6.5 194.68,17.3 33.58,-57.9 112.67,-90.99 197.48,-76.87 60.75,10.11 110.74,42.26 139.09,83.77 9.51,9.85 17.99,20.66 25.29,32.24 29.82,-26.04 69.66,-40.56 112.25,-37.15 51.43,4.12 94.75,33.4 119.07,74.74 63.13,-17.78 135.79,-0.29 181.41,46.84 46.39,47.93 60.97,125 32.37,185.25 z" id="path1625" transform="translate(0,2.5e-5)"/>
    </clipPath>
    <linearGradient id="gradient-0" bx:pinned="true">
      <stop style="stop-color: rgb(255, 255, 255);" offset="0"/>
      <stop style="stop-color: rgb(206, 221, 239);" offset="0.9992"/>
      <stop style="stop-color: rgb(206, 221, 239);" offset="1"/>
    </linearGradient>
    <radialGradient id="gradient-0-0" href="#gradient-0" gradientUnits="userSpaceOnUse" cx="3597.396" cy="2933.871" r="700.275"/>
  </defs>
  <path id="path1617" d="m 3637.04,2486.08 c -54.07,0 -102.98,18.98 -135.34,50.53 -0.34,0.33 -0.68,0.67 -1.01,1 -0.56,0.55 -1.1,1.1 -1.65,1.66 32.36,-31.68 81.37,-50.75 135.56,-50.75 12.75,0 25.77,1.05 38.94,3.25 60.75,10.11 110.74,42.26 139.09,83.77 9.51,9.85 17.99,20.66 25.29,32.24 26.94,-23.52 62.05,-37.64 99.97,-37.64 4.06,0 8.16,0.16 12.28,0.49 51.43,4.12 94.75,33.4 119.07,74.74 16.24,-4.58 33.12,-6.82 50,-6.82 48.74,0 97.53,18.65 131.41,53.66 46.39,47.93 60.97,125 32.37,185.25 -6.96,14.65 -16.45,27.97 -27.76,39.54 0.78,-0.77 1.56,-1.55 2.33,-2.33 11.36,-11.6 20.89,-24.95 27.87,-39.65 28.6,-60.25 14.02,-137.32 -32.36,-185.24 -33.89,-35.02 -82.69,-53.67 -131.42,-53.67 -16.88,0.01 -33.76,2.24 -50,6.81 -24.32,-41.33 -67.64,-70.61 -119.07,-74.73 -4.13,-0.33 -8.21,-0.49 -12.28,-0.49 -37.92,0 -73.03,14.12 -99.97,37.64 -7.3,-11.58 -15.79,-22.39 -25.29,-32.23 -28.35,-41.52 -78.34,-73.67 -139.08,-83.78 -13.17,-2.2 -26.2,-3.25 -38.95,-3.25 m -286.2,56.69 c -22.47,0 -44.96,2.06 -67.03,6.13 -34.38,6.33 -67.91,22.96 -96.7,46.86 -26.8,-22 -60.28,-36.39 -97.46,-39.36 -4.78,-0.39 -9.53,-0.57 -14.24,-0.57 -47.4,0 -91.04,19.01 -122.99,50.28 -0.88,0.86 -1.76,1.74 -2.62,2.62 31.96,-31.38 75.69,-50.47 123.17,-50.47 4.72,0 9.46,0.19 14.24,0.57 37.18,2.98 70.66,17.37 97.46,39.37 28.79,-23.9 62.32,-40.52 96.71,-46.86 22.07,-4.07 44.56,-6.13 67.03,-6.13 43.58,0 87.14,7.73 127.65,23.43 0.54,-0.93 1.09,-1.84 1.64,-2.75 -40.29,-15.49 -83.55,-23.12 -126.86,-23.12 m 766.86,419.19 c -0.83,50.33 -22.59,99.61 -57.81,135.42 0.81,-0.8 1.62,-1.61 2.42,-2.42 34.55,-35.13 56.15,-83.21 57.77,-132.53 -0.8,-0.15 -1.59,-0.3 -2.38,-0.47 m -291.6,168.35 c 0.93,11.99 0.97,24.19 -0.03,36.55 -4.5,56.33 -28.88,106.3 -65.69,143.6 0.91,-0.89 1.8,-1.79 2.69,-2.69 36.68,-37.27 60.95,-87.15 65.45,-143.35 0.87,-11.01 0.95,-21.91 0.3,-32.64 -0.91,-0.48 -1.82,-0.97 -2.72,-1.47" style="fill: url(&quot;#linearGradient1619&quot;); fill-opacity: 1; fill-rule: nonzero; stroke: none;" clip-path="url(#clipPath1619)" transform="matrix(0.13333331048488617, 0, 0, -0.13333331048488617, 0, 666.6666870117188)"/>
  <path id="path1620" d="m 3634.6,2488.52 c -54.19,0 -103.2,19.07 -135.56,50.75 -0.26,0.26 -0.52,0.52 -0.79,0.78 -0.81,0.81 -1.61,1.62 -2.41,2.45 -0.78,0.82 -1.56,1.65 -2.32,2.48 -0.76,0.83 -1.51,1.67 -2.25,2.51 -0.73,0.84 -1.46,1.69 -2.17,2.54 -0.71,0.85 -1.4,1.7 -2.09,2.57 -0.68,0.86 -1.35,1.72 -2.01,2.6 -0.66,0.87 -1.3,1.74 -1.94,2.63 -0.63,0.87 -1.25,1.76 -1.86,2.65 -0.6,0.89 -1.2,1.79 -1.78,2.69 -0.59,0.9 -1.16,1.8 -1.72,2.72 -0.55,0.91 -1.1,1.82 -1.64,2.75 -40.51,-15.7 -84.07,-23.43 -127.65,-23.43 -22.47,0 -44.96,2.06 -67.03,6.13 -34.39,6.34 -67.92,22.96 -96.71,46.86 -26.8,-22 -60.28,-36.39 -97.46,-39.37 -4.78,-0.38 -9.52,-0.57 -14.24,-0.57 -47.48,0 -91.21,19.09 -123.17,50.47 -29.2,28.65 -48.6,67.56 -52.12,111.53 -5.58,69.85 30.51,133.27 87.33,166.23 -10.85,18.91 -17.94,40.34 -19.8,63.51 -6.7,83.81 55.81,157.2 139.61,163.91 4.13,0.33 8.23,0.49 12.3,0.49 16.65,0 32.78,-2.72 47.9,-7.75 5.12,37.91 22.82,71.42 52.89,93.28 22.49,16.35 49.04,24.11 76.75,24.11 25.65,0 52.3,-6.65 77.63,-19.3 23.46,93.32 104.13,165.63 205.37,173.73 6.27,0.5 12.48,0.75 18.67,0.75 63.54,0 121.94,-26.09 164.05,-68.76 36.81,-37.3 61.19,-87.27 65.69,-143.6 1,-12.36 0.96,-24.56 0.03,-36.55 0.9,0.5 1.81,0.99 2.72,1.47 0.87,0.46 1.75,0.92 2.63,1.37 0.86,0.44 1.72,0.87 2.58,1.29 0.84,0.41 1.67,0.81 2.52,1.21 0.81,0.38 1.63,0.76 2.45,1.14 0.8,0.36 1.6,0.72 2.41,1.07 0.78,0.34 1.57,0.68 2.35,1.01 0.77,0.33 1.54,0.64 2.31,0.96 0.75,0.3 1.5,0.6 2.26,0.9 0.73,0.29 1.47,0.57 2.21,0.85 0.72,0.27 1.44,0.54 2.17,0.81 0.7,0.25 1.41,0.51 2.12,0.76 0.7,0.24 1.39,0.48 2.09,0.72 0.68,0.23 1.37,0.46 2.06,0.68 0.67,0.22 1.34,0.43 2.01,0.64 0.65,0.21 1.31,0.41 1.97,0.61 0.65,0.2 1.3,0.39 1.94,0.58 0.64,0.18 1.27,0.37 1.91,0.55 0.62,0.17 1.25,0.34 1.87,0.51 0.61,0.17 1.22,0.33 1.83,0.49 0.61,0.15 1.21,0.31 1.81,0.46 0.59,0.14 1.18,0.29 1.77,0.43 0.58,0.14 1.16,0.28 1.74,0.41 0.57,0.13 1.13,0.26 1.7,0.39 0.56,0.12 1.12,0.24 1.68,0.36 0.54,0.12 1.09,0.23 1.64,0.34 0.54,0.11 1.07,0.22 1.61,0.32 0.52,0.11 1.05,0.21 1.57,0.31 0.52,0.09 1.03,0.19 1.55,0.28 0.5,0.09 1.01,0.18 1.52,0.27 0.49,0.08 0.98,0.16 1.48,0.24 0.48,0.08 0.96,0.16 1.44,0.24 0.48,0.07 0.95,0.14 1.42,0.21 0.47,0.07 0.93,0.14 1.39,0.21 0.45,0.06 0.91,0.12 1.36,0.18 0.44,0.06 0.87,0.12 1.32,0.18 0.42,0.05 0.85,0.11 1.28,0.16 0.42,0.05 0.84,0.1 1.26,0.15 0.41,0.05 0.81,0.09 1.22,0.14 0.39,0.04 0.79,0.08 1.19,0.12 0.38,0.04 0.76,0.08 1.15,0.12 6.67,0.66 13.37,0.99 20.08,0.99 33.01,0 66.02,-7.97 94.91,-24 15.96,-8.85 30.51,-20.07 43.29,-33.06 35.22,-35.81 56.98,-85.09 57.81,-135.42 0.79,0.17 1.58,0.32 2.38,0.47 0.77,0.14 1.54,0.28 2.31,0.41 0.76,0.12 1.53,0.25 2.29,0.36 0.75,0.11 1.49,0.22 2.24,0.32 0.74,0.09 1.47,0.18 2.21,0.27 0.72,0.08 1.45,0.16 2.17,0.23 0.71,0.07 1.42,0.14 2.13,0.19 0.7,0.06 1.41,0.11 2.11,0.16 0.69,0.05 1.38,0.09 2.07,0.12 0.68,0.04 1.36,0.07 2.05,0.09 0.66,0.03 1.33,0.05 2,0.06 0.66,0.02 1.32,0.03 1.99,0.03 0.34,0 0.68,0 1.03,0 0.31,0 0.61,0 0.92,0 0.65,0 1.3,-0.01 1.94,-0.02 0.63,-0.02 1.26,-0.03 1.9,-0.06 0.62,-0.02 1.25,-0.04 1.87,-0.07 0.62,-0.03 1.24,-0.07 1.86,-0.1 0.61,-0.04 1.21,-0.08 1.83,-0.13 0.59,-0.04 1.2,-0.09 1.8,-0.14 0.59,-0.05 1.18,-0.11 1.77,-0.16 0.59,-0.06 1.17,-0.12 1.76,-0.19 0.58,-0.06 1.16,-0.13 1.74,-0.2 0.57,-0.07 1.13,-0.14 1.7,-0.22 0.56,-0.08 1.13,-0.16 1.69,-0.24 0.55,-0.08 1.11,-0.17 1.66,-0.25 0.55,-0.09 1.1,-0.18 1.64,-0.27 0.54,-0.1 1.09,-0.19 1.62,-0.29 0.53,-0.1 1.06,-0.19 1.59,-0.3 0.53,-0.1 1.05,-0.2 1.58,-0.31 0.52,-0.11 1.03,-0.21 1.55,-0.33 0.51,-0.1 1.02,-0.22 1.53,-0.33 0.5,-0.11 0.99,-0.23 1.49,-0.35 0.5,-0.12 0.99,-0.23 1.49,-0.36 0.48,-0.12 0.97,-0.24 1.45,-0.36 0.48,-0.13 0.96,-0.25 1.44,-0.38 0.46,-0.13 0.93,-0.25 1.4,-0.38 0.46,-0.13 0.92,-0.26 1.38,-0.39 0.45,-0.13 0.91,-0.27 1.36,-0.4 0.44,-0.14 0.88,-0.27 1.33,-0.4 0.42,-0.14 0.86,-0.27 1.29,-0.41 0.42,-0.13 0.85,-0.27 1.27,-0.41 24.3,-7.94 46.81,-21.89 64.73,-40.22 11.31,-11.57 20.8,-24.89 27.76,-39.54 28.6,-60.25 14.02,-137.32 -32.37,-185.25 -33.88,-35.01 -82.67,-53.66 -131.41,-53.66 -16.88,0 -33.76,2.24 -50,6.82 -24.32,-41.34 -67.64,-70.62 -119.07,-74.74 -4.12,-0.33 -8.22,-0.49 -12.28,-0.49 -37.92,0 -73.03,14.12 -99.97,37.64 -7.3,-11.58 -15.78,-22.39 -25.29,-32.24 -28.35,-41.51 -78.34,-73.66 -139.09,-83.77 -13.17,-2.2 -26.19,-3.25 -38.94,-3.25" style="fill: url(&quot;#linearGradient1622&quot;); fill-opacity: 1; fill-rule: nonzero; stroke: none;" clip-path="url(#clipPath1622)" transform="matrix(0.13333331048488617, 0, 0, -0.13333331048488617, 0, 666.6666870117188)"/>
  <path id="path1623" d="m 4283.02,2877.46 c -28.62,60.25 -99.98,97.92 -165.31,84.5 -1.15,68.58 -41.13,135.21 -101.11,168.48 -57.99,32.17 -132.49,31.86 -190.5,-0.13 0.93,11.98 0.97,24.19 -0.03,36.56 -10.16,127.03 -121.38,221.77 -248.41,211.6 -101.24,-8.1 -181.91,-80.41 -205.37,-173.73 -52.68,26.3 -111.07,26.68 -154.38,-4.81 -30.07,-21.86 -47.77,-55.37 -52.89,-93.28 -18.82,6.26 -39.18,8.94 -60.2,7.26 -83.8,-6.71 -146.31,-80.1 -139.61,-163.91 1.86,-23.17 8.95,-44.6 19.8,-63.51 -56.82,-32.96 -92.91,-96.38 -87.32,-166.23 7.75,-96.91 92.6,-169.18 189.52,-161.43 37.17,2.98 70.66,17.37 97.46,39.37 28.79,-23.9 62.32,-40.52 96.71,-46.86 64.9,-11.97 133.28,-6.5 194.68,17.3 33.58,-57.9 112.67,-90.99 197.48,-76.87 60.75,10.11 110.74,42.26 139.09,83.77 9.51,9.85 17.99,20.66 25.29,32.24 29.82,-26.04 69.66,-40.56 112.25,-37.15 51.43,4.12 94.75,33.4 119.07,74.74 63.13,-17.78 135.79,-0.29 181.41,46.84 46.39,47.93 60.97,125 32.37,185.25" style="fill-opacity: 1; fill-rule: nonzero; stroke: none; fill: url(&quot;#gradient-0-0&quot;);" clip-path="url(#clipPath1625)" transform="matrix(0.13333331048488617, 0, 0, -0.13333331048488617, 0, 666.6666870117188)"/>
  <path id="path1626" d="m 4283.02,2877.46 4.51,2.15 c -25.66,53.87 -83.76,90 -142.85,90.06 -9.35,0 -18.72,-0.91 -27.98,-2.81 l 1.01,-4.9 4.99,0.09 c -1.22,70.46 -42.07,138.53 -103.67,172.76 -29.7,16.47 -63.52,24.62 -97.34,24.63 -34.04,-0.01 -68.11,-8.27 -98,-24.75 l 2.41,-4.38 4.99,-0.38 c 0.47,6.13 0.72,12.32 0.72,18.56 0,6.21 -0.25,12.47 -0.75,18.78 -9.88,123.38 -113.05,216.94 -234.74,216.94 -6.31,0.01 -12.67,-0.25 -19.06,-0.76 -103.44,-8.28 -185.85,-82.14 -209.82,-177.49 l 4.85,-1.22 2.23,4.47 c -25.95,12.96 -53.34,19.83 -79.86,19.83 -28.63,0.01 -56.29,-8.04 -79.69,-25.06 -31.31,-22.76 -49.66,-57.65 -54.91,-96.67 l 4.96,-0.66 1.58,4.74 c -15.62,5.2 -32.28,8.01 -49.48,8.01 -4.2,0 -8.44,-0.17 -12.7,-0.51 -82.29,-6.59 -144.7,-75.4 -144.7,-156.58 0,-4.2 0.17,-8.44 0.51,-12.71 1.92,-23.94 9.25,-46.1 20.44,-65.59 l 4.34,2.48 -2.51,4.33 c -54.44,-31.59 -90.38,-90.36 -90.38,-156.37 0,-4.82 0.19,-9.69 0.58,-14.59 7.59,-94.75 86.82,-166.59 180.27,-166.6 4.85,0 9.73,0.2 14.64,0.59 38.22,3.06 72.69,17.87 100.23,40.48 l -3.17,3.87 -3.2,-3.85 c 29.38,-24.38 63.65,-41.41 99,-47.93 22.38,-4.13 45.16,-6.21 67.94,-6.21 44.17,0 88.33,7.83 129.46,23.77 l -1.81,4.66 -4.32,-2.51 c 29.53,-50.81 92.07,-82.59 162.86,-82.61 13.02,0 26.32,1.08 39.77,3.32 61.99,10.33 113.16,43.12 142.39,85.88 l -4.13,2.82 3.59,-3.47 c 9.75,10.09 18.44,21.17 25.93,33.05 l -4.23,2.66 -3.29,-3.76 c 27.81,-24.29 64.08,-38.88 103.26,-38.88 4.19,0 8.42,0.17 12.67,0.51 53.12,4.25 97.89,34.5 122.99,77.18 l -4.31,2.54 -1.36,-4.82 c 16.71,-4.7 34.04,-7 51.36,-7 49.99,0.02 100.04,19.09 135.01,55.18 31.26,32.33 48.4,77.22 48.42,121.84 0,23.73 -4.87,47.4 -15.14,69.04 l -4.51,-2.15 -4.52,-2.14 c 9.58,-20.19 14.17,-42.39 14.17,-64.75 0.01,-42.07 -16.29,-84.62 -45.61,-114.88 -32.81,-33.92 -80.35,-52.15 -127.82,-52.14 -16.44,0 -32.86,2.19 -48.65,6.63 l -3.71,1.04 -1.95,-3.32 c -23.54,-40 -65.41,-68.3 -115.16,-72.29 -3.99,-0.31 -7.95,-0.47 -11.88,-0.47 -36.68,0 -70.61,13.65 -96.68,36.41 l -4.4,3.84 -3.12,-4.94 c -7.12,-11.3 -15.39,-21.83 -24.66,-31.43 l -0.29,-0.31 -0.24,-0.35 c -27.47,-40.25 -76.29,-71.76 -135.78,-81.66 -12.9,-2.15 -25.65,-3.18 -38.12,-3.18 -67.88,-0.02 -127.02,30.62 -154.21,77.63 l -2.15,3.7 -3.98,-1.55 c -39.91,-15.46 -82.86,-23.09 -125.85,-23.09 -22.17,0 -44.35,2.03 -66.13,6.05 -33.42,6.15 -66.22,22.37 -94.42,45.79 l -3.17,2.63 -3.19,-2.62 c -26.05,-21.38 -58.56,-35.35 -94.69,-38.24 -4.65,-0.37 -9.26,-0.56 -13.84,-0.56 -88.26,0 -163.15,67.89 -170.3,157.4 -0.37,4.63 -0.55,9.23 -0.55,13.79 -0.01,62.32 33.95,117.86 85.4,147.72 l 4.3,2.5 -2.47,4.31 c -10.51,18.31 -17.36,39.02 -19.15,61.42 -0.32,4 -0.48,7.97 -0.48,11.91 0,75.98 58.44,140.46 135.5,146.61 4,0.32 7.97,0.48 11.9,0.48 16.11,0 31.7,-2.63 46.32,-7.5 l 5.73,-1.91 0.8,5.99 c 4.99,36.81 22.06,68.94 50.88,89.91 21.58,15.68 47.02,23.14 73.81,23.15 24.79,0 50.69,-6.44 75.39,-18.77 l 5.57,-2.78 1.51,6.03 c 22.97,91.29 101.88,162.05 200.92,169.96 6.14,0.49 12.23,0.73 18.27,0.74 116.49,0 215.32,-89.6 224.77,-207.75 0.49,-6.04 0.72,-12.03 0.72,-17.98 0,-5.98 -0.24,-11.91 -0.69,-17.79 l -0.72,-9.24 8.12,4.47 c 28.31,15.62 60.74,23.51 93.17,23.51 32.21,0 64.39,-7.78 92.49,-23.37 58.35,-32.32 97.46,-97.49 98.53,-164.19 l 0.1,-6.03 5.9,1.22 c 8.58,1.76 17.27,2.6 25.97,2.6 55,0.07 110.07,-34.18 133.82,-84.35 l 4.52,2.14" style="fill: rgb(255, 255, 255); fill-opacity: 1; fill-rule: nonzero; stroke: none;" transform="matrix(0.13333331048488617, 0, 0, -0.13333331048488617, 0, 666.6666870117188)"/>
</svg>