<?xml version="1.0" encoding="utf-8"?>
<svg xmlns="http://www.w3.org/2000/svg" viewBox="63.974 42.2387 209.938 142.048" width="209.938px" height="142.048px" xmlns:bx="https://boxy-svg.com">
  <defs>
    <linearGradient x1="0" y1="0" x2="1" y2="0" gradientUnits="userSpaceOnUse" gradientTransform="matrix(5454.77,-5501.73,-5501.73,-5454.77,-4.09365,5025.65)" spreadMethod="pad" id="linearGradient127">
      <stop style="stop-opacity:1;stop-color:#2b7f9d" offset="0" id="stop125"/>
      <stop style="stop-opacity:1;stop-color:#146d92" offset="0.9358" id="stop126"/>
      <stop style="stop-opacity:1;stop-color:#146d92" offset="1" id="stop127"/>
    </linearGradient>
    <clipPath clipPathUnits="userSpaceOnUse" id="clipPath127">
      <path d="m 1014.93,3620.41 c -78.762,0 -150.317,32.17 -203.364,84.66 -0.765,0.76 -1.535,1.53 -2.293,2.3 53.028,-52.4 124.528,-84.52 203.217,-84.52 106.83,0 200.44,59.22 252.55,148 0.73,-0.94 1.47,-1.87 2.23,-2.79 -52.16,-88.58 -145.65,-147.65 -252.34,-147.65 m 624.88,46.29 c -61.94,0 -118.04,24.86 -158.96,65.11 -0.69,0.68 -1.38,1.36 -2.06,2.05 -0.21,0.21 -0.42,0.42 -0.63,0.63 40.95,-40.39 97.15,-65.35 159.22,-65.35 125.26,0 226.8,101.54 226.8,226.81 0,24.34 -3.87,47.77 -10.97,69.75 2.13,-0.07 4.21,-0.32 6.35,-0.32 104.81,0 189.78,84.97 189.78,189.78 0,51.79 -20.74,98.73 -54.37,132.97 0.82,-0.81 1.63,-1.61 2.43,-2.43 33.63,-34.25 54.38,-81.19 54.38,-132.98 0,-104.81 -84.97,-189.78 -189.78,-189.78 -2.15,0 -4.23,0.25 -6.35,0.32 7.1,-21.98 10.98,-45.41 10.98,-69.75 0,-125.27 -101.55,-226.81 -226.82,-226.81 m -259.21,46.28 c -38.98,0 -74.25,15.61 -100.08,40.85 -0.48,0.46 -0.95,0.93 -1.42,1.41 -0.33,0.32 -0.65,0.65 -0.97,0.98 25.83,-25.21 61.08,-40.79 100.03,-40.79 33.57,0 64.37,11.61 88.81,30.92 0.76,-0.86 1.52,-1.71 2.29,-2.56 -24.42,-19.24 -55.16,-30.81 -88.66,-30.81 M 658.508,3875 c -46.676,0 -88.985,18.66 -119.879,48.94 -0.816,0.8 -1.637,1.62 -2.438,2.44 30.891,-30.28 73.2,-48.95 119.879,-48.95 22.313,0 43.571,4.4 63.118,12.17 0.144,-1.08 0.292,-2.15 0.449,-3.22 -19,-7.28 -39.571,-11.38 -61.129,-11.38 m 1112.802,448.1 c -1.53,48.22 -21.45,91.79 -52.98,123.9 0.84,-0.82 1.68,-1.66 2.5,-2.51 30.71,-31.29 50.38,-73.46 52.77,-120.2 -0.77,-0.4 -1.53,-0.79 -2.29,-1.19 m -270.83,157.97 c -13.23,43.71 -36.94,82.86 -68.2,114.53 0.77,-0.77 1.55,-1.54 2.31,-2.31 30.57,-30.93 53.92,-68.99 67.34,-111.47 -0.48,-0.25 -0.96,-0.5 -1.45,-0.75" id="path127" transform="translate(0,2.5e-5)"/>
    </clipPath>
    <linearGradient x1="0" y1="0" x2="1" y2="0" gradientUnits="userSpaceOnUse" gradientTransform="matrix(5454.77,-5501.73,-5501.73,-5454.77,-4.09365,5025.65)" spreadMethod="pad" id="linearGradient130">
      <stop style="stop-opacity:1;stop-color:#287b99" offset="0" id="stop128"/>
      <stop style="stop-opacity:1;stop-color:#15688e" offset="0.9358" id="stop129"/>
      <stop style="stop-opacity:1;stop-color:#15688e" offset="1" id="stop130"/>
    </linearGradient>
    <clipPath clipPathUnits="userSpaceOnUse" id="clipPath130">
      <path d="m 1012.49,3622.85 c -78.689,0 -150.189,32.12 -203.217,84.52 -20.738,20.48 -38.652,44.08 -53.066,70.06 -0.453,0.82 -0.894,1.63 -1.34,2.45 -0.441,0.81 -0.883,1.63 -1.316,2.45 -0.438,0.81 -0.867,1.63 -1.297,2.46 -0.422,0.81 -0.852,1.64 -1.27,2.46 -0.421,0.83 -0.832,1.65 -1.246,2.48 -0.41,0.82 -0.82,1.65 -1.222,2.48 -0.407,0.83 -0.809,1.67 -1.203,2.5 -0.399,0.83 -0.793,1.67 -1.18,2.5 -0.391,0.84 -0.778,1.68 -1.16,2.52 -0.383,0.84 -0.762,1.68 -1.137,2.53 -0.375,0.84 -0.746,1.69 -1.117,2.54 -0.367,0.85 -0.731,1.7 -1.094,2.55 -0.359,0.85 -0.719,1.71 -1.074,2.57 -0.352,0.85 -0.703,1.71 -1.051,2.57 -0.348,0.86 -0.691,1.73 -1.031,2.6 -0.34,0.86 -0.676,1.73 -1.008,2.6 -0.336,0.87 -0.668,1.75 -0.992,2.62 -0.328,0.89 -0.649,1.75 -0.969,2.64 -0.32,0.88 -0.637,1.76 -0.949,2.65 -0.313,0.88 -0.625,1.79 -0.93,2.67 -0.308,0.9 -0.605,1.79 -0.906,2.69 -0.297,0.9 -0.594,1.81 -0.887,2.71 -0.293,0.91 -0.578,1.81 -0.863,2.72 -0.285,0.91 -0.57,1.84 -0.844,2.74 -0.281,0.93 -0.555,1.84 -0.824,2.77 -0.274,0.92 -0.543,1.86 -0.805,2.78 -0.265,0.95 -0.523,1.87 -0.781,2.81 -0.254,0.94 -0.512,1.89 -0.758,2.83 -0.25,0.95 -0.496,1.9 -0.738,2.86 -0.242,0.96 -0.481,1.9 -0.715,2.87 -0.234,0.96 -0.469,1.94 -0.691,2.9 -0.231,0.97 -0.454,1.96 -0.672,2.93 -0.223,0.99 -0.438,1.96 -0.649,2.96 -0.211,0.99 -0.422,1.98 -0.625,2.98 -0.203,1 -0.406,2.01 -0.597,3.01 -0.2,1.02 -0.391,2.02 -0.578,3.05 -0.188,1.02 -0.372,2.04 -0.551,3.07 -0.18,1.04 -0.356,2.07 -0.528,3.11 -0.171,1.05 -0.336,2.09 -0.5,3.14 -0.16,1.05 -0.32,2.12 -0.472,3.18 -0.157,1.07 -0.305,2.14 -0.449,3.22 -19.547,-7.77 -40.805,-12.17 -63.118,-12.17 -46.679,0 -88.988,18.67 -119.879,48.95 -31.711,31.09 -51.386,74.41 -51.386,122.32 0,94.59 76.675,171.26 171.265,171.26 13.379,0 26.336,-1.68 38.832,-4.59 -15.769,27.25 -24.945,58.8 -24.945,92.54 0,102.26 82.895,185.15 185.148,185.15 40.301,0 77.481,-13.02 107.879,-34.88 26.563,125.69 138.086,220.03 271.686,220.03 77.33,0 147.26,-31.61 197.61,-82.61 31.26,-31.67 54.97,-70.82 68.2,-114.53 0.49,0.25 0.97,0.5 1.45,0.75 0.48,0.25 0.95,0.49 1.42,0.73 0.46,0.23 0.93,0.46 1.39,0.69 0.45,0.22 0.9,0.44 1.36,0.66 0.44,0.21 0.88,0.42 1.32,0.64 0.43,0.2 0.86,0.4 1.29,0.6 0.42,0.2 0.84,0.39 1.26,0.58 0.41,0.19 0.82,0.37 1.24,0.56 0.4,0.18 0.79,0.35 1.19,0.53 0.39,0.17 0.79,0.34 1.18,0.51 0.37,0.16 0.75,0.32 1.13,0.48 0.37,0.16 0.74,0.31 1.11,0.47 0.36,0.14 0.72,0.29 1.08,0.44 0.35,0.14 0.7,0.28 1.05,0.42 0.34,0.14 0.67,0.27 1.01,0.41 0.33,0.12 0.66,0.25 0.99,0.38 0.32,0.12 0.63,0.24 0.95,0.37 0.31,0.11 0.61,0.23 0.92,0.34 0.3,0.12 0.59,0.23 0.89,0.33 0.29,0.11 0.57,0.21 0.86,0.32 0.27,0.1 0.55,0.2 0.82,0.29 0.26,0.1 0.53,0.19 0.79,0.29 0.26,0.09 0.51,0.17 0.76,0.26 0.24,0.08 0.48,0.17 0.73,0.25 0.23,0.08 0.46,0.16 0.69,0.24 0.22,0.07 0.43,0.14 0.65,0.22 0.21,0.06 0.42,0.13 0.63,0.21 0.19,0.06 0.39,0.12 0.58,0.19 0.19,0.06 0.37,0.12 0.55,0.18 0.17,0.05 0.35,0.11 0.52,0.16 0.16,0.05 0.31,0.1 0.47,0.15 0.15,0.05 0.3,0.1 0.44,0.14 0.14,0.04 0.27,0.09 0.4,0.12 0.12,0.04 0.24,0.08 0.36,0.12 0.11,0.03 0.22,0.06 0.32,0.1 0.1,0.03 0.19,0.05 0.29,0.09 0.08,0.02 0.16,0.04 0.24,0.07 0.06,0.02 0.13,0.04 0.2,0.06 0.05,0.01 0.1,0.03 0.15,0.04 0.04,0.02 0.07,0.02 0.11,0.04 0.02,0 0.05,0.01 0.07,0.02 16.82,5.06 34.65,7.8 53.12,7.8 51.66,0 98.33,-21.18 131.87,-55.32 31.53,-32.11 51.45,-75.68 52.98,-123.9 0.76,0.4 1.52,0.79 2.29,1.19 0.74,0.37 1.48,0.75 2.23,1.11 0.71,0.36 1.43,0.71 2.15,1.05 0.7,0.34 1.4,0.66 2.11,0.99 0.68,0.31 1.36,0.63 2.04,0.93 0.66,0.3 1.33,0.59 1.99,0.88 0.65,0.28 1.29,0.56 1.94,0.83 0.63,0.27 1.25,0.53 1.88,0.79 0.62,0.25 1.23,0.49 1.84,0.74 0.59,0.23 1.19,0.46 1.78,0.69 0.58,0.23 1.16,0.45 1.74,0.66 0.56,0.22 1.13,0.42 1.69,0.63 0.55,0.2 1.1,0.39 1.65,0.59 0.53,0.19 1.06,0.37 1.59,0.55 0.52,0.18 1.04,0.36 1.56,0.53 0.5,0.17 1,0.33 1.5,0.49 0.49,0.16 0.98,0.32 1.47,0.47 0.47,0.15 0.94,0.3 1.41,0.44 0.46,0.14 0.92,0.28 1.38,0.42 0.44,0.13 0.88,0.26 1.33,0.39 0.42,0.12 0.85,0.25 1.28,0.37 0.41,0.11 0.83,0.23 1.24,0.34 0.4,0.11 0.8,0.22 1.2,0.33 0.38,0.1 0.76,0.2 1.14,0.3 0.37,0.1 0.74,0.19 1.11,0.29 0.35,0.09 0.7,0.18 1.05,0.26 0.34,0.09 0.68,0.17 1.01,0.25 0.32,0.08 0.64,0.16 0.96,0.23 0.31,0.07 0.61,0.14 0.92,0.22 0.28,0.07 0.57,0.13 0.86,0.19 0.27,0.07 0.54,0.13 0.81,0.19 0.26,0.06 0.51,0.11 0.76,0.17 0.24,0.05 0.48,0.1 0.71,0.15 0.22,0.04 0.44,0.09 0.66,0.14 0.2,0.04 0.4,0.08 0.59,0.12 0.19,0.04 0.37,0.08 0.55,0.12 0.16,0.03 0.32,0.06 0.48,0.09 0.14,0.03 0.28,0.06 0.43,0.09 0.11,0.02 0.24,0.05 0.35,0.07 0.1,0.02 0.2,0.04 0.3,0.06 0.08,0.01 0.16,0.03 0.23,0.04 11.67,2.26 23.71,3.45 36.04,3.45 53.02,0 100.98,-21.75 135.41,-56.81 33.63,-34.24 54.37,-81.18 54.37,-132.97 0,-104.81 -84.97,-189.78 -189.78,-189.78 -2.14,0 -4.22,0.25 -6.35,0.32 7.1,-21.98 10.97,-45.41 10.97,-69.75 0,-125.27 -101.54,-226.81 -226.8,-226.81 -62.07,0 -118.27,24.96 -159.22,65.35 -0.6,0.6 -1.21,1.2 -1.81,1.81 -0.81,0.81 -1.61,1.63 -2.4,2.46 -0.8,0.83 -1.59,1.66 -2.37,2.5 -0.78,0.83 -1.55,1.68 -2.32,2.53 -0.77,0.85 -1.53,1.7 -2.29,2.56 -24.44,-19.31 -55.24,-30.92 -88.81,-30.92 -38.95,0 -74.2,15.58 -100.03,40.79 -0.5,0.48 -0.99,0.97 -1.48,1.46 -0.81,0.82 -1.61,1.64 -2.41,2.48 -0.8,0.84 -1.59,1.69 -2.37,2.56 -0.78,0.86 -1.56,1.74 -2.32,2.63 -0.77,0.89 -1.53,1.8 -2.28,2.71 -0.76,0.92 -1.5,1.85 -2.23,2.79 -52.11,-88.78 -145.72,-148 -252.55,-148" id="path130" transform="translate(0,2.5e-5)"/>
    </clipPath>
    <clipPath clipPathUnits="userSpaceOnUse" id="clipPath133">
      <path d="m 2049.34,4155.16 c 0,104.82 -84.97,189.78 -189.78,189.78 -31.88,0 -61.87,-7.95 -88.25,-21.84 -3.16,99.49 -84.6,179.22 -184.85,179.22 -31.05,0 -60.27,-7.73 -85.98,-21.25 -34.54,114.08 -140.46,197.14 -265.81,197.14 -133.6,0 -245.123,-94.34 -271.686,-220.03 -30.394,21.86 -67.578,34.88 -107.879,34.88 -102.253,0 -185.148,-82.89 -185.148,-185.15 0,-33.75 9.176,-65.29 24.945,-92.54 -12.496,2.91 -25.453,4.59 -38.832,4.59 -94.59,0 -171.265,-76.67 -171.265,-171.26 0,-94.59 76.675,-171.27 171.265,-171.27 22.313,0 43.571,4.4 63.118,12.16 20.167,-150.73 143.761,-266.74 293.302,-266.74 106.83,0 200.43,59.22 252.55,148 26.25,-33.68 67.11,-55.43 113.12,-55.43 33.57,0 64.37,11.62 88.81,30.93 41.57,-47.31 102.48,-77.21 170.41,-77.21 125.26,0 226.8,101.54 226.8,226.81 0,24.34 -3.87,47.77 -10.97,69.75 2.13,-0.07 4.21,-0.32 6.35,-0.32 104.81,0 189.78,84.97 189.78,189.78 z" id="path133" transform="translate(0,2.5e-5)"/>
    </clipPath>
    <linearGradient id="gradient-0" bx:pinned="true">
      <stop style="stop-color: rgb(255, 255, 255);" offset="0"/>
    </linearGradient>
    <linearGradient id="gradient-1" bx:pinned="true">
      <stop style="stop-color: rgb(255, 255, 255);" offset="0"/>
      <stop style="stop-color: rgb(206, 221, 239);" offset="0.9992"/>
      <stop style="stop-color: rgb(206, 230, 239);" offset="1"/>
    </linearGradient>
    <radialGradient id="gradient-1-0" href="#gradient-1" gradientUnits="userSpaceOnUse" cx="1267.073" cy="4150.53" r="782.268"/>
  </defs>
  <path id="path125" d="m 1014.93,3620.41 c -78.762,0 -150.317,32.17 -203.364,84.66 -0.765,0.76 -1.535,1.53 -2.293,2.3 53.028,-52.4 124.528,-84.52 203.217,-84.52 106.83,0 200.44,59.22 252.55,148 0.73,-0.94 1.47,-1.87 2.23,-2.79 -52.16,-88.58 -145.65,-147.65 -252.34,-147.65 m 624.88,46.29 c -61.94,0 -118.04,24.86 -158.96,65.11 -0.69,0.68 -1.38,1.36 -2.06,2.05 -0.21,0.21 -0.42,0.42 -0.63,0.63 40.95,-40.39 97.15,-65.35 159.22,-65.35 125.26,0 226.8,101.54 226.8,226.81 0,24.34 -3.87,47.77 -10.97,69.75 2.13,-0.07 4.21,-0.32 6.35,-0.32 104.81,0 189.78,84.97 189.78,189.78 0,51.79 -20.74,98.73 -54.37,132.97 0.82,-0.81 1.63,-1.61 2.43,-2.43 33.63,-34.25 54.38,-81.19 54.38,-132.98 0,-104.81 -84.97,-189.78 -189.78,-189.78 -2.15,0 -4.23,0.25 -6.35,0.32 7.1,-21.98 10.98,-45.41 10.98,-69.75 0,-125.27 -101.55,-226.81 -226.82,-226.81 m -259.21,46.28 c -38.98,0 -74.25,15.61 -100.08,40.85 -0.48,0.46 -0.95,0.93 -1.42,1.41 -0.33,0.32 -0.65,0.65 -0.97,0.98 25.83,-25.21 61.08,-40.79 100.03,-40.79 33.57,0 64.37,11.61 88.81,30.92 0.76,-0.86 1.52,-1.71 2.29,-2.56 -24.42,-19.24 -55.16,-30.81 -88.66,-30.81 M 658.508,3875 c -46.676,0 -88.985,18.66 -119.879,48.94 -0.816,0.8 -1.637,1.62 -2.438,2.44 30.891,-30.28 73.2,-48.95 119.879,-48.95 22.313,0 43.571,4.4 63.118,12.17 0.144,-1.08 0.292,-2.15 0.449,-3.22 -19,-7.28 -39.571,-11.38 -61.129,-11.38 m 1112.802,448.1 c -1.53,48.22 -21.45,91.79 -52.98,123.9 0.84,-0.82 1.68,-1.66 2.5,-2.51 30.71,-31.29 50.38,-73.46 52.77,-120.2 -0.77,-0.4 -1.53,-0.79 -2.29,-1.19 m -270.83,157.97 c -13.23,43.71 -36.94,82.86 -68.2,114.53 0.77,-0.77 1.55,-1.54 2.31,-2.31 30.57,-30.93 53.92,-68.99 67.34,-111.47 -0.48,-0.25 -0.96,-0.5 -1.45,-0.75" style="fill:url(#linearGradient127);fill-opacity:1;fill-rule:nonzero;stroke:none" clip-path="url(#clipPath127)" transform="matrix(0.13333331048488617, 0, 0, -0.13333331048488617, -7.105427357601002e-15, 666.6666870117188)"/>
  <path id="path128" d="m 1012.49,3622.85 c -78.689,0 -150.189,32.12 -203.217,84.52 -20.738,20.48 -38.652,44.08 -53.066,70.06 -0.453,0.82 -0.894,1.63 -1.34,2.45 -0.441,0.81 -0.883,1.63 -1.316,2.45 -0.438,0.81 -0.867,1.63 -1.297,2.46 -0.422,0.81 -0.852,1.64 -1.27,2.46 -0.421,0.83 -0.832,1.65 -1.246,2.48 -0.41,0.82 -0.82,1.65 -1.222,2.48 -0.407,0.83 -0.809,1.67 -1.203,2.5 -0.399,0.83 -0.793,1.67 -1.18,2.5 -0.391,0.84 -0.778,1.68 -1.16,2.52 -0.383,0.84 -0.762,1.68 -1.137,2.53 -0.375,0.84 -0.746,1.69 -1.117,2.54 -0.367,0.85 -0.731,1.7 -1.094,2.55 -0.359,0.85 -0.719,1.71 -1.074,2.57 -0.352,0.85 -0.703,1.71 -1.051,2.57 -0.348,0.86 -0.691,1.73 -1.031,2.6 -0.34,0.86 -0.676,1.73 -1.008,2.6 -0.336,0.87 -0.668,1.75 -0.992,2.62 -0.328,0.89 -0.649,1.75 -0.969,2.64 -0.32,0.88 -0.637,1.76 -0.949,2.65 -0.313,0.88 -0.625,1.79 -0.93,2.67 -0.308,0.9 -0.605,1.79 -0.906,2.69 -0.297,0.9 -0.594,1.81 -0.887,2.71 -0.293,0.91 -0.578,1.81 -0.863,2.72 -0.285,0.91 -0.57,1.84 -0.844,2.74 -0.281,0.93 -0.555,1.84 -0.824,2.77 -0.274,0.92 -0.543,1.86 -0.805,2.78 -0.265,0.95 -0.523,1.87 -0.781,2.81 -0.254,0.94 -0.512,1.89 -0.758,2.83 -0.25,0.95 -0.496,1.9 -0.738,2.86 -0.242,0.96 -0.481,1.9 -0.715,2.87 -0.234,0.96 -0.469,1.94 -0.691,2.9 -0.231,0.97 -0.454,1.96 -0.672,2.93 -0.223,0.99 -0.438,1.96 -0.649,2.96 -0.211,0.99 -0.422,1.98 -0.625,2.98 -0.203,1 -0.406,2.01 -0.597,3.01 -0.2,1.02 -0.391,2.02 -0.578,3.05 -0.188,1.02 -0.372,2.04 -0.551,3.07 -0.18,1.04 -0.356,2.07 -0.528,3.11 -0.171,1.05 -0.336,2.09 -0.5,3.14 -0.16,1.05 -0.32,2.12 -0.472,3.18 -0.157,1.07 -0.305,2.14 -0.449,3.22 -19.547,-7.77 -40.805,-12.17 -63.118,-12.17 -46.679,0 -88.988,18.67 -119.879,48.95 -31.711,31.09 -51.386,74.41 -51.386,122.32 0,94.59 76.675,171.26 171.265,171.26 13.379,0 26.336,-1.68 38.832,-4.59 -15.769,27.25 -24.945,58.8 -24.945,92.54 0,102.26 82.895,185.15 185.148,185.15 40.301,0 77.481,-13.02 107.879,-34.88 26.563,125.69 138.086,220.03 271.686,220.03 77.33,0 147.26,-31.61 197.61,-82.61 31.26,-31.67 54.97,-70.82 68.2,-114.53 0.49,0.25 0.97,0.5 1.45,0.75 0.48,0.25 0.95,0.49 1.42,0.73 0.46,0.23 0.93,0.46 1.39,0.69 0.45,0.22 0.9,0.44 1.36,0.66 0.44,0.21 0.88,0.42 1.32,0.64 0.43,0.2 0.86,0.4 1.29,0.6 0.42,0.2 0.84,0.39 1.26,0.58 0.41,0.19 0.82,0.37 1.24,0.56 0.4,0.18 0.79,0.35 1.19,0.53 0.39,0.17 0.79,0.34 1.18,0.51 0.37,0.16 0.75,0.32 1.13,0.48 0.37,0.16 0.74,0.31 1.11,0.47 0.36,0.14 0.72,0.29 1.08,0.44 0.35,0.14 0.7,0.28 1.05,0.42 0.34,0.14 0.67,0.27 1.01,0.41 0.33,0.12 0.66,0.25 0.99,0.38 0.32,0.12 0.63,0.24 0.95,0.37 0.31,0.11 0.61,0.23 0.92,0.34 0.3,0.12 0.59,0.23 0.89,0.33 0.29,0.11 0.57,0.21 0.86,0.32 0.27,0.1 0.55,0.2 0.82,0.29 0.26,0.1 0.53,0.19 0.79,0.29 0.26,0.09 0.51,0.17 0.76,0.26 0.24,0.08 0.48,0.17 0.73,0.25 0.23,0.08 0.46,0.16 0.69,0.24 0.22,0.07 0.43,0.14 0.65,0.22 0.21,0.06 0.42,0.13 0.63,0.21 0.19,0.06 0.39,0.12 0.58,0.19 0.19,0.06 0.37,0.12 0.55,0.18 0.17,0.05 0.35,0.11 0.52,0.16 0.16,0.05 0.31,0.1 0.47,0.15 0.15,0.05 0.3,0.1 0.44,0.14 0.14,0.04 0.27,0.09 0.4,0.12 0.12,0.04 0.24,0.08 0.36,0.12 0.11,0.03 0.22,0.06 0.32,0.1 0.1,0.03 0.19,0.05 0.29,0.09 0.08,0.02 0.16,0.04 0.24,0.07 0.06,0.02 0.13,0.04 0.2,0.06 0.05,0.01 0.1,0.03 0.15,0.04 0.04,0.02 0.07,0.02 0.11,0.04 0.02,0 0.05,0.01 0.07,0.02 16.82,5.06 34.65,7.8 53.12,7.8 51.66,0 98.33,-21.18 131.87,-55.32 31.53,-32.11 51.45,-75.68 52.98,-123.9 0.76,0.4 1.52,0.79 2.29,1.19 0.74,0.37 1.48,0.75 2.23,1.11 0.71,0.36 1.43,0.71 2.15,1.05 0.7,0.34 1.4,0.66 2.11,0.99 0.68,0.31 1.36,0.63 2.04,0.93 0.66,0.3 1.33,0.59 1.99,0.88 0.65,0.28 1.29,0.56 1.94,0.83 0.63,0.27 1.25,0.53 1.88,0.79 0.62,0.25 1.23,0.49 1.84,0.74 0.59,0.23 1.19,0.46 1.78,0.69 0.58,0.23 1.16,0.45 1.74,0.66 0.56,0.22 1.13,0.42 1.69,0.63 0.55,0.2 1.1,0.39 1.65,0.59 0.53,0.19 1.06,0.37 1.59,0.55 0.52,0.18 1.04,0.36 1.56,0.53 0.5,0.17 1,0.33 1.5,0.49 0.49,0.16 0.98,0.32 1.47,0.47 0.47,0.15 0.94,0.3 1.41,0.44 0.46,0.14 0.92,0.28 1.38,0.42 0.44,0.13 0.88,0.26 1.33,0.39 0.42,0.12 0.85,0.25 1.28,0.37 0.41,0.11 0.83,0.23 1.24,0.34 0.4,0.11 0.8,0.22 1.2,0.33 0.38,0.1 0.76,0.2 1.14,0.3 0.37,0.1 0.74,0.19 1.11,0.29 0.35,0.09 0.7,0.18 1.05,0.26 0.34,0.09 0.68,0.17 1.01,0.25 0.32,0.08 0.64,0.16 0.96,0.23 0.31,0.07 0.61,0.14 0.92,0.22 0.28,0.07 0.57,0.13 0.86,0.19 0.27,0.07 0.54,0.13 0.81,0.19 0.26,0.06 0.51,0.11 0.76,0.17 0.24,0.05 0.48,0.1 0.71,0.15 0.22,0.04 0.44,0.09 0.66,0.14 0.2,0.04 0.4,0.08 0.59,0.12 0.19,0.04 0.37,0.08 0.55,0.12 0.16,0.03 0.32,0.06 0.48,0.09 0.14,0.03 0.28,0.06 0.43,0.09 0.11,0.02 0.24,0.05 0.35,0.07 0.1,0.02 0.2,0.04 0.3,0.06 0.08,0.01 0.16,0.03 0.23,0.04 11.67,2.26 23.71,3.45 36.04,3.45 53.02,0 100.98,-21.75 135.41,-56.81 33.63,-34.24 54.37,-81.18 54.37,-132.97 0,-104.81 -84.97,-189.78 -189.78,-189.78 -2.14,0 -4.22,0.25 -6.35,0.32 7.1,-21.98 10.97,-45.41 10.97,-69.75 0,-125.27 -101.54,-226.81 -226.8,-226.81 -62.07,0 -118.27,24.96 -159.22,65.35 -0.6,0.6 -1.21,1.2 -1.81,1.81 -0.81,0.81 -1.61,1.63 -2.4,2.46 -0.8,0.83 -1.59,1.66 -2.37,2.5 -0.78,0.83 -1.55,1.68 -2.32,2.53 -0.77,0.85 -1.53,1.7 -2.29,2.56 -24.44,-19.31 -55.24,-30.92 -88.81,-30.92 -38.95,0 -74.2,15.58 -100.03,40.79 -0.5,0.48 -0.99,0.97 -1.48,1.46 -0.81,0.82 -1.61,1.64 -2.41,2.48 -0.8,0.84 -1.59,1.69 -2.37,2.56 -0.78,0.86 -1.56,1.74 -2.32,2.63 -0.77,0.89 -1.53,1.8 -2.28,2.71 -0.76,0.92 -1.5,1.85 -2.23,2.79 -52.11,-88.78 -145.72,-148 -252.55,-148" style="fill:url(#linearGradient130);fill-opacity:1;fill-rule:nonzero;stroke:none" clip-path="url(#clipPath130)" transform="matrix(0.13333331048488617, 0, 0, -0.13333331048488617, -7.105427357601002e-15, 666.6666870117188)"/>
  <path id="path131" d="m 2049.34,4155.16 c 0,104.82 -84.97,189.78 -189.78,189.78 -31.88,0 -61.87,-7.95 -88.25,-21.84 -3.16,99.49 -84.6,179.22 -184.85,179.22 -31.05,0 -60.27,-7.73 -85.98,-21.25 -34.54,114.08 -140.46,197.14 -265.81,197.14 -133.6,0 -245.123,-94.34 -271.686,-220.03 -30.394,21.86 -67.578,34.88 -107.879,34.88 -102.253,0 -185.148,-82.89 -185.148,-185.15 0,-33.75 9.176,-65.29 24.945,-92.54 -12.496,2.91 -25.453,4.59 -38.832,4.59 -94.59,0 -171.265,-76.67 -171.265,-171.26 0,-94.59 76.675,-171.27 171.265,-171.27 22.313,0 43.571,4.4 63.118,12.16 20.167,-150.73 143.761,-266.74 293.302,-266.74 106.83,0 200.43,59.22 252.55,148 26.25,-33.68 67.11,-55.43 113.12,-55.43 33.57,0 64.37,11.62 88.81,30.93 41.57,-47.31 102.48,-77.21 170.41,-77.21 125.26,0 226.8,101.54 226.8,226.81 0,24.34 -3.87,47.77 -10.97,69.75 2.13,-0.07 4.21,-0.32 6.35,-0.32 104.81,0 189.78,84.97 189.78,189.78" style="fill-opacity: 1; fill-rule: nonzero; stroke: none; fill: url(&quot;#gradient-1-0&quot;);" clip-path="url(#clipPath133)" transform="matrix(0.13333331048488617, 0, 0, -0.13333331048488617, -7.105427357601002e-15, 666.6666870117188)"/>
  <path id="path134" d="m 2049.34,4155.16 h 5 c 0,107.58 -87.21,194.78 -194.78,194.78 -32.71,0 -63.52,-8.16 -90.58,-22.42 l 2.33,-4.42 5,0.16 c -3.25,102.17 -86.88,184.05 -189.85,184.06 -31.89,0 -61.92,-7.95 -88.3,-21.82 l 2.32,-4.43 4.79,1.45 c -35.16,116.14 -142.99,200.68 -270.6,200.69 -136,-0.01 -249.537,-96.02 -276.58,-223.99 l 4.894,-1.04 2.918,4.06 c -31.191,22.44 -69.414,35.82 -110.797,35.82 -105.015,0 -190.144,-85.13 -190.148,-190.15 -0.004,-34.66 9.43,-67.07 25.617,-95.04 l 4.328,2.5 1.133,4.87 c -12.82,2.98 -26.164,4.72 -39.965,4.72 -97.355,0 -176.261,-78.91 -176.265,-176.26 0.004,-97.35 78.91,-176.27 176.265,-176.27 22.973,0 44.864,4.53 64.965,12.52 l -1.847,4.64 -4.954,-0.66 c 20.457,-153.04 146.032,-271.06 298.256,-271.08 108.72,0 203.94,60.29 256.86,150.47 l -4.31,2.53 -3.94,-3.07 c 27.14,-34.84 69.45,-57.36 117.06,-57.36 34.73,0 66.64,12.03 91.91,32 l -3.1,3.93 -3.75,-3.3 c 42.46,-48.34 104.74,-78.92 174.16,-78.91 128.02,0 231.8,103.78 231.8,231.81 0,24.87 -3.96,48.83 -11.21,71.29 l -4.76,-1.54 -0.16,-5 c 1.84,-0.05 3.98,-0.31 6.51,-0.32 107.57,0 194.78,87.2 194.78,194.78 h -5 -5 c 0,-51.04 -20.67,-97.2 -54.12,-130.66 -33.46,-33.45 -79.62,-54.12 -130.66,-54.12 -1.75,-0.01 -3.77,0.23 -6.19,0.32 l -7.1,0.22 2.18,-6.76 c 6.94,-21.49 10.73,-44.4 10.73,-68.21 0,-61.27 -24.81,-116.69 -64.96,-156.85 -40.16,-40.14 -95.58,-64.96 -156.84,-64.96 -66.45,0 -125.98,29.23 -166.65,75.51 l -3.13,3.56 -3.73,-2.94 c -23.61,-18.65 -53.3,-29.84 -85.71,-29.85 -44.41,0.01 -83.81,20.98 -109.18,53.5 l -4.53,5.81 -3.72,-6.35 c -51.31,-87.38 -143.3,-145.53 -248.24,-145.53 -146.857,-0.03 -268.47,113.99 -288.345,262.41 l -0.848,6.35 -5.953,-2.37 c -19,-7.54 -39.617,-11.81 -61.274,-11.81 -45.929,0 -87.465,18.6 -117.57,48.7 -30.094,30.1 -48.691,71.64 -48.695,117.57 0.004,45.93 18.601,87.46 48.695,117.57 30.105,30.09 71.641,48.69 117.57,48.69 12.957,0 25.532,-1.63 37.7,-4.46 l 11.242,-2.61 -5.782,9.99 c -15.355,26.53 -24.273,57.2 -24.273,90.03 0,49.76 20.156,94.77 52.766,127.39 32.617,32.61 77.621,52.76 127.382,52.76 39.215,0 75.364,-12.65 104.958,-33.93 l 6.226,-4.48 1.586,7.5 c 26.082,123.41 135.605,216.07 266.795,216.06 123.1,0.01 227.11,-81.57 261.03,-193.59 l 1.75,-5.79 5.36,2.81 c 25.02,13.16 53.43,20.68 83.65,20.68 97.54,0 176.78,-77.58 179.86,-174.38 l 0.25,-7.99 7.07,3.73 c 25.69,13.53 54.87,21.26 85.92,21.26 51.04,0 97.2,-20.67 130.66,-54.12 33.45,-33.45 54.12,-79.62 54.12,-130.66 h 5" style="fill:#ffffff;fill-opacity:1;fill-rule:nonzero;stroke:none" transform="matrix(0.13333331048488617, 0, 0, -0.13333331048488617, -7.105427357601002e-15, 666.6666870117188)"/>
</svg>