<?xml version="1.0" encoding="utf-8"?>
<svg xmlns="http://www.w3.org/2000/svg" viewBox="55.3333 366.6814 227.2186 121.6813" width="227.218px" height="121.681px" xmlns:bx="https://boxy-svg.com">
  <defs>
    <linearGradient x1="0" y1="0" x2="1" y2="0" gradientUnits="userSpaceOnUse" gradientTransform="matrix(5454.77,-5501.73,-5501.73,-5454.77,-4.09365,5025.65)" spreadMethod="pad" id="linearGradient1100">
      <stop style="stop-opacity:1;stop-color:#2b7f9d" offset="0" id="stop1098"/>
      <stop style="stop-opacity:1;stop-color:#146d92" offset="0.9358" id="stop1099"/>
      <stop style="stop-opacity:1;stop-color:#146d92" offset="1" id="stop1100"/>
    </linearGradient>
    <clipPath clipPathUnits="userSpaceOnUse" id="clipPath1100">
      <path d="m 1393.29,1339.83 c -70.85,0 -135.21,28.93 -182.98,76.09 -0.67,0.66 -1.34,1.33 -2,2 -0.15,0.15 -0.3,0.3 -0.45,0.45 47.77,-47.17 112.14,-76.09 182.99,-76.09 98.06,0 183.71,55.39 230.11,137.88 30.86,-22.74 68.39,-36.2 108.99,-36.2 96.69,0 176.31,75.75 188.11,173.61 2.11,-0.07 4.17,-0.31 6.3,-0.31 104.81,0 189.78,84.96 189.78,189.77 0,51.76 -20.72,98.68 -54.32,132.92 0.79,-0.77 1.57,-1.55 2.34,-2.33 33.66,-34.25 54.42,-81.22 54.42,-133.03 0,-104.8 -84.97,-189.77 -189.78,-189.77 -2.13,0 -4.19,0.24 -6.3,0.31 -11.8,-97.86 -91.43,-173.61 -188.11,-173.61 -40.6,0 -78.14,13.46 -109,36.2 -46.39,-82.5 -132.04,-137.89 -230.1,-137.89 m -604.208,87.62 c -50.801,0 -98.754,18.45 -132.887,51.9 -0.808,0.8 -1.621,1.61 -2.418,2.42 34.129,-33.43 82.078,-51.88 132.868,-51.88 29.96,0 60.898,6.41 90.601,19.95 20.199,9.21 38.246,21.05 53.93,34.78 38,-20.63 82.504,-32.51 130.094,-32.51 37.11,0 72.31,7.28 104.05,20.23 0.56,-0.92 1.12,-1.83 1.69,-2.74 -31.54,-12.77 -66.48,-19.92 -103.3,-19.92 -47.59,0 -92.097,11.87 -130.093,32.5 -15.687,-13.72 -33.734,-25.57 -53.929,-34.78 -29.704,-13.54 -60.645,-19.95 -90.606,-19.95 m -184.035,190.41 c -49.016,1.84 -93.285,22.22 -125.957,54.34 -0.766,0.76 -1.535,1.53 -2.289,2.29 33.258,-32.62 78.5,-53.1 128.508,-54.27 -0.094,-0.78 -0.18,-1.57 -0.262,-2.36 m 1258.063,368.66 c 0.68,7.35 1.07,14.78 1.07,22.3 0,64.52 -25.87,122.99 -67.82,165.6 0.76,-0.75 1.51,-1.49 2.26,-2.26 42.05,-42.62 68.01,-101.17 68.01,-165.78 0,-6.38 -0.29,-12.69 -0.79,-18.95 -0.91,-0.29 -1.83,-0.6 -2.73,-0.91 m -714.87,91.51 c -12.57,28.88 -30.2,54.85 -51.7,76.65 0.81,-0.79 1.61,-1.59 2.4,-2.39 20.65,-20.94 37.72,-45.7 50.18,-73.21 -0.29,-0.35 -0.58,-0.7 -0.88,-1.05" transform="translate(0,2.5e-5)" id="path1100"/>
    </clipPath>
    <linearGradient x1="0" y1="0" x2="1" y2="0" gradientUnits="userSpaceOnUse" gradientTransform="matrix(5454.77,-5501.73,-5501.73,-5454.77,-4.09365,5025.65)" spreadMethod="pad" id="linearGradient1103">
      <stop style="stop-opacity:1;stop-color:#287b99" offset="0" id="stop1101"/>
      <stop style="stop-opacity:1;stop-color:#15688e" offset="0.9358" id="stop1102"/>
      <stop style="stop-opacity:1;stop-color:#15688e" offset="1" id="stop1103"/>
    </linearGradient>
    <clipPath clipPathUnits="userSpaceOnUse" id="clipPath1103">
      <path d="m 1390.85,1342.28 c -70.85,0 -135.22,28.92 -182.99,76.09 -0.67,0.66 -1.33,1.32 -1.99,1.99 -0.81,0.81 -1.61,1.63 -2.41,2.45 -0.79,0.82 -1.57,1.64 -2.35,2.47 -0.78,0.82 -1.56,1.65 -2.32,2.48 -0.76,0.83 -1.52,1.67 -2.28,2.5 -0.75,0.84 -1.49,1.68 -2.23,2.52 -0.73,0.84 -1.46,1.68 -2.19,2.53 -0.72,0.85 -1.44,1.69 -2.15,2.55 -0.71,0.85 -1.42,1.7 -2.12,2.56 -0.69,0.85 -1.38,1.71 -2.07,2.58 -0.68,0.85 -1.37,1.72 -2.04,2.59 -0.67,0.86 -1.33,1.73 -2,2.6 -0.66,0.88 -1.31,1.75 -1.96,2.63 -0.64,0.87 -1.29,1.75 -1.93,2.63 -0.63,0.89 -1.26,1.76 -1.88,2.65 -0.63,0.89 -1.25,1.78 -1.86,2.67 -0.61,0.89 -1.22,1.79 -1.82,2.69 -0.6,0.89 -1.2,1.79 -1.79,2.7 -0.58,0.89 -1.17,1.8 -1.74,2.7 -0.58,0.91 -1.16,1.82 -1.72,2.74 -0.57,0.91 -1.13,1.82 -1.69,2.74 -31.74,-12.95 -66.94,-20.23 -104.05,-20.23 -47.59,0 -92.094,11.88 -130.094,32.51 -15.684,-13.73 -33.731,-25.57 -53.93,-34.78 -29.703,-13.54 -60.641,-19.95 -90.601,-19.95 -50.79,0 -98.739,18.45 -132.868,51.88 -14.261,13.97 -26.117,30.56 -34.757,49.52 -2.317,5.08 -4.356,10.22 -6.118,15.42 -0.144,0.42 -0.285,0.83 -0.422,1.25 -0.14,0.43 -0.281,0.86 -0.421,1.29 -0.141,0.44 -0.282,0.88 -0.418,1.33 -0.141,0.45 -0.282,0.9 -0.414,1.35 -0.141,0.46 -0.278,0.92 -0.414,1.38 -0.137,0.47 -0.274,0.94 -0.407,1.41 -0.136,0.48 -0.269,0.95 -0.402,1.43 -0.133,0.49 -0.262,0.98 -0.391,1.47 -0.133,0.49 -0.261,0.99 -0.386,1.49 -0.129,0.5 -0.254,1.01 -0.379,1.51 -0.125,0.52 -0.246,1.03 -0.368,1.54 -0.121,0.52 -0.242,1.05 -0.355,1.57 -0.121,0.53 -0.234,1.06 -0.348,1.59 -0.117,0.54 -0.226,1.07 -0.336,1.61 -0.113,0.55 -0.218,1.1 -0.324,1.65 -0.105,0.55 -0.211,1.1 -0.312,1.66 -0.102,0.56 -0.2,1.12 -0.297,1.69 -0.098,0.57 -0.192,1.14 -0.281,1.71 -0.094,0.58 -0.184,1.16 -0.27,1.74 -0.09,0.58 -0.172,1.17 -0.254,1.75 -0.082,0.6 -0.16,1.19 -0.234,1.79 -0.078,0.6 -0.153,1.21 -0.223,1.81 -0.07,0.61 -0.137,1.22 -0.203,1.83 -0.063,0.62 -0.125,1.24 -0.184,1.86 -0.058,0.63 -0.113,1.26 -0.164,1.88 -0.05,0.64 -0.101,1.28 -0.144,1.92 -0.047,0.64 -0.09,1.28 -0.125,1.93 -0.039,0.65 -0.074,1.3 -0.106,1.95 -0.031,0.67 -0.058,1.33 -0.082,1.99 -0.023,0.68 -0.043,1.35 -0.058,2.02 -0.02,0.68 -0.032,1.36 -0.039,2.04 -0.008,0.69 -0.012,1.38 -0.012,2.07 0.004,0.7 0.008,1.4 0.016,2.1 0.007,0.71 0.023,1.41 0.039,2.13 0.019,0.71 0.043,1.44 0.07,2.15 0.027,0.73 0.059,1.46 0.098,2.19 0.035,0.74 0.078,1.48 0.125,2.22 0.046,0.75 0.101,1.5 0.156,2.25 0.058,0.77 0.125,1.53 0.191,2.29 0.071,0.77 0.145,1.54 0.223,2.31 0.082,0.79 0.168,1.58 0.262,2.36 -50.008,1.17 -95.25,21.65 -128.508,54.27 -35.059,34.39 -56.801,82.28 -56.801,135.3 0,104.81 84.965,189.77 189.781,189.77 28.188,0 54.848,-6.31 78.895,-17.33 4.32,135.19 110.301,243.42 240.496,243.42 65.062,0 124.068,-27.04 167.368,-70.97 21.5,-21.8 39.13,-47.77 51.7,-76.65 0.3,0.35 0.59,0.7 0.88,1.05 0.29,0.34 0.57,0.67 0.86,1.01 0.27,0.31 0.54,0.63 0.81,0.94 0.26,0.3 0.52,0.6 0.78,0.89 0.25,0.29 0.5,0.57 0.74,0.85 0.24,0.26 0.48,0.53 0.71,0.79 0.23,0.25 0.45,0.5 0.68,0.75 0.21,0.23 0.43,0.46 0.64,0.7 0.2,0.22 0.41,0.44 0.61,0.66 0.19,0.2 0.38,0.41 0.57,0.61 0.18,0.19 0.37,0.39 0.55,0.58 0.17,0.18 0.33,0.35 0.5,0.53 0.16,0.17 0.32,0.34 0.48,0.5 0.15,0.15 0.29,0.3 0.44,0.45 0.13,0.14 0.27,0.28 0.41,0.42 0.12,0.13 0.24,0.26 0.37,0.39 0.11,0.11 0.23,0.23 0.34,0.35 0.1,0.1 0.21,0.2 0.31,0.31 0.09,0.09 0.18,0.18 0.27,0.27 0.08,0.08 0.16,0.16 0.24,0.24 0.07,0.07 0.14,0.14 0.21,0.21 0.06,0.06 0.12,0.12 0.17,0.17 0.05,0.05 0.1,0.09 0.14,0.14 0.04,0.03 0.07,0.07 0.11,0.1 0.02,0.03 0.04,0.05 0.07,0.08 0.01,0.01 0.02,0.02 0.04,0.03 0,0.01 0,0.01 0,0.01 32.45,32.14 77.08,52 126.36,52 47.1,0 89.83,-18.28 121.86,-47.95 34.46,87.68 119.82,149.78 219.73,149.78 65.85,0 125.42,-26.97 168.24,-70.47 41.95,-42.61 67.82,-101.08 67.82,-165.6 0,-7.52 -0.39,-14.95 -1.07,-22.3 0.9,0.31 1.82,0.62 2.73,0.91 0.89,0.29 1.79,0.58 2.69,0.86 0.87,0.27 1.75,0.53 2.63,0.79 0.86,0.25 1.73,0.5 2.59,0.74 0.85,0.24 1.7,0.47 2.55,0.7 0.83,0.22 1.66,0.43 2.5,0.64 0.82,0.2 1.64,0.4 2.46,0.6 0.81,0.19 1.61,0.37 2.42,0.55 0.8,0.18 1.59,0.35 2.38,0.52 0.79,0.16 1.57,0.32 2.36,0.48 0.77,0.15 1.53,0.29 2.31,0.44 0.76,0.13 1.52,0.27 2.28,0.4 0.75,0.13 1.5,0.25 2.25,0.37 0.74,0.12 1.48,0.23 2.22,0.34 0.73,0.1 1.46,0.21 2.19,0.31 0.72,0.09 1.44,0.18 2.17,0.27 0.71,0.09 1.41,0.17 2.13,0.25 0.7,0.08 1.4,0.15 2.1,0.22 0.69,0.07 1.39,0.14 2.08,0.2 0.68,0.06 1.37,0.11 2.05,0.17 0.68,0.05 1.35,0.09 2.03,0.14 0.66,0.04 1.33,0.08 2,0.12 0.66,0.04 1.32,0.07 1.98,0.1 0.65,0.03 1.3,0.05 1.95,0.07 0.64,0.02 1.28,0.04 1.92,0.06 0.64,0.01 1.27,0.02 1.91,0.03 0.63,0.01 1.25,0.01 1.88,0.02 0.16,0 0.33,0 0.49,0 0.45,0 0.92,0 1.37,-0.01 0.61,0 1.22,-0.01 1.83,-0.02 0.61,-0.01 1.21,-0.02 1.81,-0.04 0.6,-0.01 1.19,-0.03 1.79,-0.05 0.59,-0.02 1.18,-0.05 1.77,-0.07 0.58,-0.03 1.16,-0.06 1.74,-0.09 0.57,-0.03 1.15,-0.06 1.72,-0.1 0.57,-0.03 1.13,-0.07 1.7,-0.11 0.56,-0.04 1.12,-0.08 1.68,-0.13 0.55,-0.04 1.1,-0.09 1.65,-0.14 0.54,-0.05 1.09,-0.1 1.63,-0.15 0.54,-0.05 1.07,-0.11 1.61,-0.17 0.53,-0.05 1.06,-0.11 1.59,-0.17 0.52,-0.06 1.04,-0.12 1.56,-0.19 43.66,-5.38 82.73,-25.59 112.01,-55.43 33.6,-34.24 54.32,-81.16 54.32,-132.92 0,-104.81 -84.97,-189.77 -189.78,-189.77 -2.13,0 -4.19,0.24 -6.3,0.31 -11.8,-97.86 -91.42,-173.61 -188.11,-173.61 -40.6,0 -78.13,13.46 -108.99,36.2 -46.4,-82.49 -132.05,-137.88 -230.11,-137.88" transform="translate(0,2.5e-5)" id="path1103"/>
    </clipPath>
    <radialGradient id="gradient-0-0" href="#gradient-0" gradientUnits="userSpaceOnUse" cx="1267.07" cy="1793.585" r="847.07"/>
    <linearGradient id="gradient-0" bx:pinned="true">
      <stop style="stop-color: rgb(255, 255, 255);" offset="0"/>
      <stop style="stop-color: rgb(206, 221, 239);" offset="0.9767"/>
      <stop style="stop-color: rgb(206, 221, 239);" offset="1"/>
    </linearGradient>
    <clipPath clipPathUnits="userSpaceOnUse" id="clipPath1106">
      <path d="m 1924.36,1996.82 c -21.46,0 -42.01,-3.73 -61.25,-10.3 0.68,7.35 1.07,14.78 1.07,22.3 0,130.38 -105.68,236.07 -236.06,236.07 -99.91,0 -185.27,-62.1 -219.73,-149.78 -32.03,29.67 -74.76,47.95 -121.86,47.95 -55.64,0 -105.35,-25.32 -138.29,-65.03 -37.9,87.06 -121.71,147.62 -219.068,147.62 -130.195,0 -236.176,-108.23 -240.496,-243.42 -24.047,11.02 -50.707,17.33 -78.895,17.33 C 504.965,1999.56 420,1914.6 420,1809.79 c 0,-103.32 82.582,-187.16 185.309,-189.57 -3.493,-29.87 0.699,-60.39 13.711,-88.93 41.523,-91.08 157.136,-127.54 258.226,-81.45 20.199,9.21 38.246,21.05 53.93,34.78 38,-20.63 82.504,-32.51 130.094,-32.51 37.11,0 72.31,7.27 104.05,20.23 47.32,-78.15 130.61,-130.06 225.53,-130.06 98.06,0 183.71,55.39 230.11,137.88 30.86,-22.74 68.39,-36.2 108.99,-36.2 96.69,0 176.31,75.75 188.11,173.61 2.11,-0.07 4.17,-0.31 6.3,-0.31 104.81,0 189.78,84.96 189.78,189.77 0,104.82 -84.97,189.79 -189.78,189.79 z" transform="translate(0,2.5e-5)" id="path1106"/>
    </clipPath>
  </defs>
  <path id="path1098" d="m 1393.29,1339.83 c -70.85,0 -135.21,28.93 -182.98,76.09 -0.67,0.66 -1.34,1.33 -2,2 -0.15,0.15 -0.3,0.3 -0.45,0.45 47.77,-47.17 112.14,-76.09 182.99,-76.09 98.06,0 183.71,55.39 230.11,137.88 30.86,-22.74 68.39,-36.2 108.99,-36.2 96.69,0 176.31,75.75 188.11,173.61 2.11,-0.07 4.17,-0.31 6.3,-0.31 104.81,0 189.78,84.96 189.78,189.77 0,51.76 -20.72,98.68 -54.32,132.92 0.79,-0.77 1.57,-1.55 2.34,-2.33 33.66,-34.25 54.42,-81.22 54.42,-133.03 0,-104.8 -84.97,-189.77 -189.78,-189.77 -2.13,0 -4.19,0.24 -6.3,0.31 -11.8,-97.86 -91.43,-173.61 -188.11,-173.61 -40.6,0 -78.14,13.46 -109,36.2 -46.39,-82.5 -132.04,-137.89 -230.1,-137.89 m -604.208,87.62 c -50.801,0 -98.754,18.45 -132.887,51.9 -0.808,0.8 -1.621,1.61 -2.418,2.42 34.129,-33.43 82.078,-51.88 132.868,-51.88 29.96,0 60.898,6.41 90.601,19.95 20.199,9.21 38.246,21.05 53.93,34.78 38,-20.63 82.504,-32.51 130.094,-32.51 37.11,0 72.31,7.28 104.05,20.23 0.56,-0.92 1.12,-1.83 1.69,-2.74 -31.54,-12.77 -66.48,-19.92 -103.3,-19.92 -47.59,0 -92.097,11.87 -130.093,32.5 -15.687,-13.72 -33.734,-25.57 -53.929,-34.78 -29.704,-13.54 -60.645,-19.95 -90.606,-19.95 m -184.035,190.41 c -49.016,1.84 -93.285,22.22 -125.957,54.34 -0.766,0.76 -1.535,1.53 -2.289,2.29 33.258,-32.62 78.5,-53.1 128.508,-54.27 -0.094,-0.78 -0.18,-1.57 -0.262,-2.36 m 1258.063,368.66 c 0.68,7.35 1.07,14.78 1.07,22.3 0,64.52 -25.87,122.99 -67.82,165.6 0.76,-0.75 1.51,-1.49 2.26,-2.26 42.05,-42.62 68.01,-101.17 68.01,-165.78 0,-6.38 -0.29,-12.69 -0.79,-18.95 -0.91,-0.29 -1.83,-0.6 -2.73,-0.91 m -714.87,91.51 c -12.57,28.88 -30.2,54.85 -51.7,76.65 0.81,-0.79 1.61,-1.59 2.4,-2.39 20.65,-20.94 37.72,-45.7 50.18,-73.21 -0.29,-0.35 -0.58,-0.7 -0.88,-1.05" style="fill: url(&quot;#linearGradient1100&quot;); fill-opacity: 1; fill-rule: nonzero; stroke: none;" transform="matrix(0.13333331048488617, 0, 0, -0.13333331048488617, -1.4210854715202004e-14, 666.6666870117188)" clip-path="url(#clipPath1100)"/>
  <path id="path1101" d="m 1390.85,1342.28 c -70.85,0 -135.22,28.92 -182.99,76.09 -0.67,0.66 -1.33,1.32 -1.99,1.99 -0.81,0.81 -1.61,1.63 -2.41,2.45 -0.79,0.82 -1.57,1.64 -2.35,2.47 -0.78,0.82 -1.56,1.65 -2.32,2.48 -0.76,0.83 -1.52,1.67 -2.28,2.5 -0.75,0.84 -1.49,1.68 -2.23,2.52 -0.73,0.84 -1.46,1.68 -2.19,2.53 -0.72,0.85 -1.44,1.69 -2.15,2.55 -0.71,0.85 -1.42,1.7 -2.12,2.56 -0.69,0.85 -1.38,1.71 -2.07,2.58 -0.68,0.85 -1.37,1.72 -2.04,2.59 -0.67,0.86 -1.33,1.73 -2,2.6 -0.66,0.88 -1.31,1.75 -1.96,2.63 -0.64,0.87 -1.29,1.75 -1.93,2.63 -0.63,0.89 -1.26,1.76 -1.88,2.65 -0.63,0.89 -1.25,1.78 -1.86,2.67 -0.61,0.89 -1.22,1.79 -1.82,2.69 -0.6,0.89 -1.2,1.79 -1.79,2.7 -0.58,0.89 -1.17,1.8 -1.74,2.7 -0.58,0.91 -1.16,1.82 -1.72,2.74 -0.57,0.91 -1.13,1.82 -1.69,2.74 -31.74,-12.95 -66.94,-20.23 -104.05,-20.23 -47.59,0 -92.094,11.88 -130.094,32.51 -15.684,-13.73 -33.731,-25.57 -53.93,-34.78 -29.703,-13.54 -60.641,-19.95 -90.601,-19.95 -50.79,0 -98.739,18.45 -132.868,51.88 -14.261,13.97 -26.117,30.56 -34.757,49.52 -2.317,5.08 -4.356,10.22 -6.118,15.42 -0.144,0.42 -0.285,0.83 -0.422,1.25 -0.14,0.43 -0.281,0.86 -0.421,1.29 -0.141,0.44 -0.282,0.88 -0.418,1.33 -0.141,0.45 -0.282,0.9 -0.414,1.35 -0.141,0.46 -0.278,0.92 -0.414,1.38 -0.137,0.47 -0.274,0.94 -0.407,1.41 -0.136,0.48 -0.269,0.95 -0.402,1.43 -0.133,0.49 -0.262,0.98 -0.391,1.47 -0.133,0.49 -0.261,0.99 -0.386,1.49 -0.129,0.5 -0.254,1.01 -0.379,1.51 -0.125,0.52 -0.246,1.03 -0.368,1.54 -0.121,0.52 -0.242,1.05 -0.355,1.57 -0.121,0.53 -0.234,1.06 -0.348,1.59 -0.117,0.54 -0.226,1.07 -0.336,1.61 -0.113,0.55 -0.218,1.1 -0.324,1.65 -0.105,0.55 -0.211,1.1 -0.312,1.66 -0.102,0.56 -0.2,1.12 -0.297,1.69 -0.098,0.57 -0.192,1.14 -0.281,1.71 -0.094,0.58 -0.184,1.16 -0.27,1.74 -0.09,0.58 -0.172,1.17 -0.254,1.75 -0.082,0.6 -0.16,1.19 -0.234,1.79 -0.078,0.6 -0.153,1.21 -0.223,1.81 -0.07,0.61 -0.137,1.22 -0.203,1.83 -0.063,0.62 -0.125,1.24 -0.184,1.86 -0.058,0.63 -0.113,1.26 -0.164,1.88 -0.05,0.64 -0.101,1.28 -0.144,1.92 -0.047,0.64 -0.09,1.28 -0.125,1.93 -0.039,0.65 -0.074,1.3 -0.106,1.95 -0.031,0.67 -0.058,1.33 -0.082,1.99 -0.023,0.68 -0.043,1.35 -0.058,2.02 -0.02,0.68 -0.032,1.36 -0.039,2.04 -0.008,0.69 -0.012,1.38 -0.012,2.07 0.004,0.7 0.008,1.4 0.016,2.1 0.007,0.71 0.023,1.41 0.039,2.13 0.019,0.71 0.043,1.44 0.07,2.15 0.027,0.73 0.059,1.46 0.098,2.19 0.035,0.74 0.078,1.48 0.125,2.22 0.046,0.75 0.101,1.5 0.156,2.25 0.058,0.77 0.125,1.53 0.191,2.29 0.071,0.77 0.145,1.54 0.223,2.31 0.082,0.79 0.168,1.58 0.262,2.36 -50.008,1.17 -95.25,21.65 -128.508,54.27 -35.059,34.39 -56.801,82.28 -56.801,135.3 0,104.81 84.965,189.77 189.781,189.77 28.188,0 54.848,-6.31 78.895,-17.33 4.32,135.19 110.301,243.42 240.496,243.42 65.062,0 124.068,-27.04 167.368,-70.97 21.5,-21.8 39.13,-47.77 51.7,-76.65 0.3,0.35 0.59,0.7 0.88,1.05 0.29,0.34 0.57,0.67 0.86,1.01 0.27,0.31 0.54,0.63 0.81,0.94 0.26,0.3 0.52,0.6 0.78,0.89 0.25,0.29 0.5,0.57 0.74,0.85 0.24,0.26 0.48,0.53 0.71,0.79 0.23,0.25 0.45,0.5 0.68,0.75 0.21,0.23 0.43,0.46 0.64,0.7 0.2,0.22 0.41,0.44 0.61,0.66 0.19,0.2 0.38,0.41 0.57,0.61 0.18,0.19 0.37,0.39 0.55,0.58 0.17,0.18 0.33,0.35 0.5,0.53 0.16,0.17 0.32,0.34 0.48,0.5 0.15,0.15 0.29,0.3 0.44,0.45 0.13,0.14 0.27,0.28 0.41,0.42 0.12,0.13 0.24,0.26 0.37,0.39 0.11,0.11 0.23,0.23 0.34,0.35 0.1,0.1 0.21,0.2 0.31,0.31 0.09,0.09 0.18,0.18 0.27,0.27 0.08,0.08 0.16,0.16 0.24,0.24 0.07,0.07 0.14,0.14 0.21,0.21 0.06,0.06 0.12,0.12 0.17,0.17 0.05,0.05 0.1,0.09 0.14,0.14 0.04,0.03 0.07,0.07 0.11,0.1 0.02,0.03 0.04,0.05 0.07,0.08 0.01,0.01 0.02,0.02 0.04,0.03 0,0.01 0,0.01 0,0.01 32.45,32.14 77.08,52 126.36,52 47.1,0 89.83,-18.28 121.86,-47.95 34.46,87.68 119.82,149.78 219.73,149.78 65.85,0 125.42,-26.97 168.24,-70.47 41.95,-42.61 67.82,-101.08 67.82,-165.6 0,-7.52 -0.39,-14.95 -1.07,-22.3 0.9,0.31 1.82,0.62 2.73,0.91 0.89,0.29 1.79,0.58 2.69,0.86 0.87,0.27 1.75,0.53 2.63,0.79 0.86,0.25 1.73,0.5 2.59,0.74 0.85,0.24 1.7,0.47 2.55,0.7 0.83,0.22 1.66,0.43 2.5,0.64 0.82,0.2 1.64,0.4 2.46,0.6 0.81,0.19 1.61,0.37 2.42,0.55 0.8,0.18 1.59,0.35 2.38,0.52 0.79,0.16 1.57,0.32 2.36,0.48 0.77,0.15 1.53,0.29 2.31,0.44 0.76,0.13 1.52,0.27 2.28,0.4 0.75,0.13 1.5,0.25 2.25,0.37 0.74,0.12 1.48,0.23 2.22,0.34 0.73,0.1 1.46,0.21 2.19,0.31 0.72,0.09 1.44,0.18 2.17,0.27 0.71,0.09 1.41,0.17 2.13,0.25 0.7,0.08 1.4,0.15 2.1,0.22 0.69,0.07 1.39,0.14 2.08,0.2 0.68,0.06 1.37,0.11 2.05,0.17 0.68,0.05 1.35,0.09 2.03,0.14 0.66,0.04 1.33,0.08 2,0.12 0.66,0.04 1.32,0.07 1.98,0.1 0.65,0.03 1.3,0.05 1.95,0.07 0.64,0.02 1.28,0.04 1.92,0.06 0.64,0.01 1.27,0.02 1.91,0.03 0.63,0.01 1.25,0.01 1.88,0.02 0.16,0 0.33,0 0.49,0 0.45,0 0.92,0 1.37,-0.01 0.61,0 1.22,-0.01 1.83,-0.02 0.61,-0.01 1.21,-0.02 1.81,-0.04 0.6,-0.01 1.19,-0.03 1.79,-0.05 0.59,-0.02 1.18,-0.05 1.77,-0.07 0.58,-0.03 1.16,-0.06 1.74,-0.09 0.57,-0.03 1.15,-0.06 1.72,-0.1 0.57,-0.03 1.13,-0.07 1.7,-0.11 0.56,-0.04 1.12,-0.08 1.68,-0.13 0.55,-0.04 1.1,-0.09 1.65,-0.14 0.54,-0.05 1.09,-0.1 1.63,-0.15 0.54,-0.05 1.07,-0.11 1.61,-0.17 0.53,-0.05 1.06,-0.11 1.59,-0.17 0.52,-0.06 1.04,-0.12 1.56,-0.19 43.66,-5.38 82.73,-25.59 112.01,-55.43 33.6,-34.24 54.32,-81.16 54.32,-132.92 0,-104.81 -84.97,-189.77 -189.78,-189.77 -2.13,0 -4.19,0.24 -6.3,0.31 -11.8,-97.86 -91.42,-173.61 -188.11,-173.61 -40.6,0 -78.13,13.46 -108.99,36.2 -46.4,-82.49 -132.05,-137.88 -230.11,-137.88" style="fill: url(&quot;#linearGradient1103&quot;); fill-opacity: 1; fill-rule: nonzero; stroke: none;" transform="matrix(0.13333331048488617, 0, 0, -0.13333331048488617, -1.4210854715202004e-14, 666.6666870117188)" clip-path="url(#clipPath1103)"/>
  <path id="path1104" d="m 1924.36,1996.82 c -21.46,0 -42.01,-3.73 -61.25,-10.3 0.68,7.35 1.07,14.78 1.07,22.3 0,130.38 -105.68,236.07 -236.06,236.07 -99.91,0 -185.27,-62.1 -219.73,-149.78 -32.03,29.67 -74.76,47.95 -121.86,47.95 -55.64,0 -105.35,-25.32 -138.29,-65.03 -37.9,87.06 -121.71,147.62 -219.068,147.62 -130.195,0 -236.176,-108.23 -240.496,-243.42 -24.047,11.02 -50.707,17.33 -78.895,17.33 C 504.965,1999.56 420,1914.6 420,1809.79 c 0,-103.32 82.582,-187.16 185.309,-189.57 -3.493,-29.87 0.699,-60.39 13.711,-88.93 41.523,-91.08 157.136,-127.54 258.226,-81.45 20.199,9.21 38.246,21.05 53.93,34.78 38,-20.63 82.504,-32.51 130.094,-32.51 37.11,0 72.31,7.27 104.05,20.23 47.32,-78.15 130.61,-130.06 225.53,-130.06 98.06,0 183.71,55.39 230.11,137.88 30.86,-22.74 68.39,-36.2 108.99,-36.2 96.69,0 176.31,75.75 188.11,173.61 2.11,-0.07 4.17,-0.31 6.3,-0.31 104.81,0 189.78,84.96 189.78,189.77 0,104.82 -84.97,189.79 -189.78,189.79" style="fill-opacity: 1; fill-rule: nonzero; stroke: none; fill: url(&quot;#gradient-0-0&quot;);" transform="matrix(0.13333331048488617, 0, 0, -0.13333331048488617, -1.4210854715202004e-14, 666.6666870117188)" clip-path="url(#clipPath1106)"/>
  <path id="path1107" d="m 1924.36,1996.82 v 5 c -22.04,0 -43.15,-3.84 -62.87,-10.56 l 1.62,-4.74 4.97,-0.46 c 0.7,7.48 1.1,15.07 1.1,22.76 0,133.14 -107.92,241.07 -241.06,241.07 -102.03,0 -189.2,-63.41 -224.38,-152.95 l 4.65,-1.83 3.4,3.67 c -32.89,30.47 -76.85,49.28 -125.26,49.28 -57.17,0 -108.3,-26.03 -142.14,-66.84 l 3.85,-3.19 4.59,1.99 c -38.62,88.74 -124.16,150.63 -223.658,150.63 -133.078,-0.03 -241.109,-110.54 -245.492,-248.26 l 4.996,-0.16 2.086,4.54 c -24.664,11.31 -52.043,17.79 -80.981,17.79 -107.578,0 -194.777,-87.2 -194.781,-194.77 0.004,-106.04 84.762,-192.1 190.191,-194.56 l 0.118,4.99 -4.969,0.59 c -0.801,-6.87 -1.211,-13.78 -1.211,-20.69 0,-24 4.934,-48.08 15.34,-70.9 30.25,-66.32 98.488,-104.36 172.176,-104.33 30.668,0 62.328,6.57 92.675,20.4 20.649,9.42 39.11,21.52 55.149,35.57 l -3.293,3.76 -2.383,-4.4 c 38.727,-21.02 84.047,-33.11 132.477,-33.11 37.77,0 73.61,7.4 105.94,20.6 l -1.89,4.63 -4.27,-2.59 c 48.13,-79.52 133.01,-132.47 229.8,-132.47 99.99,0 187.27,56.49 234.46,140.43 l -4.35,2.45 -2.97,-4.03 c 31.65,-23.32 70.25,-37.17 111.96,-37.16 99.4,0.02 181.01,77.8 193.08,178 l -4.97,0.6 -0.16,-5 c 1.83,-0.05 3.95,-0.31 6.46,-0.31 107.58,0 194.78,87.19 194.78,194.77 0,107.58 -87.2,194.78 -194.78,194.79 v -5 -5 c 51.04,-0.01 97.21,-20.68 130.66,-54.13 33.45,-33.45 54.12,-79.62 54.12,-130.66 0,-51.04 -20.67,-97.2 -54.12,-130.66 -33.45,-33.44 -79.62,-54.11 -130.66,-54.11 -1.74,-0.01 -3.74,0.22 -6.14,0.31 l -4.57,0.14 -0.55,-4.54 c -11.54,-95.53 -89.18,-169.23 -183.15,-169.21 -39.49,0.01 -75.96,13.08 -106.03,35.22 l -4.55,3.36 -2.77,-4.93 c -45.6,-81.05 -129.63,-135.34 -225.75,-135.33 -93.06,0 -174.74,50.87 -221.25,127.65 l -2.21,3.66 -3.96,-1.62 c -31.15,-12.71 -65.7,-19.86 -102.16,-19.86 -46.76,0 -90.438,11.67 -127.707,31.9 l -3.059,1.66 -2.621,-2.29 c -15.324,-13.42 -32.961,-24.98 -52.711,-33.99 -29.043,-13.24 -59.285,-19.5 -88.527,-19.5 -70.352,0.02 -134.672,36.15 -163.079,98.47 -9.796,21.5 -14.433,44.13 -14.437,66.76 0,6.52 0.387,13.04 1.144,19.52 l 0.637,5.46 -5.484,0.12 c -100.02,2.34 -180.43,83.98 -180.426,184.57 0.004,51.04 20.676,97.2 54.121,130.65 33.453,33.45 79.617,54.12 130.66,54.12 27.438,0 53.375,-6.14 76.813,-16.88 l 6.84,-3.13 0.242,7.52 c 4.258,132.67 108.179,238.62 235.496,238.58 95.228,0.01 177.288,-59.23 214.488,-144.62 l 3.24,-7.45 5.19,6.26 c 32.04,38.62 80.34,63.21 134.44,63.22 45.79,-0.01 87.3,-17.76 118.46,-46.62 l 5.37,-4.98 2.68,6.82 c 33.74,85.83 117.28,146.62 215.08,146.61 63.82,0 121.56,-25.85 163.39,-67.68 41.82,-41.83 67.67,-99.57 67.67,-163.39 0,-7.35 -0.38,-14.62 -1.05,-21.83 l -0.72,-7.69 7.31,2.49 c 18.76,6.4 38.76,10.03 59.64,10.03 v 5" style="fill: rgb(255, 255, 255); fill-opacity: 1; fill-rule: nonzero; stroke: none;" transform="matrix(0.13333331048488617, 0, 0, -0.13333331048488617, -1.4210854715202004e-14, 666.6666870117188)"/>
</svg>